<svg width="120" height="120" viewBox="0 0 120 120" fill="none" xmlns="http://www.w3.org/2000/svg">
<g opacity="0.6">
<path d="M37.8739 30.4536C37.8739 30.4536 51.5202 40.809 72.2659 21.4462C90.6902 4.25016 105.734 31.3815 105.839 44.3743C105.976 61.2052 87.4148 74.6721 96.4222 85.7268C105.43 96.7814 78.5592 115.036 64.0773 99.2379C46.0623 79.5853 41.1819 95.5531 30.9134 95.5531C23.5437 95.5531 8.41273 77.2411 18.6305 63.6175C27.2285 52.1535 22.5393 48.3487 20.2685 44.3743C16.9929 38.6422 24.7721 23.0839 37.8739 30.4536Z" fill="#3C4255"/>
<path d="M98.7288 23.3947C98.7288 23.6494 98.7177 23.9004 98.6954 24.149C98.4973 26.3948 97.4277 28.4736 95.7155 29.9404C94.0034 31.4071 91.785 32.1451 89.5354 31.9962C87.2858 31.8473 85.184 30.8234 83.6801 29.1438C82.1762 27.4642 81.3899 25.2624 81.4895 23.0101C81.5891 20.7579 82.5668 18.6341 84.213 17.0938C85.8593 15.5535 88.0433 14.7192 90.2972 14.7695C92.5512 14.8197 94.6958 15.7506 96.2718 17.3628C97.8477 18.975 98.7297 21.1402 98.7288 23.3947Z" fill="#FFE3CA"/>
<path d="M91.1934 24.055C90.6369 24.4877 89.8591 25.3496 90.0941 27.2675C89.8332 28.0119 88.9058 29.4339 88.9058 30.1139C88.9058 30.794 87.7929 30.9179 87.6693 30.7319C87.5456 30.5459 87.4838 28.1971 86.8037 27.7643C86.1236 27.3315 86.2473 25.3531 86.2473 25.3531C86.2473 25.3531 86.4946 24.6111 85.6908 24.1165C84.8871 23.6219 84.327 22.4472 85.0404 21.7671C85.7527 21.087 83.836 20.6542 83.5887 20.1596C83.4836 19.9496 83.0805 19.4795 82.6527 19.0109C83.5777 17.4442 84.9725 16.2086 86.6393 15.4793C87.2712 16.1393 87.8177 16.9842 87.6693 17.872C87.694 18.3048 89.5723 18.9849 88.6524 19.912C87.7312 20.8394 86.481 22.138 88.6524 22.5706C90.8224 23.004 91.7498 23.622 91.1934 24.055Z" fill="#FCC591"/>
<path d="M96.1321 17.2232C95.6697 18.1988 94.5098 18.9852 93.8521 18.9852C93.1102 18.1812 91.5027 19.2944 91.3519 17.996C91.2641 17.2393 92.1272 16.0645 92.8629 15.2138C94.0895 15.63 95.2068 16.3167 96.1321 17.2232Z" fill="#FCC591"/>
<path d="M98.6954 24.149C98.5113 26.2839 97.5367 28.2731 95.9626 29.7269C95.677 29.4536 95.4359 29.1334 95.5212 28.8775C95.7067 28.321 96.461 27.1463 96.3312 26.4044C96.2101 25.7119 96.8493 23.6173 98.6954 24.149Z" fill="#FCC591"/>
<path d="M84.6554 67.0096C84.3793 68.713 83.9222 70.382 83.292 71.9884C79.1853 82.5082 68.1684 89.0984 56.5744 87.2044C50.1736 86.1565 44.4508 82.61 40.664 77.3443C36.8771 72.0786 35.3361 65.5247 36.3796 59.1233C36.4327 58.7985 36.4945 58.471 36.5591 58.1523C39.1748 45.355 51.454 36.8038 64.4607 38.9283C68.3418 39.5557 72.0129 41.1151 75.1591 43.4726C76.1929 44.2446 77.1629 45.0985 78.0596 46.0262C80.7223 48.765 82.706 52.0898 83.8514 55.7339C84.9969 59.3779 85.2723 63.2397 84.6554 67.0094V67.0096Z" fill="#F36F39"/>
<path d="M83.2922 71.9884C78.6345 74.9869 73.1342 77.7604 67.0703 80.0539C60.8957 82.3879 54.8323 83.9648 49.275 84.7907C36.2158 86.7377 25.9598 84.5621 23.649 78.4497C21.4849 72.7405 26.8077 65.0076 36.5592 58.1523C36.4946 58.471 36.4328 58.7985 36.3797 59.1233C36.1848 60.3121 36.0791 61.5139 36.0633 62.7185C30.4449 67.0565 27.5211 71.305 28.6737 74.3525C29.7943 77.3155 34.5522 78.5765 41.3208 78.219C47.938 77.8705 56.4768 75.9644 65.4144 72.5856C73.1445 69.6597 79.9231 66.1031 84.9705 62.5306C91.7276 57.7536 95.3925 52.9466 94.1276 49.5932C92.827 46.1507 86.6208 45.0032 78.0596 46.0264C77.1629 45.0987 76.193 44.2448 75.1592 43.4729C87.143 42.0879 96.3801 44.3513 98.5572 50.1085C100.89 56.2661 94.5287 64.7673 83.2922 71.9884Z" fill="#FCC591"/>
</g>
</svg>
