<svg width="120" height="120" viewBox="0 0 120 120" fill="none" xmlns="http://www.w3.org/2000/svg">
<g opacity="0.6">
<path d="M36.2382 31.6654C36.2382 31.6654 49.1055 41.43 68.6672 23.172C86.0397 6.95754 100.225 32.5403 100.324 44.7915C100.453 60.6615 82.9514 73.36 91.4448 83.7836C99.9381 94.2073 74.6013 111.42 60.946 96.5236C43.9593 77.9927 39.3574 93.0491 29.6751 93.0491C22.726 93.0491 8.45876 75.7823 18.0933 62.9363C26.2006 52.1266 21.779 48.5391 19.6378 44.7915C16.549 39.3866 23.8842 24.7163 36.2382 31.6654Z" fill="#3C4255"/>
<path d="M87.8964 53.2436C88.588 53.5006 89.3439 53.5177 90.063 53.3526C93.0759 52.661 103.436 50.83 101.635 58.8578C101.244 60.4506 95.176 69.3705 103.817 72.6266C104.45 72.8682 105.12 73.0001 105.797 73.0166C108.457 73.0714 113.73 72.4433 115.936 70.1972C118.601 67.484 115.689 68.7707 115.689 68.7707C115.689 68.7707 105.556 73.1927 101.977 68.5012C101.579 67.9792 101.325 67.2211 101.252 66.5684C101.126 65.4368 101.629 63.9414 102.289 62.6396C103.182 60.8778 107.471 52.9523 98.1593 50.6435C96.0141 50.1327 92.8985 49.6738 88.8812 51.3652C86.5379 52.3517 87.0569 52.9316 87.8964 53.2436Z" fill="#FCEFE4"/>
<path d="M89.9701 50.2849L87.273 51.2943C86.3419 51.6428 85.8696 52.68 86.2181 53.611L86.3518 53.9682C86.7002 54.8993 87.7375 55.3716 88.6685 55.0231L91.3656 54.0137C92.2967 53.6652 92.769 52.628 92.4205 51.697L92.2868 51.3397C91.9383 50.4087 90.9011 49.9364 89.9701 50.2849Z" fill="#FCC591"/>
<path d="M73.4145 53.2057L64.5195 56.5348C64.054 56.709 63.8179 57.2276 63.9921 57.6931L64.0271 57.7867C64.2014 58.2523 64.72 58.4884 65.1855 58.3142L74.0804 54.9851C74.546 54.8109 74.7821 54.2923 74.6079 53.8268L74.5728 53.7332C74.3986 53.2677 73.88 53.0315 73.4145 53.2057Z" fill="#FFE3CA"/>
<path d="M75.8971 59.8387L67.0021 63.1677C66.5366 63.342 66.3004 63.8606 66.4746 64.3261L66.5097 64.4197C66.6839 64.8853 67.2025 65.1214 67.6681 64.9472L76.563 61.6181C77.0286 61.4439 77.2647 60.9253 77.0905 60.4597L77.0554 60.3661C76.8812 59.9006 76.3626 59.6645 75.8971 59.8387Z" fill="#FFE3CA"/>
<path d="M84.1092 48.6791L76.9 51.3772C75.969 51.7257 75.4967 52.7629 75.8452 53.694L78.3065 60.2704C78.655 61.2015 79.6922 61.6738 80.6232 61.3253L87.8324 58.6272C88.7635 58.2787 89.2357 57.2415 88.8873 56.3105L86.4259 49.734C86.0775 48.803 85.0403 48.3307 84.1092 48.6791Z" fill="#C46D5E"/>
<path d="M77.6448 50.4044L70.4357 53.1026C69.5046 53.451 69.0324 54.4882 69.3808 55.4193L72.3173 63.2653C72.6657 64.1963 73.703 64.6686 74.634 64.3202L81.8432 61.622C82.7742 61.2736 83.2465 60.2364 82.8981 59.3053L79.9616 51.4593C79.6131 50.5283 78.5759 50.056 77.6448 50.4044Z" fill="#F36F39"/>
<path d="M78.7734 48.8121L78.7169 48.8333C78.0962 49.0656 77.7813 49.7571 78.0136 50.3778L82.1273 61.3692C82.3596 61.9899 83.0511 62.3047 83.6718 62.0724L83.7283 62.0513C84.349 61.819 84.6639 61.1275 84.4316 60.5068L80.3179 49.5154C80.0856 48.8947 79.3941 48.5798 78.7734 48.8121Z" fill="#FCC591"/>
<path d="M5.26345 55.8396C5.26345 55.8396 19.7419 51.7708 17.6399 61.145C17.2748 62.6282 12.0201 70.2656 18.2793 73.9325C19.6233 74.7199 21.1743 75.0686 22.7318 75.0605C25.5244 75.046 29.9515 74.5085 31.9403 72.4841C34.6058 69.7708 31.6939 71.0575 31.6939 71.0575C31.6939 71.0575 23.3786 74.4779 19.1008 71.7514C17.6401 70.8205 16.978 69.0179 17.3746 67.3318C17.5774 66.4942 17.8861 65.6859 18.2933 64.9265C19.2237 63.184 23.4757 55.2392 14.1637 52.9304C12.0186 52.4195 8.90293 51.9607 4.88563 53.6521C0.868331 55.3435 5.26345 55.8396 5.26345 55.8396Z" fill="#FCEFE4"/>
<path d="M33.8873 68.9599L31.1902 69.9693C30.2592 70.3178 29.7869 71.355 30.1353 72.2861L30.269 72.6433C30.6175 73.5743 31.6547 74.0466 32.5858 73.6982L35.2829 72.6887C36.2139 72.3403 36.6862 71.303 36.3377 70.372L36.204 70.0148C35.8556 69.0837 34.8183 68.6114 33.8873 68.9599Z" fill="#FCC591"/>
<path d="M38.444 64.5223L34.4468 66.0184C33.5157 66.3668 33.0435 67.4041 33.3919 68.3351L35.3194 73.4851C35.6678 74.4162 36.7051 74.8885 37.6361 74.54L41.6334 73.044C42.5644 72.6955 43.0367 71.6583 42.6882 70.7272L40.7608 65.5772C40.4123 64.6462 39.3751 64.1739 38.444 64.5223Z" fill="#C46D5E"/>
<path d="M45.0986 60.5573L39.1376 62.7883C38.2065 63.1368 37.7343 64.174 38.0827 65.105L41.0192 72.951C41.3676 73.8821 42.4049 74.3544 43.3359 74.0059L49.2969 71.7749C50.228 71.4265 50.7003 70.3892 50.3518 69.4582L47.4154 61.6122C47.0669 60.6811 46.0297 60.2088 45.0986 60.5573Z" fill="#F36F39"/>
<path d="M46.3613 58.9324L46.3048 58.9536C45.6841 59.1859 45.3692 59.8774 45.6015 60.4981L49.7152 71.4894C49.9475 72.1101 50.639 72.425 51.2597 72.1927L51.3162 72.1715C51.9369 71.9392 52.2518 71.2477 52.0195 70.627L47.9058 59.6357C47.6735 59.015 46.982 58.7001 46.3613 58.9324Z" fill="#FCC591"/>
<path d="M61.5831 51.93C61.3684 51.9062 61.1713 51.8 61.0334 51.6338C60.8954 51.4676 60.8273 51.2544 60.8434 51.039L61.2882 42.915C61.3147 42.4297 61.7245 42.061 62.1895 42.1039L62.8375 42.1639C63.3026 42.2068 63.6355 42.6439 63.5705 43.1258L62.4775 51.1898C62.4524 51.4046 62.3454 51.6014 62.1788 51.7393C62.0122 51.8772 61.7988 51.9455 61.5831 51.93Z" fill="#FFA552"/>
<path d="M57.7426 52.6305C57.6758 52.6501 57.6058 52.6564 57.5366 52.649C57.4674 52.6415 57.4004 52.6205 57.3393 52.5872C57.2782 52.5538 57.2243 52.5088 57.1806 52.4546C57.1369 52.4004 57.1044 52.3382 57.0848 52.2714L55.4965 47.2178C55.4503 47.0741 55.463 46.9179 55.5318 46.7836C55.6006 46.6492 55.7199 46.5476 55.8635 46.5011L56.2748 46.3771C56.3453 46.3565 56.4194 46.3507 56.4923 46.3602C56.5652 46.3697 56.6353 46.3941 56.6983 46.4321C56.7612 46.47 56.8156 46.5206 56.858 46.5806C56.9004 46.6407 56.9299 46.7089 56.9447 46.7809L58.1219 51.9586C58.1547 52.0977 58.1339 52.2442 58.0636 52.3687C57.9933 52.4932 57.8787 52.5867 57.7426 52.6305Z" fill="#FFA552"/>
<path d="M55.5993 55.5447C55.3148 55.8974 54.7424 55.8932 54.3018 55.5352L46.4796 49.1799C46.0124 48.8003 45.8745 48.1719 46.1765 47.7981L46.5972 47.2768C46.8992 46.9028 47.5193 46.9335 47.9614 47.3443L55.3628 54.2209C55.7796 54.6081 55.8839 55.1921 55.5993 55.5447Z" fill="#FFA552"/>
<path d="M59.215 71.9598C59.4165 72.0377 59.5799 72.1906 59.6709 72.3865C59.7618 72.5825 59.7732 72.806 59.7027 73.0102L57.1979 80.7509C57.0482 81.2133 56.5579 81.4649 56.1192 81.3049L55.5077 81.0815C55.0691 80.9213 54.8585 80.4134 55.0447 79.9644L58.1609 72.447C58.24 72.2456 58.3938 72.0825 58.5902 71.9918C58.7866 71.901 59.0104 71.8895 59.215 71.9598Z" fill="#FFA552"/>
<path d="M63.107 72.2634C63.1766 72.2615 63.2459 72.2733 63.3109 72.2981C63.3759 72.323 63.4354 72.3604 63.4859 72.4082C63.5365 72.4561 63.5771 72.5134 63.6055 72.5769C63.6339 72.6405 63.6495 72.709 63.6514 72.7785L63.8964 78.0702C63.9043 78.221 63.8522 78.3687 63.7513 78.481C63.6505 78.5934 63.5092 78.6611 63.3585 78.6694L62.9291 78.6844C62.8556 78.6862 62.7825 78.6729 62.7145 78.6451C62.6464 78.6173 62.5849 78.5757 62.5337 78.523C62.4825 78.4702 62.4428 78.4074 62.4172 78.3385C62.3915 78.2697 62.3804 78.1962 62.3845 78.1228L62.5689 72.8162C62.5727 72.6733 62.6302 72.5371 62.7299 72.4346C62.8297 72.3322 62.9643 72.2711 63.107 72.2634Z" fill="#FFA552"/>
<path d="M65.9235 69.9932C66.2888 69.7249 66.841 69.8751 67.1756 70.3337L73.1153 78.4758C73.4701 78.9622 73.443 79.6047 73.0553 79.8892L72.5153 80.2857C72.1279 80.5702 71.5362 80.3822 71.2137 79.8721L65.8136 71.3332C65.51 70.8526 65.5583 70.2614 65.9235 69.9932Z" fill="#FFA552"/>
</g>
</svg>
