<svg width="119" height="121" viewBox="0 0 119 121" fill="none" xmlns="http://www.w3.org/2000/svg">
<g opacity="0.6">
<path d="M38.471 118.022C46.8497 123.093 52.8271 120.987 55.1155 116.921C59.5409 109.057 74.2552 92.9769 97.5732 87.5418C128.456 80.3433 122.007 61.2301 103.022 51.2004C84.0365 41.1707 69.8409 27.2927 71.9894 12.2029C74.1379 -2.88699 52.8504 -8.08894 43.3835 20.9388C37.2659 39.6977 26.3025 44.7233 19.3114 45.9313C12.7224 47.0698 5.51491 48.4984 2.00017 54.209C-2.26474 61.1379 -0.776489 68.147 17.0797 72.9543C42.3837 79.7666 19.6905 106.655 38.471 118.022Z" fill="#3C4255"/>
<path d="M27.0816 79.0368C27.3511 78.8826 30.3924 77.595 45.5222 84.6485C45.4781 84.7085 45.4594 84.7369 45.4594 84.7369C45.4594 84.7369 29.7304 90.0339 26.6487 83.5083C25.7284 81.5656 25.9921 80.2279 27.0553 79.0519L27.0816 79.0368Z" fill="#FCC591"/>
<path d="M77.9342 81.7078C74.6471 84.4712 69.4922 86.4769 64.5182 83.8097C65.3042 83.3075 66.116 82.7902 66.944 82.255C71.9392 79.0455 76.3391 81.193 77.9342 81.7078Z" fill="#FCC591"/>
<path d="M83.8221 47.7207C87.1805 75.6858 79.1994 80.7611 78.3109 81.532C78.0537 81.7552 77.9494 81.739 77.5605 81.6388L77.5539 81.6426C75.9079 81.2062 71.9393 79.0455 66.944 82.2546C66.116 82.7898 65.3039 83.3071 64.5181 83.8093C59.4223 87.0412 55.3073 89.3187 52.3426 87.9969C49.828 86.714 47.5606 85.6038 45.5222 84.6502C30.3924 77.5968 27.3511 78.8842 27.0817 79.0386C27.3943 78.8683 30.2625 77.2784 34.1245 74.4826C34.1376 74.475 34.1507 74.4675 34.1536 74.4572C39.3156 70.7162 46.2286 64.8208 51.1977 57.2372C54.5804 52.0803 57.8897 39.007 64.2749 36.4419C77.3975 31.5465 83.2772 42.0324 83.8221 47.7207Z" fill="#F36F39"/>
<path d="M69.3121 47.229C69.7195 46.1534 69.6798 45.1414 69.2235 44.9685C68.7671 44.7957 68.067 45.5276 67.6597 46.6032C67.2523 47.6788 67.292 48.6909 67.7484 48.8637C68.2047 49.0365 68.9048 48.3046 69.3121 47.229Z" fill="#FFE3CA"/>
<path d="M77.6675 48.6024C77.9562 47.4891 77.8073 46.4872 77.335 46.3648C76.8627 46.2423 76.2457 47.0455 75.957 48.1589C75.6684 49.2723 75.8172 50.2741 76.2896 50.3966C76.7619 50.519 77.3788 49.7158 77.6675 48.6024Z" fill="#FFE3CA"/>
<path d="M72.5815 52.6903C72.5131 52.6902 72.4467 52.6667 72.3934 52.6238C72.3402 52.5808 72.3032 52.5209 72.2887 52.454C72.2352 52.2118 71.9972 51.4953 71.62 51.3888C71.2427 51.2823 70.5026 51.6958 70.2032 51.9127C70.1387 51.9593 70.0584 51.9785 69.9798 51.9659C69.9012 51.9534 69.8309 51.9101 69.7842 51.8457C69.7375 51.7812 69.7184 51.7009 69.7309 51.6223C69.7435 51.5437 69.7868 51.4734 69.8512 51.4267C69.9692 51.3412 71.0261 50.5978 71.7829 50.8113C72.5722 51.034 72.8463 52.1947 72.8749 52.3264C72.8844 52.3702 72.884 52.4156 72.8737 52.4593C72.8634 52.5029 72.8434 52.5437 72.8153 52.5786C72.7871 52.6135 72.7515 52.6417 72.711 52.661C72.6705 52.6803 72.6263 52.6903 72.5814 52.6903H72.5815Z" fill="#FFE3CA"/>
</g>
</svg>
