<svg width="79" height="83" viewBox="0 0 79 83" fill="none" xmlns="http://www.w3.org/2000/svg">
<circle cx="48" cy="52" r="31" fill="#3C4255"/>
<path d="M48.9887 11.7299L48.7903 22.4682C48.762 23.9416 49.6971 25.8966 50.8871 26.7749L57.9138 32.1016C62.4188 35.5016 61.6821 39.6666 56.2987 41.3666L47.1471 44.2283C45.6171 44.7099 44.0021 46.3816 43.6055 47.9399L41.4237 56.2699C39.6954 62.8433 35.3887 63.4949 31.8187 57.7149L26.832 49.6399C25.9253 48.1666 23.772 47.0616 22.072 47.1466L12.6088 47.6282C5.83713 47.9682 3.91043 44.0582 8.33043 38.9016L13.9404 32.3849C14.9887 31.1666 15.4704 28.8999 14.9887 27.3699L12.1272 18.2182C10.4555 12.8349 13.4588 9.85993 18.8138 11.6166L27.1722 14.3649C28.5888 14.8183 30.7138 14.5066 31.9038 13.6282L40.6305 7.33823C45.3338 3.93823 49.102 5.92158 48.9887 11.7299Z" fill="#A2A5AF"/>
<path opacity="0.4" d="M60.7467 57.9984L52.1616 49.4134C51.3399 48.5917 49.9799 48.5917 49.1582 49.4134C48.3366 50.235 48.3366 51.595 49.1582 52.4167L57.7433 61.0017C58.1683 61.4267 58.7066 61.625 59.2449 61.625C59.7832 61.625 60.3217 61.4267 60.7467 61.0017C61.5683 60.18 61.5683 58.82 60.7467 57.9984Z" fill="#A2A5AF"/>
</svg>
