<svg width="61" height="73" viewBox="0 0 61 73" fill="none" xmlns="http://www.w3.org/2000/svg">
<circle cx="31" cy="43" r="30" fill="#3C4255"/>
<path opacity="0.4" d="M48.1 13.9501H47.1L38.65 5.50015C37.975 4.82515 36.875 4.82515 36.175 5.50015C35.5 6.17515 35.5 7.27515 36.175 7.97515L42.15 13.9501H17.85L23.825 7.97515C24.5 7.30015 24.5 6.20015 23.825 5.50015C23.15 4.82515 22.05 4.82515 21.35 5.50015L12.925 13.9501H11.925C9.675 13.9501 5 13.9501 5 20.3501C5 22.7751 5.5 24.3751 6.55 25.4251C7.15 26.0501 7.875 26.3751 8.65 26.5501C9.375 26.7251 10.15 26.7501 10.9 26.7501H49.1C49.875 26.7501 50.6 26.7001 51.3 26.5501C53.4 26.0501 55 24.5501 55 20.3501C55 13.9501 50.325 13.9501 48.1 13.9501Z" fill="#A2A5AF"/>
<path d="M49.1504 26.75H10.9004C10.1754 26.75 9.37539 26.725 8.65039 26.525L11.8004 45.75C12.5254 50.05 14.4004 55 22.7254 55H36.7504C45.1754 55 46.6754 50.775 47.5754 46.05L51.3504 26.525C50.6504 26.7 49.9004 26.75 49.1504 26.75ZM34.8004 44.725C34.4254 45.1 33.9504 45.275 33.4754 45.275C33.0004 45.275 32.5254 45.1 32.1504 44.725L30.0254 42.6L27.8254 44.8C27.4504 45.175 26.9754 45.35 26.5004 45.35C26.0254 45.35 25.5504 45.175 25.1754 44.8C24.4504 44.075 24.4504 42.875 25.1754 42.15L27.3754 39.95L25.2504 37.825C24.5254 37.1 24.5254 35.9 25.2504 35.175C25.9754 34.45 27.1754 34.45 27.9004 35.175L30.0254 37.3L32.0754 35.25C32.8004 34.525 34.0004 34.525 34.7254 35.25C35.4504 35.975 35.4504 37.175 34.7254 37.9L32.6754 39.95L34.8004 42.075C35.5504 42.825 35.5504 44 34.8004 44.725Z" fill="#A2A5AF"/>
</svg>
