<svg width="121" height="121" viewBox="0 0 121 121" fill="none" xmlns="http://www.w3.org/2000/svg">
<path d="M1.65599 102.796C6.29152 113.787 13.8497 116.074 19.1641 113.787C29.4418 109.362 56.1394 104.419 83.5588 116.039C119.874 131.429 127.601 108.21 116.011 84.7228C104.421 61.236 100.492 37.4845 113.854 24.3987C127.215 11.313 109.73 -9.15754 78.6798 12.1509C58.6138 25.9213 43.8876 22.8549 35.9798 18.962C28.5268 15.2931 20.2383 11.4576 12.4727 14.4523C3.04981 18.0864 -0.662736 25.9654 13.6732 43.5669C33.9894 68.5098 -8.73583 78.16 1.65599 102.796Z" fill="#3C4255"/>
<path d="M106.64 26.9242C106.517 27.076 106.378 27.2157 106.227 27.3414L95.395 36.4491L87.3101 60.3075L64.7716 76.3092C64.7716 76.3092 60.9313 79.4352 57.4258 79.725C56.6411 79.9916 54.2637 80.8903 52.9469 82.2791C52.5223 82.7271 49.193 92.2804 44.0292 105.79C43.7708 106.466 43.2616 107.024 42.6015 107.354C41.9415 107.684 41.1783 107.762 40.4619 107.574C34.0092 105.872 19.5562 102.125 12.6796 99.5941C12.2558 99.4385 11.8778 99.1844 11.5784 98.854C11.2791 98.5236 11.0676 98.127 10.9624 97.6989C10.8573 97.2708 10.8617 96.8241 10.9753 96.398C11.0889 95.9719 11.3082 95.5794 11.614 95.2546C19.5158 86.8628 36.1287 67.6549 36.1287 67.6549L37.2558 65.3805C37.2558 65.3805 44.3529 43.836 46.6743 42.4356C47.5521 41.5095 52.6017 34.3276 54.5886 29.3174C55.0401 28.5882 57.1345 25.5536 58.8889 22.9334C60.1319 21.0604 61.211 19.3941 61.395 18.9182C61.4346 18.8091 61.501 18.711 61.5883 18.6324C61.5883 18.6324 61.5828 18.6309 61.5899 18.627C62.427 17.7774 65.2047 17.9693 65.3394 21.1947C65.4901 24.7527 62.1968 32.1335 61.534 32.3346C61.1986 33.1196 60.2459 37.3472 58.3819 40.9269C58.2214 41.468 57.9816 42.8657 59.5538 42.5266C61.1275 42.1822 97.5277 25.5212 97.5277 25.5212L102.042 22.7658C102.707 22.3477 103.498 22.1603 104.287 22.2341C105.22 22.3384 106.076 22.7903 106.675 23.4947C107.963 24.945 107.121 26.3383 106.64 26.9242Z" fill="#FFA552"/>
<path d="M60.7293 23.5189C60.0789 23.577 59.4149 23.2739 58.8892 22.9332C60.1323 21.0601 61.2113 19.3939 61.3953 18.9179C61.4349 18.8089 61.5013 18.7108 61.5886 18.6322C63.0867 20.3703 60.9089 23.3406 60.7293 23.5189Z" fill="#FFE3CA"/>
<path d="M97.9266 19.6783L71.2525 12.2082C69.3924 11.6873 67.4499 12.7301 66.9137 14.5373L50.7729 68.9447C50.2368 70.7519 51.3101 72.6393 53.1702 73.1602L79.8442 80.6303C81.7043 81.1512 83.6469 80.1084 84.183 78.3012L100.324 23.8938C100.86 22.0866 99.7867 20.1992 97.9266 19.6783Z" fill="#FCC591"/>
<path d="M96.5244 21.0407L71.693 14.0867C70.2979 13.696 68.841 14.4781 68.4389 15.8335L52.7743 68.6358C52.3722 69.9913 53.1771 71.4068 54.5722 71.7975L79.4036 78.7515C80.7987 79.1422 82.2556 78.3601 82.6577 77.0047L98.3223 24.2024C98.7244 22.8469 97.9195 21.4314 96.5244 21.0407Z" fill="#FFE3CA"/>
<path d="M97.7953 38.8408L93.3184 38.8065C91.104 38.7895 89.2947 40.5199 89.2772 42.6714C89.2597 44.8229 91.0407 46.5808 93.2551 46.5978L97.732 46.6321C99.9464 46.6491 101.756 44.9187 101.773 42.7672C101.791 40.6157 100.01 38.8578 97.7953 38.8408Z" fill="#FFA552"/>
<path d="M96.2429 46.8934L90.5747 46.85C88.779 46.8362 87.3118 48.2394 87.2976 49.9841C87.2834 51.7288 88.7277 53.1544 90.5234 53.1681L96.1916 53.2116C97.9873 53.2253 99.4545 51.8221 99.4687 50.0774C99.4829 48.3327 98.0386 46.9072 96.2429 46.8934Z" fill="#FFA552"/>
<path d="M92.4629 53.8061L89.1139 53.7804C87.7566 53.77 86.6476 54.8307 86.6369 56.1494C86.6262 57.4682 87.7178 58.5457 89.0751 58.5561L92.4241 58.5817C93.7814 58.5921 94.8904 57.5315 94.9011 56.2128C94.9118 54.894 93.8202 53.8165 92.4629 53.8061Z" fill="#FFA552"/>
<path d="M90.4922 54.6705L88.5355 54.6555C88.1967 54.6529 87.92 54.9176 87.9173 55.2467L87.9035 56.9476C87.9008 57.2767 88.1732 57.5456 88.512 57.5482L90.4688 57.5632C90.8075 57.5658 91.0843 57.3011 91.087 56.972L91.1008 55.2711C91.1035 54.942 90.831 54.6731 90.4922 54.6705Z" fill="#FFE3CA"/>
<path d="M92.4765 48.349L90.2843 48.3322C89.5584 48.3267 88.9653 48.8939 88.9596 49.5992L88.9512 50.6293C88.9455 51.3346 89.5293 51.9109 90.2552 51.9165L92.4474 51.9333C93.1734 51.9388 93.7665 51.3716 93.7722 50.6663L93.7806 49.6361C93.7863 48.9308 93.2025 48.3546 92.4765 48.349Z" fill="#FFE3CA"/>
<path d="M95.2848 40.1782L93.5147 40.1647C92.5468 40.1573 91.756 40.9136 91.7484 41.854L91.7374 43.2064C91.7298 44.1468 92.5082 44.9152 93.4761 44.9226L95.2462 44.9362C96.214 44.9436 97.0048 44.1873 97.0125 43.2469L97.0235 41.8944C97.0311 40.954 96.2527 40.1857 95.2848 40.1782Z" fill="#FFE3CA"/>
<path d="M29.173 56.4236C29.0468 56.8024 29.039 57.209 29.1506 57.5921C29.2622 57.9752 29.4883 58.3175 29.8001 58.5758C30.112 58.8341 30.4957 58.9967 30.9027 59.0432C31.3097 59.0896 31.7217 59.0177 32.0866 58.8366C32.4516 58.6555 32.7531 58.3733 32.953 58.0258C33.1528 57.6782 33.2422 57.2808 33.2096 56.884C33.1771 56.4871 33.0242 56.1085 32.7702 55.796C32.5162 55.4836 32.1725 55.2513 31.7827 55.1286C31.2599 54.9642 30.6913 55.0082 30.2019 55.2511C29.7125 55.4939 29.3424 55.9157 29.173 56.4236Z" fill="#FFA552"/>
<path d="M28.2369 51.5122C27.488 51.8812 26.822 52.391 26.2773 53.0119C25.7326 53.6328 25.3202 54.3525 25.0639 55.1294C24.9648 55.4267 24.9913 55.75 25.1376 56.0283C25.2838 56.3066 25.5379 56.517 25.8439 56.6133C26.1498 56.7096 26.4826 56.6839 26.769 56.5417C27.0555 56.3996 27.272 56.1528 27.3711 55.8555C27.5315 55.3741 27.788 54.9281 28.1258 54.543C28.4637 54.1579 28.8763 53.8412 29.3401 53.611C29.804 53.3809 30.3099 53.2417 30.8291 53.2016C31.3482 53.1614 31.8705 53.2211 32.3659 53.377C32.6719 53.4733 33.0047 53.4476 33.2911 53.3054C33.5775 53.1633 33.7941 52.9165 33.8932 52.6192C33.9923 52.3219 33.9658 51.9986 33.8195 51.7203C33.6733 51.442 33.4192 51.2316 33.1132 51.1353C32.3152 50.8816 31.4732 50.7843 30.6362 50.849C29.7991 50.9137 28.9836 51.1391 28.2369 51.5122Z" fill="#FFA552"/>
<path d="M26.4206 48.0573C25.2038 48.657 24.1215 49.4852 23.2364 50.4941C22.3513 51.5029 21.681 52.6723 21.2642 53.9346C21.2142 54.082 21.1948 54.2376 21.2069 54.3923C21.219 54.5471 21.2624 54.698 21.3347 54.8363C21.407 54.9747 21.5067 55.0979 21.6282 55.1987C21.7496 55.2995 21.8904 55.3761 22.0423 55.4239C22.1943 55.4717 22.3545 55.4899 22.5137 55.4774C22.6729 55.4649 22.828 55.4219 22.9701 55.351C23.1122 55.2801 23.2384 55.1826 23.3416 55.0641C23.4448 54.9456 23.5229 54.8085 23.5714 54.6607C23.8934 53.6945 24.4081 52.7994 25.0862 52.0265C25.7642 51.2536 26.5924 50.618 27.5232 50.1561C28.4541 49.6942 29.4696 49.415 30.5115 49.3343C31.5535 49.2537 32.6016 49.3733 33.596 49.6863C33.902 49.7826 34.2348 49.7568 34.5212 49.6147C34.8076 49.4726 35.0242 49.2257 35.1232 48.9285C35.2223 48.6312 35.1958 48.3079 35.0495 48.0296C34.9033 47.7513 34.6492 47.5409 34.3432 47.4446C33.0466 47.0327 31.6787 46.8747 30.3187 46.9798C28.9588 47.085 27.6339 47.4512 26.4206 48.0573Z" fill="#FFA552"/>
<path d="M35.5769 43.7453C33.7795 43.1796 31.885 42.9633 30.0016 43.109C28.1181 43.2547 26.2827 43.7594 24.6001 44.5944C22.9175 45.4293 21.4206 46.5781 20.195 47.9751C18.9693 49.3722 18.039 50.9901 17.457 52.7366C17.4079 52.8838 17.3891 53.0389 17.4018 53.1931C17.4144 53.3474 17.4582 53.4977 17.5306 53.6355C17.6031 53.7733 17.7027 53.8958 17.8239 53.9962C17.9451 54.0966 18.0854 54.1728 18.2369 54.2205C18.3884 54.2681 18.5481 54.2863 18.7068 54.2741C18.8656 54.2618 19.0203 54.2192 19.1621 54.1489C19.3039 54.0785 19.4301 53.9817 19.5334 53.8639C19.6367 53.7462 19.7151 53.6098 19.7642 53.4626C20.2481 52.0106 21.0216 50.6654 22.0406 49.5039C23.0596 48.3424 24.3041 47.3873 25.7031 46.6931C27.102 45.9989 28.6281 45.5793 30.1939 45.4583C31.7598 45.3372 33.3349 45.517 34.8293 45.9874C35.1353 46.0838 35.4682 46.058 35.7547 45.9159C36.0412 45.7737 36.2578 45.5269 36.3569 45.2295C36.4561 44.9322 36.4296 44.6088 36.2833 44.3304C36.137 44.0521 35.8829 43.8416 35.5769 43.7453Z" fill="#FFA552"/>
<path d="M113.103 0.948917C110.258 -0.739045 107.922 0.124009 107.227 1.22988C106.725 2.02856 107.189 2.80971 107.758 3.14737C108.896 3.82252 109.423 1.97067 111.573 3.24605C112.626 3.87122 113.186 4.82197 112.594 5.76386C111.899 6.86964 110.32 6.80426 109.264 6.965C108.331 7.11442 107.003 7.4789 105.896 9.23991C105.227 10.3047 105.328 10.7869 106.192 11.2996C107.225 11.9122 107.719 11.5868 107.963 11.1974C108.633 10.1326 109.04 9.53074 110.752 9.3379C111.592 9.24553 114.258 8.9157 115.468 6.99088C116.678 5.06606 115.8 2.54936 113.103 0.948917Z" fill="#FCC591"/>
<path d="M105.325 12.7247C105.112 12.5983 104.876 12.5139 104.629 12.4763C104.382 12.4387 104.13 12.4487 103.887 12.5057C103.645 12.5627 103.416 12.6656 103.214 12.8085C103.012 12.9514 102.841 13.1316 102.711 13.3386C102.581 13.5457 102.494 13.7757 102.456 14.0154C102.417 14.2551 102.427 14.4998 102.486 14.7356C102.545 14.9715 102.65 15.1938 102.798 15.3899C102.945 15.5859 103.13 15.7519 103.343 15.8784C103.774 16.1338 104.291 16.2125 104.781 16.0974C105.271 15.9823 105.694 15.6827 105.957 15.2645C106.22 14.8463 106.301 14.3438 106.183 13.8675C106.064 13.3912 105.756 12.9801 105.325 12.7247Z" fill="#FCC591"/>
</svg>
