<svg width="120" height="120" viewBox="0 0 120 120" fill="none" xmlns="http://www.w3.org/2000/svg">
<g opacity="0.6">
<path d="M41.4153 22.2891C42.1041 22.9661 42.8296 23.6031 43.6358 24.1349C47.748 26.8477 59.9784 33.3662 79.3255 30.6094C103.499 27.165 100.044 51.4966 96.5879 57.9911C93.1322 64.4855 80.3779 76.4152 79.3255 82.3722C78.2731 88.3292 82.9354 104.571 72.138 99.7326C61.3406 94.8948 55.0703 83.4913 40.9275 84.8736C26.7847 86.2559 16.7634 80.0243 22.9835 68.7996C29.2036 57.5749 36.6635 50.3178 27.0591 37.8776C17.7213 25.7828 33.329 14.3414 41.4153 22.2891Z" fill="#3C4255"/>
<path d="M29.5008 53.0771L79.1767 43.4019L77.2654 33.5891C77.2008 33.2572 77.0714 32.9414 76.8847 32.6595C76.698 32.3776 76.4576 32.1353 76.1772 31.9463C75.8968 31.7574 75.582 31.6255 75.2507 31.5582C74.9193 31.4909 74.578 31.4896 74.2461 31.5542L28.5461 48.1756L29.5008 53.0771Z" fill="#FCC591"/>
<path d="M28.5762 48.3313L82.9012 37.7509C83.6822 37.5988 84.4916 37.7632 85.1514 38.2078C85.8111 38.6525 86.2673 39.3411 86.4194 40.1221L92.6671 72.2013C92.8192 72.9823 92.6549 73.7917 92.2102 74.4515C91.7655 75.1112 91.0769 75.5674 90.296 75.7195L38.9156 85.7263C38.1347 85.8784 37.3252 85.7141 36.6655 85.2694C36.0057 84.8247 35.5496 84.1361 35.3975 83.3552L28.5762 48.3313Z" fill="#FFE3CA"/>
<path d="M68.9602 53.3563L87.95 49.6578C88.731 49.5057 89.5404 49.6701 90.2002 50.1147C90.86 50.5594 91.3161 51.248 91.4682 52.029L92.8785 59.2705C93.0306 60.0515 92.8663 60.8609 92.4216 61.5207C91.9769 62.1805 91.2883 62.6366 90.5074 62.7887L71.5175 66.4871C71.3681 66.5162 71.2132 66.4848 71.087 66.3997C70.9608 66.3146 70.8735 66.1829 70.8444 66.0334L68.5065 54.0294C68.4774 53.88 68.5088 53.7251 68.5939 53.5989C68.679 53.4726 68.8107 53.3854 68.9602 53.3563Z" fill="#FFA552"/>
<path d="M76.4724 61.7692C78.1637 61.7692 79.5347 60.3982 79.5347 58.7069C79.5347 57.0156 78.1637 55.6445 76.4724 55.6445C74.7811 55.6445 73.41 57.0156 73.41 58.7069C73.41 60.3982 74.7811 61.7692 76.4724 61.7692Z" fill="#FFE3CA"/>
</g>
</svg>
