<svg width="94" height="32" viewBox="0 0 94 32" fill="none" xmlns="http://www.w3.org/2000/svg">
<path fill-rule="evenodd" clip-rule="evenodd" d="M0 4.00072L7.06682 0L21.2005 8.00144V24.0043L7.06682 32L8.72454 23.0633L14.1336 20.0036V12.0022L0 4.00072ZM0 4.00072V27.9993L0.00573606 28.0051L7.06682 32V24.0043V9.87769L0 4.00072Z" fill="white"/>
<path d="M29.1942 9.98584H34.7516C36.0388 9.98584 37.1806 10.2293 38.1767 10.7163C39.1729 11.2033 39.9453 11.8941 40.4937 12.7888C41.0422 13.6835 41.3164 14.7311 41.3164 15.9316C41.3164 17.1321 41.0422 18.1796 40.4937 19.0743C39.9453 19.969 39.1729 20.6599 38.1767 21.1469C37.1806 21.6338 36.0388 21.8773 34.7516 21.8773H29.1942V9.98584ZM34.6173 19.1932C35.6247 19.1932 36.4306 18.9045 37.035 18.3269C37.6507 17.7493 37.9585 16.9509 37.9585 15.9316C37.9585 14.9123 37.6507 14.1139 37.035 13.5363C36.4306 12.9587 35.6247 12.6699 34.6173 12.6699H32.5186V19.1932H34.6173Z" fill="white"/>
<path d="M52.5013 19.2782V21.8773H43.0655V9.98584H52.2831V12.585H46.3563V14.5895H51.5779V17.1037H46.3563V19.2782H52.5013Z" fill="white"/>
<path d="M61.6688 21.8773L59.2343 18.191L56.8333 21.8773H53.0389L57.3203 15.8636L53.2235 9.98584H56.9677L59.3182 13.4174L61.6352 9.98584H65.2282L61.1315 15.7277L65.4969 21.8773H61.6688Z" fill="white"/>
<path d="M70.7994 17.5624L69.557 18.9045V21.8773H66.2662V9.98584H69.557V14.9293L74.107 9.98584H77.7672L72.9653 15.2521L78.019 21.8773H74.1574L70.7994 17.5624Z" fill="white"/>
<path d="M78.8913 9.98584H82.2157V21.8773H78.8913V9.98584Z" fill="white"/>
<path d="M87.0825 12.6529H83.4727V9.98584H93.9999V12.6529H90.4069V21.8773H87.0825V12.6529Z" fill="white"/>
</svg>
