<svg width="121" height="121" viewBox="0 0 121 121" fill="none" xmlns="http://www.w3.org/2000/svg">
<g opacity="0.6">
<path d="M31.541 3.93767C32.6105 4.94947 33.7369 5.90138 34.9887 6.69619C41.3735 10.7503 60.3631 20.4919 90.4025 16.372C127.936 11.2245 122.57 47.587 117.205 57.2927C111.84 66.9984 92.0366 84.8268 90.4025 93.7292C88.7685 102.632 96.0074 126.904 79.2428 119.674C62.4782 112.444 52.7426 95.4017 30.7836 97.4674C8.82465 99.5332 -6.73491 90.2203 2.92273 73.4456C12.5804 56.6708 24.1631 45.8254 9.25076 27.2341C-5.24763 9.15882 18.9857 -7.93985 31.541 3.93767Z" fill="#3C4255"/>
<path d="M13.0415 49.9508L90.1711 35.4916L87.2036 20.8269C87.1032 20.3309 86.9023 19.8589 86.6124 19.4376C86.3225 19.0164 85.9493 18.6542 85.5139 18.3718C85.0786 18.0894 84.5898 17.8923 84.0753 17.7918C83.5609 17.6912 83.0309 17.6892 82.5156 17.7858L11.5593 42.6257L13.0415 49.9508Z" fill="#FCC591"/>
<path d="M11.6061 42.8594L95.9542 27.0475C97.1668 26.8202 98.4235 27.0658 99.4479 27.7304C100.472 28.3949 101.181 29.4239 101.417 30.5911L111.117 78.5321C111.354 79.6992 111.098 80.9088 110.408 81.8948C109.717 82.8809 108.648 83.5625 107.436 83.7898L27.6598 98.7446C26.4472 98.9719 25.1904 98.7263 24.166 98.0617C23.1416 97.3972 22.4334 96.3682 22.1972 95.201L11.6061 42.8594Z" fill="#FFE3CA"/>
<path d="M74.3088 50.3673L103.793 44.8401C105.006 44.6127 106.263 44.8584 107.287 45.5229C108.312 46.1875 109.02 47.2165 109.256 48.3837L111.446 59.2058C111.682 60.3729 111.427 61.5826 110.736 62.5686C110.046 63.5546 108.977 64.2362 107.764 64.4636L78.2795 69.9908C78.0475 70.0343 77.807 69.9873 77.611 69.8601C77.415 69.733 77.2795 69.5361 77.2343 69.3127L73.6043 51.3733C73.5592 51.15 73.608 50.9185 73.7401 50.7298C73.8722 50.5412 74.0768 50.4107 74.3088 50.3673Z" fill="#FFA552"/>
<path d="M85.9722 62.9421C88.5981 62.9421 90.7269 60.8931 90.7269 58.3656C90.7269 55.838 88.5981 53.7891 85.9722 53.7891C83.3462 53.7891 81.2174 55.838 81.2174 58.3656C81.2174 60.8931 83.3462 62.9421 85.9722 62.9421Z" fill="#FFE3CA"/>
</g>
</svg>
