<?xml version="1.0" standalone="no"?>
<!DOCTYPE svg PUBLIC "-//W3C//DTD SVG 20010904//EN"
 "http://www.w3.org/TR/2001/REC-SVG-20010904/DTD/svg10.dtd">
<svg version="1.0" xmlns="http://www.w3.org/2000/svg"
 width="256.000000pt" height="256.000000pt" viewBox="0 0 256.000000 256.000000"
 preserveAspectRatio="xMidYMid meet">

<g transform="translate(0.000000,256.000000) scale(0.100000,-0.100000)"
fill="#000000" stroke="none">
<path d="M880 2110 c0 -5 -7 -10 -15 -10 -20 0 -105 -85 -105 -105 0 -8 -4
-15 -10 -15 -6 0 -10 -33 -10 -80 0 -47 4 -80 10 -80 6 0 10 -27 10 -60 0 -33
4 -60 10 -60 6 0 10 -22 10 -50 0 -27 5 -50 10 -50 15 0 12 -49 -4 -66 -8 -8
-21 -14 -28 -14 -8 0 -20 -9 -28 -20 -8 -11 -22 -20 -32 -20 -10 0 -18 -4 -18
-10 0 -5 -7 -10 -15 -10 -19 0 -145 -124 -145 -143 0 -7 -9 -19 -20 -27 -12
-8 -20 -26 -20 -42 0 -15 -4 -28 -10 -28 -5 0 -10 -13 -10 -30 0 -16 -4 -30
-10 -30 -6 0 -10 -53 -10 -140 0 -87 4 -140 10 -140 6 0 10 -13 10 -30 0 -16
5 -30 10 -30 6 0 10 -8 10 -18 0 -10 9 -24 20 -32 11 -8 20 -20 20 -27 0 -17
106 -123 123 -123 7 0 19 -9 27 -20 8 -11 22 -20 32 -20 10 0 18 -4 18 -10 0
-5 9 -10 20 -10 11 0 20 -4 20 -10 0 -5 9 -10 20 -10 11 0 20 -4 20 -10 0 -5
9 -10 20 -10 11 0 20 -4 20 -10 0 -5 14 -10 30 -10 17 0 30 -4 30 -10 0 -5 14
-10 30 -10 17 0 30 -4 30 -10 0 -5 23 -10 50 -10 28 0 50 -4 50 -10 0 -6 80
-10 220 -10 140 0 220 4 220 10 0 6 23 10 50 10 28 0 50 5 50 10 0 6 14 10 30
10 17 0 30 5 30 10 0 6 14 10 30 10 17 0 30 5 30 10 0 6 9 10 20 10 11 0 20 5
20 10 0 6 9 10 20 10 11 0 20 5 20 10 0 6 9 10 20 10 11 0 20 5 20 10 0 6 8
10 18 10 10 0 24 9 32 20 8 11 20 20 27 20 17 0 123 106 123 123 0 7 9 19 20
27 11 8 20 22 20 32 0 10 5 18 10 18 6 0 10 18 10 40 0 22 5 40 10 40 6 0 10
50 10 130 0 80 -4 130 -10 130 -5 0 -10 18 -10 40 0 22 -4 40 -10 40 -5 0 -10
8 -10 18 0 10 -9 24 -20 32 -11 8 -20 20 -20 27 0 19 -126 143 -145 143 -8 0
-15 5 -15 10 0 6 -8 10 -18 10 -10 0 -24 9 -32 20 -8 12 -26 20 -42 20 -27 0
-28 2 -28 50 0 28 5 50 10 50 6 0 10 23 10 50 0 28 5 50 10 50 6 0 10 27 10
60 0 33 4 60 10 60 6 0 10 27 10 60 0 33 -4 60 -10 60 -5 0 -10 11 -10 25 0
29 -79 115 -105 115 -8 0 -15 5 -15 10 0 6 -33 10 -80 10 -47 0 -80 -4 -80
-10 0 -5 -9 -10 -20 -10 -11 0 -20 -4 -20 -10 0 -5 -7 -10 -15 -10 -20 0 -65
-45 -65 -65 0 -8 -4 -15 -10 -15 -5 0 -10 -18 -10 -40 0 -22 -4 -40 -10 -40
-6 0 -10 -57 -10 -150 0 -93 -4 -150 -10 -150 -5 0 -10 5 -10 10 0 15 -117 13
-122 -2 -3 -9 -9 -8 -21 4 -15 14 -17 41 -17 190 0 162 -1 175 -20 188 -11 8
-20 20 -20 28 0 18 -25 42 -44 42 -9 0 -16 5 -16 10 0 6 -9 10 -20 10 -11 0
-20 5 -20 10 0 6 -33 10 -80 10 -47 0 -80 -4 -80 -10z m100 -60 c0 -5 11 -10
25 -10 34 0 95 -61 95 -95 0 -14 5 -25 10 -25 6 0 10 -70 10 -190 0 -183 1
-190 20 -190 11 0 20 5 20 10 0 6 47 10 120 10 73 0 120 -4 120 -10 0 -5 9
-10 20 -10 19 0 20 7 20 200 0 127 4 200 10 200 6 0 10 9 10 20 0 11 5 20 10
20 6 0 10 9 10 20 0 13 7 20 20 20 11 0 20 5 20 10 0 6 13 10 29 10 16 0 32 6
35 13 5 10 7 10 12 0 3 -7 21 -13 40 -13 37 0 84 -36 84 -65 0 -8 5 -15 10
-15 6 0 10 -30 10 -70 0 -40 -4 -70 -10 -70 -5 0 -10 -22 -10 -50 0 -27 -4
-50 -10 -50 -6 0 -10 -27 -10 -60 0 -33 -4 -60 -10 -60 -6 0 -10 -27 -10 -60
0 -53 2 -60 20 -60 11 0 20 -4 20 -10 0 -5 9 -10 20 -10 11 0 20 -4 20 -10 0
-5 9 -10 20 -10 11 0 20 -4 20 -10 0 -5 8 -10 18 -10 10 0 24 -9 32 -20 8 -11
20 -20 27 -20 19 0 103 -86 103 -105 0 -8 5 -15 10 -15 6 0 10 -9 10 -20 0
-11 5 -20 10 -20 6 0 10 -9 10 -20 0 -11 5 -20 10 -20 6 0 10 -57 10 -150 0
-93 -4 -150 -10 -150 -5 0 -10 -13 -10 -28 0 -16 -8 -34 -20 -42 -11 -8 -20
-20 -20 -27 0 -19 -106 -123 -125 -123 -8 0 -15 -4 -15 -10 0 -5 -8 -10 -18
-10 -10 0 -24 -9 -32 -20 -8 -12 -26 -20 -42 -20 -15 0 -28 -4 -28 -10 0 -5
-9 -10 -20 -10 -11 0 -20 -4 -20 -10 0 -5 -13 -10 -30 -10 -16 0 -30 -4 -30
-10 0 -5 -18 -10 -40 -10 -22 0 -40 -4 -40 -10 0 -6 -27 -10 -60 -10 -33 0
-60 -4 -60 -10 0 -6 -53 -10 -140 -10 -87 0 -140 4 -140 10 0 6 -27 10 -60 10
-33 0 -60 4 -60 10 0 6 -18 10 -40 10 -22 0 -40 5 -40 10 0 6 -13 10 -30 10
-16 0 -30 5 -30 10 0 6 -9 10 -20 10 -11 0 -20 5 -20 10 0 6 -9 10 -20 10 -11
0 -20 5 -20 10 0 6 -9 10 -20 10 -11 0 -20 5 -20 10 0 6 -9 10 -20 10 -11 0
-20 5 -20 10 0 6 -7 10 -15 10 -20 0 -145 125 -145 145 0 8 -4 15 -10 15 -5 0
-10 9 -10 20 0 11 -4 20 -10 20 -6 0 -10 60 -10 160 0 100 4 160 10 160 6 0
10 9 10 20 0 11 5 20 10 20 6 0 10 9 10 20 0 11 5 20 10 20 6 0 10 7 10 15 0
19 84 105 103 105 7 0 19 9 27 20 8 11 22 20 32 20 10 0 18 5 18 10 0 6 9 10
20 10 11 0 20 5 20 10 0 6 9 10 20 10 11 0 20 5 20 10 0 6 9 10 20 10 17 0 20
7 20 50 0 28 -4 50 -10 50 -6 0 -10 27 -10 60 0 33 -4 60 -10 60 -5 0 -10 23
-10 50 0 28 -4 50 -10 50 -6 0 -10 35 -10 85 0 84 1 86 35 120 21 22 44 35 60
35 14 0 25 5 25 10 0 6 9 10 20 10 11 0 20 -4 20 -10z"/>
<path d="M933 1245 c-7 -8 -13 -21 -13 -30 0 -8 -4 -15 -10 -15 -5 0 -10 -13
-10 -29 0 -16 -6 -32 -12 -35 -10 -5 -10 -7 0 -12 6 -3 12 -21 12 -40 0 -45
37 -84 80 -84 38 0 80 39 80 75 0 14 5 25 10 25 6 0 10 14 10 30 0 17 -4 30
-10 30 -5 0 -10 11 -10 25 0 57 -92 100 -127 60z"/>
<path d="M1523 1235 c-13 -13 -23 -31 -23 -40 0 -8 -4 -15 -10 -15 -6 0 -10
-27 -10 -60 0 -33 4 -60 10 -60 6 0 10 -7 10 -16 0 -27 27 -44 70 -44 43 0 70
17 70 44 0 9 5 16 10 16 6 0 10 28 10 65 0 62 -2 68 -35 100 -40 41 -71 44
-102 10z"/>
</g>
</svg>
