<svg width="21" height="22" viewBox="0 0 21 22" fill="none" xmlns="http://www.w3.org/2000/svg">
<path d="M5.12012 12.0698H7.93012C8.55012 12.0698 9.06012 12.6298 9.06012 13.1998C9.06012 13.8198 8.56012 14.3298 7.93012 14.3298H5.12012V12.0698Z" stroke="#2A2C31" stroke-width="1.5" stroke-miterlimit="10" stroke-linecap="round" stroke-linejoin="round"/>
<path d="M5.12012 14.3301H8.34012C9.05012 14.3301 9.63012 14.8301 9.63012 15.4601C9.63012 16.0801 9.05012 16.5901 8.34012 16.5901H5.12012V14.3301Z" stroke="#2A2C31" stroke-width="1.5" stroke-miterlimit="10" stroke-linecap="round" stroke-linejoin="round"/>
<path d="M6.91992 16.5801V17.7001" stroke="#2A2C31" stroke-width="1.5" stroke-miterlimit="10" stroke-linecap="round" stroke-linejoin="round"/>
<path d="M6.91992 10.95V12.0699" stroke="#2A2C31" stroke-width="1.5" stroke-miterlimit="10" stroke-linecap="round" stroke-linejoin="round"/>
<path d="M13.3498 14.33C13.3498 17.74 10.5898 20.4999 7.17977 20.4999C3.76977 20.4999 1.00977 17.74 1.00977 14.33C1.00977 10.92 3.76977 8.15991 7.17977 8.15991C7.33977 8.15991 7.48977 8.16993 7.65977 8.17993C10.6898 8.40993 13.1098 10.8299 13.3398 13.8599C13.3398 14.0099 13.3498 14.16 13.3498 14.33Z" stroke="#2A2C31" stroke-width="1.5" stroke-miterlimit="10" stroke-linecap="round" stroke-linejoin="round"/>
<path d="M20.0002 7.66998C20.0002 11.08 17.2402 13.84 13.8302 13.84H13.3402C13.1102 10.81 10.6902 8.38997 7.66016 8.15997V7.66998C7.66016 4.25998 10.4202 1.5 13.8302 1.5C17.2402 1.5 20.0002 4.25998 20.0002 7.66998Z" stroke="#2A2C31" stroke-width="1.5" stroke-miterlimit="10" stroke-linecap="round" stroke-linejoin="round"/>
</svg>
