<svg width="32" height="33" viewBox="0 0 32 33" fill="none" xmlns="http://www.w3.org/2000/svg">
<path opacity="0.34" d="M16.2 22.5V25.3" stroke="#F0883E" stroke-width="1.5" stroke-linecap="round" stroke-linejoin="round"/>
<path d="M9.53333 29.8333H22.8667V28.5C22.8667 27.0333 21.6667 25.8333 20.2 25.8333H12.2C10.7333 25.8333 9.53333 27.0333 9.53333 28.5V29.8333V29.8333Z" stroke="#F0883E" stroke-width="1.5" stroke-miterlimit="10"/>
<path d="M8.20001 29.8333H24.2" stroke="#F0883E" stroke-width="1.5" stroke-linecap="round" stroke-linejoin="round"/>
<path d="M16 21.8333C10.84 21.8333 6.66669 17.66 6.66669 12.5V8.49999C6.66669 5.55332 9.05335 3.16666 12 3.16666H20C22.9467 3.16666 25.3334 5.55332 25.3334 8.49999V12.5C25.3334 17.66 21.16 21.8333 16 21.8333Z" stroke="#F0883E" stroke-width="1.5" stroke-linecap="round" stroke-linejoin="round"/>
<path opacity="0.34" d="M7.2933 16.0333C6.2933 15.7133 5.4133 15.1267 4.71997 14.4333C3.51997 13.1 2.71997 11.5 2.71997 9.63332C2.71997 7.76665 4.18664 6.29999 6.0533 6.29999H6.91997C6.6533 6.91332 6.51997 7.59332 6.51997 8.29999V12.3C6.51997 13.6333 6.79997 14.8867 7.2933 16.0333Z" stroke="#F0883E" stroke-width="1.5" stroke-linecap="round" stroke-linejoin="round"/>
<path opacity="0.34" d="M24.7067 16.0333C25.7067 15.7133 26.5867 15.1267 27.28 14.4333C28.48 13.1 29.28 11.5 29.28 9.63332C29.28 7.76665 27.8133 6.29999 25.9467 6.29999H25.08C25.3467 6.91332 25.48 7.59332 25.48 8.29999V12.3C25.48 13.6333 25.2 14.8867 24.7067 16.0333Z" stroke="#F0883E" stroke-width="1.5" stroke-linecap="round" stroke-linejoin="round"/>
</svg>
