<svg width="32" height="33" viewBox="0 0 32 33" fill="none" xmlns="http://www.w3.org/2000/svg">
<path d="M23.7334 3.30001L10.4934 6.62001C8.56002 7.10001 6.60002 9.06001 6.12002 10.9933L2.80002 24.2333C1.80002 28.2333 4.25335 30.7 8.26669 29.7L21.5067 26.3933C23.4267 25.9133 25.4 23.94 25.88 22.02L29.2 8.76668C30.2 4.76668 27.7334 2.30001 23.7334 3.30001Z" stroke="#F0883E" stroke-width="1.5" stroke-linecap="round" stroke-linejoin="round"/>
<path opacity="0.4" d="M16 21.1667C18.5773 21.1667 20.6666 19.0773 20.6666 16.5C20.6666 13.9227 18.5773 11.8333 16 11.8333C13.4227 11.8333 11.3333 13.9227 11.3333 16.5C11.3333 19.0773 13.4227 21.1667 16 21.1667Z" stroke="#F0883E" stroke-width="1.5" stroke-linecap="round" stroke-linejoin="round"/>
</svg>
