<svg width="609" height="609" viewBox="0 0 609 609" fill="none" xmlns="http://www.w3.org/2000/svg">
<path fill-rule="evenodd" clip-rule="evenodd" d="M189.465 0H13.5332C6.05904 0 0 6.05904 0 13.5332V189.465C0 196.94 6.05904 202.999 13.5332 202.999H189.465C196.94 202.999 202.999 196.94 202.999 189.465V13.5332C202.999 6.05904 196.94 0 189.465 0ZM392.552 202.999H216.62C209.145 202.999 203.086 209.058 203.086 216.532V392.464C203.086 399.938 209.145 405.997 216.62 405.997H392.552C400.026 405.997 406.085 399.938 406.085 392.464V216.532C406.085 209.058 400.026 202.999 392.552 202.999ZM419.532 0H595.464C602.938 0 608.997 6.05904 608.997 13.5332V189.465C608.997 196.94 602.938 202.999 595.464 202.999H419.532C412.057 202.999 405.998 196.94 405.998 189.465V13.5332C405.998 6.05904 412.057 0 419.532 0ZM189.465 405.998H13.5333C6.05907 405.998 3.38614e-05 412.057 3.38614e-05 419.532V595.464C3.38614e-05 602.938 6.05907 608.997 13.5333 608.997H189.465C196.94 608.997 202.999 602.938 202.999 595.464V419.532C202.999 412.057 196.94 405.998 189.465 405.998ZM419.532 405.998H595.464C602.938 405.998 608.997 412.057 608.997 419.532V595.464C608.997 602.938 602.938 608.997 595.464 608.997H419.532C412.057 608.997 405.998 602.938 405.998 595.464V419.532C405.998 412.057 412.057 405.998 419.532 405.998Z" fill="black"/>
</svg>
