<svg width="25" height="24" viewBox="0 0 25 24" fill="none" xmlns="http://www.w3.org/2000/svg">
<path d="M12.27 2.91C8.96 2.91 6.27 5.6 6.27 8.91V11.8C6.27 12.41 6.01 13.34 5.7 13.86L4.55 15.77C3.84 16.95 4.33 18.26 5.63 18.7C9.94 20.14 14.59 20.14 18.9 18.7C20.11 18.3 20.64 16.87 19.98 15.77L18.83 13.86C18.53 13.34 18.27 12.41 18.27 11.8V8.91C18.27 5.61 15.57 2.91 12.27 2.91Z" stroke="#484F58" stroke-width="1.5" stroke-miterlimit="10" stroke-linecap="round"/>
<path d="M14.12 3.2C13.81 3.11 13.49 3.04 13.16 3C12.2 2.88 11.28 2.95 10.42 3.2C10.71 2.46 11.43 1.94 12.27 1.94C13.11 1.94 13.83 2.46 14.12 3.2Z" stroke="#484F58" stroke-width="1.5" stroke-miterlimit="10" stroke-linecap="round" stroke-linejoin="round"/>
<path opacity="0.4" d="M15.27 19.06C15.27 20.71 13.92 22.06 12.27 22.06C11.45 22.06 10.69 21.72 10.15 21.18C9.61 20.64 9.27 19.88 9.27 19.06" stroke="#484F58" stroke-width="1.5" stroke-miterlimit="10"/>
</svg>
