<svg width="30" height="32" viewBox="0 0 30 32" fill="none" xmlns="http://www.w3.org/2000/svg">
<path d="M24.9515 13.9479L21.0582 13.2802L25.1165 9.11474L21.746 9.80674L29.0952 0.628311L19.4867 3.10428L18.6882 4.19195L11.5166 13.5741L11.1999 13.6229C12.1149 11.53 12.5627 10.8648 14.4877 6.93095L10.2442 5.67608C10.2442 5.67608 10.0436 5.70576 9.7008 5.78409C9.44714 5.82024 9.13655 5.89887 8.78513 6.02925C6.44516 6.74197 1.99021 8.74779 0.758338 13.8819C-0.21295 17.9305 0.921786 21.0487 2.82232 22.9669C4.75184 25.3006 7.92566 25.9204 8.81415 26.0515L5.72971 31.2179L6.12894 30.8058L5.86022 31.2428L10.7449 26.2171C13.3465 26.715 19.0107 27.0033 23.7442 21.7202C28.3227 16.6103 24.9515 13.9479 24.9515 13.9479ZM8.76816 21.6133L8.93209 21.3942L11.6475 20.7793L11.3565 20.8714L11.3593 20.8665L8.76816 21.6133Z" fill="#FBB040"/>
<path d="M25.1887 13.7118C23.8909 13.4892 22.5931 13.2666 21.2953 13.044C21.3241 13.1514 21.3528 13.2588 21.3816 13.3661C22.7344 11.9777 24.0871 10.5892 25.4399 9.20078C25.7108 8.92276 25.2474 8.84764 25.0554 8.88707C23.9319 9.11769 22.8084 9.34835 21.685 9.57907C21.8131 9.6836 21.9413 9.78824 22.0694 9.89277C24.5191 6.83339 26.9689 3.77384 29.4186 0.714454C29.6465 0.429955 29.2586 0.342941 29.0342 0.400739C26.9139 0.947094 24.7937 1.49345 22.6735 2.03981C21.657 2.30175 20.6403 2.5637 19.6238 2.82565C18.9658 2.9952 18.6639 3.71267 18.2706 4.22715C15.8949 7.33519 13.5192 10.4433 11.1435 13.5512C11.2833 13.4763 11.4233 13.4013 11.5632 13.3264C11.4577 13.3427 11.3521 13.3589 11.2465 13.3753C11.3553 13.4657 11.4642 13.5559 11.5731 13.6464C12.5704 11.3706 13.7684 9.18491 14.8609 6.95445C14.9238 6.82592 14.8533 6.73295 14.725 6.69498C13.6432 6.37506 12.5615 6.05523 11.4797 5.73528C11.153 5.63861 10.6458 5.37319 10.2908 5.42841C9.48387 5.55397 8.7147 5.78862 7.94748 6.06125C4.58959 7.25438 1.73026 9.67977 0.584853 13.1258C-0.456394 16.2582 -0.167443 19.9283 1.93867 22.5539C3.63124 24.6641 6.01172 25.9033 8.66683 26.3023C8.59158 26.2112 8.51644 26.1199 8.44116 26.0288C7.41308 27.7509 6.38496 29.473 5.35675 31.1951C5.14178 31.5551 5.90528 31.457 6.05332 31.3041C6.18637 31.1668 6.31946 31.0294 6.45255 30.892C6.22031 30.8557 5.98818 30.8193 5.75598 30.783C5.66641 30.9287 5.57683 31.0743 5.48726 31.2201C5.26846 31.576 6.03552 31.4817 6.18383 31.3291C7.81211 29.6538 9.44029 27.9786 11.0685 26.3033C10.8816 26.3535 10.6947 26.4036 10.5078 26.4537C13.8269 27.081 17.2563 26.568 20.2189 24.9307C22.3581 23.7484 24.276 21.9275 25.547 19.8386C26.3484 18.5214 26.8353 16.9029 26.3474 15.3869C26.1488 14.7696 25.7752 14.1497 25.2631 13.7414C25.0335 13.5582 24.3122 13.8935 24.6401 14.1549C24.5188 14.0582 24.6751 14.1905 24.7022 14.2166C24.8034 14.3144 24.8956 14.4213 24.9831 14.5314C25.2646 14.8862 25.4627 15.2924 25.5937 15.7249C26.1069 17.4198 25.282 19.1622 24.3197 20.523C21.7887 24.1019 17.6451 26.295 13.265 26.2157C12.7422 26.2062 12.2202 26.1636 11.7018 26.097C11.3178 26.0477 10.7289 25.8153 10.4173 26.1358C9.97148 26.5945 9.52567 27.0533 9.07972 27.512C7.89884 28.7271 6.71786 29.9421 5.53698 31.1572C5.76918 31.1935 6.00132 31.2299 6.23355 31.2663C6.32313 31.1205 6.41266 30.9749 6.50224 30.8292C6.72087 30.4735 5.95397 30.567 5.80567 30.7202C5.67261 30.8575 5.53953 30.9949 5.40647 31.1323C5.63867 31.1686 5.87081 31.205 6.10301 31.2413C7.13112 29.5192 8.15924 27.797 9.18746 26.0749C9.29116 25.9012 9.09815 25.8219 8.96179 25.8014C7.33863 25.5574 5.73937 24.933 4.41282 23.9647C2.74241 22.7452 1.52741 20.868 1.04838 18.8675C0.492365 16.5458 0.858938 13.9136 1.89672 11.7774C2.73238 10.0572 4.10234 8.6779 5.70982 7.66909C6.49276 7.1778 7.33728 6.78811 8.20394 6.47001C8.63619 6.3114 9.08339 6.15749 9.53095 6.05375C9.70379 6.01376 9.88119 5.9852 10.0551 5.94931C10.2362 5.91196 10.1771 5.96283 10.0166 5.91533C10.0858 5.93589 10.155 5.95635 10.2242 5.97681C11.5664 6.3737 12.9085 6.77056 14.2508 7.16746C14.2054 7.081 14.1601 6.99444 14.1149 6.90798C13.0225 9.13851 11.8244 11.3242 10.827 13.5999C10.7333 13.8141 10.977 13.8984 11.1536 13.8711C11.5165 13.8152 11.7733 13.7499 11.9955 13.4593C12.2089 13.18 12.4224 12.9009 12.6358 12.6217C13.4265 11.5872 14.2173 10.5527 15.008 9.51825C16.3525 7.75931 17.697 6.00034 19.0416 4.2414C19.3213 3.87554 19.5875 3.49883 19.8601 3.12759C19.7561 3.1958 19.652 3.26398 19.548 3.3322C22.7509 2.50691 25.9537 1.68154 29.1565 0.856247C29.0283 0.751708 28.9002 0.647072 28.772 0.542532C26.3223 3.60202 23.8725 6.66147 21.4228 9.72095C21.1896 10.0121 21.587 10.0799 21.8073 10.0347C22.9308 9.80404 24.0543 9.57338 25.1778 9.34266C25.0496 9.23813 24.9215 9.13349 24.7933 9.02895C23.4406 10.4174 22.0878 11.8059 20.735 13.1944C20.6229 13.3094 20.642 13.4857 20.8213 13.5165C22.1191 13.7391 23.4169 13.9617 24.7147 14.1843C24.9097 14.2177 25.1296 14.179 25.2754 14.0339C25.3895 13.92 25.3661 13.7422 25.1887 13.7118Z" fill="black"/>
<path d="M9.14137 21.6366C9.19601 21.5635 9.25065 21.4904 9.30529 21.4175C9.20123 21.4857 9.09716 21.5539 8.99316 21.6221C9.89833 21.4171 10.8035 21.2122 11.7086 21.0073C11.6679 20.8554 11.6273 20.7035 11.5866 20.5517C11.4897 20.5823 11.3926 20.613 11.2957 20.6437C11.4403 20.7273 11.5851 20.8111 11.7297 20.8947C11.7306 20.893 11.7315 20.8915 11.7325 20.8899C11.8825 20.624 11.4512 20.5949 11.2984 20.6388C10.4346 20.8878 9.57097 21.1367 8.70731 21.3857C8.2301 21.5233 8.34886 21.9798 8.82927 21.8413C9.69303 21.5923 10.5567 21.3434 11.4203 21.0945C11.2757 21.0108 11.1309 20.9271 10.9863 20.8435C10.9854 20.8451 10.9845 20.8467 10.9835 20.8483C10.8351 21.1115 11.2637 21.148 11.4176 21.0993C11.5146 21.0686 11.6116 21.038 11.7086 21.0073C12.1831 20.8572 12.0732 20.4415 11.5866 20.5517C11.0171 20.6806 10.4477 20.8095 9.87825 20.9384C9.57236 21.0077 9.26644 21.077 8.96041 21.1462C8.68423 21.2089 8.55765 21.3729 8.39511 21.5902C8.27599 21.7495 8.49581 21.8559 8.62078 21.8638C8.81867 21.8763 9.02208 21.796 9.14137 21.6366Z" fill="black"/>
<path d="M24.9511 13.6743L20.8016 12.9626L16.0892 17.7753L18.4986 18.1364L9.30859 25.5733C9.30859 25.5733 17.3706 28.5599 23.7438 21.4466C28.3222 16.3367 24.9511 13.6743 24.9511 13.6743Z" fill="black"/>
<path d="M25.0529 13.5978C24.0196 13.4206 22.9863 13.2433 21.953 13.0661C21.6031 13.0061 21.2533 12.9462 20.9035 12.8862C20.6813 12.848 20.4869 13.1379 20.3564 13.2712C18.8848 14.774 17.4132 16.2769 15.9417 17.7797C15.9023 17.8199 15.9521 17.8463 15.9879 17.8517C16.5195 17.9314 17.0512 18.0111 17.5829 18.0907C17.8329 18.1282 18.0829 18.1657 18.333 18.2031C18.4049 18.2138 18.4115 18.0895 18.3027 18.1776C17.6345 18.7184 16.9662 19.2592 16.298 19.8C14.1869 21.5083 12.0758 23.2167 9.96468 24.9252C9.70409 25.1361 9.44343 25.347 9.18277 25.5579C9.15173 25.583 9.1273 25.6245 9.17864 25.6435C10.9745 26.3047 13.0631 26.3865 14.9417 26.1845C19.1606 25.7311 23.1162 23.1616 25.3213 19.5372C26.3633 17.8246 26.9238 15.0684 25.1019 13.6155C25.0235 13.5528 24.7316 13.6782 24.8007 13.7334C25.291 14.1243 25.6213 14.7396 25.8097 15.3248C26.3523 17.0107 25.5793 18.7757 24.6329 20.1523C22.1153 23.8146 17.9425 26.0977 13.5057 26.1178C12.3436 26.1231 11.1703 25.9805 10.0454 25.6863C9.84556 25.634 9.64608 25.577 9.45129 25.5078C9.48447 25.5196 9.38826 25.6266 9.49186 25.5427C9.58107 25.4705 9.67028 25.3984 9.75946 25.3262C11.7481 23.7169 13.7368 22.1076 15.7254 20.4982C16.6918 19.7162 17.6583 18.9341 18.6249 18.1519C18.6752 18.1112 18.6649 18.0698 18.6002 18.0601C17.8185 17.943 17.0368 17.8258 16.2552 17.7086C16.1567 17.6938 16.214 17.7945 16.2769 17.7302C16.3522 17.6534 16.4274 17.5765 16.5026 17.4997C16.7842 17.2123 17.0657 16.9247 17.3472 16.6371C18.548 15.4109 19.7487 14.1845 20.9495 12.9583C20.8664 12.9852 20.7833 13.0122 20.7002 13.0392C22.0834 13.2765 23.4666 13.5137 24.8497 13.7509C24.9344 13.7652 25.2261 13.6275 25.0529 13.5978Z" fill="black"/>
<path d="M14.1664 6.66906L10.318 13.4853L15.2074 12.7309L8.69326 21.4393L12.2031 20.33L9.05172 25.8087C9.05172 25.8087 -0.799099 24.8652 1.69803 15.2634C3.7174 7.49881 8.5362 5.49818 9.9961 5.48615C10.1525 5.48486 14.1664 6.66906 14.1664 6.66906Z" fill="black"/>
<path d="M14.0173 6.6689C12.7345 8.94097 11.4518 11.213 10.169 13.4851C10.1229 13.5667 10.2392 13.5765 10.2943 13.568C11.9241 13.3166 13.554 13.0651 15.1837 12.8137C15.1419 12.786 15.1001 12.7584 15.0584 12.7308C12.887 15.6335 10.7155 18.5363 8.5442 21.4391C8.47312 21.5341 8.67151 21.5264 8.71301 21.5133C9.88297 21.1435 11.0529 20.7736 12.2228 20.404C12.1666 20.3792 12.1103 20.3545 12.054 20.3298C11.0036 22.1561 9.95309 23.9823 8.90266 25.8085C8.98556 25.781 9.06846 25.7534 9.15146 25.7258C7.81478 25.5958 6.46169 25.1258 5.28553 24.4942C4.23318 23.929 3.29946 23.1463 2.61585 22.162C1.76769 20.9406 1.43769 19.455 1.45466 17.9844C1.47992 15.7964 2.23733 13.5605 3.17486 11.6076C3.95737 9.97781 5.03445 8.46846 6.41197 7.29076C7.2514 6.57312 8.24145 5.95126 9.31737 5.66656C10.2129 5.42963 11.1705 5.90869 12.0553 6.16462C12.7165 6.35588 13.3771 6.54893 14.0373 6.74366C14.1297 6.77086 14.42 6.63119 14.2952 6.59437C13.2025 6.27207 12.1089 5.95205 11.0123 5.6432C10.6744 5.54805 10.2943 5.38197 9.93705 5.40554C9.58744 5.42854 9.24348 5.51682 8.91259 5.62849C6.21004 6.54033 4.22004 8.96004 2.967 11.4227C1.98495 13.3528 1.26394 15.5614 1.14382 17.7338C1.06273 19.2003 1.34439 20.6757 2.09841 21.9454C3.21629 23.8277 5.24112 24.9723 7.29699 25.5513C7.83595 25.703 8.39296 25.8371 8.95172 25.8914C9.02577 25.8986 9.15794 25.8828 9.20053 25.8087C10.251 23.9825 11.3015 22.1563 12.3519 20.33C12.4089 20.2308 12.2346 20.2396 12.1831 20.2559C11.0131 20.6257 9.84318 20.9955 8.67326 21.3652C8.72952 21.3899 8.78581 21.4146 8.84207 21.4393C11.0135 18.5365 13.1849 15.6337 15.3562 12.731C15.4151 12.6524 15.2756 12.6412 15.231 12.648C13.6011 12.8995 11.9713 13.1509 10.3416 13.4024C10.3833 13.4301 10.4251 13.4576 10.4669 13.4853C11.7497 11.2132 13.0324 8.94114 14.3152 6.66906C14.3866 6.54252 14.0654 6.5837 14.0173 6.6689Z" fill="black"/>
<path d="M14.4877 6.65724L10.2442 5.40237C10.2442 5.40237 2.45256 6.54742 0.758439 13.6082C-0.935687 20.6693 3.77536 24.9019 7.78505 24.8699C7.16435 23.6718 8.85255 18.8673 10.9331 13.969C12.045 11.3509 12.3851 10.9544 14.4877 6.65724Z" fill="black"/>
<path d="M14.6158 6.58945C13.5341 6.26962 12.4524 5.9497 11.3706 5.62978C11.0644 5.53919 10.6355 5.31551 10.3097 5.32764C10.1558 5.33332 9.99635 5.38052 9.84715 5.41258C7.53917 5.90769 5.30462 6.98809 3.55979 8.58588C0.661615 11.2397 -0.480876 15.6775 0.680405 19.4255C1.62561 22.4763 4.4501 24.9458 7.7195 24.9446C7.75334 24.9446 7.97716 24.8986 7.94305 24.8275C7.73882 24.402 7.80716 23.8693 7.86589 23.4193C7.97095 22.6147 8.19269 21.8235 8.42264 21.0474C9.07203 18.8544 9.92922 16.7204 10.8088 14.6117C11.9472 11.8828 13.3452 9.28608 14.6447 6.63284C14.6783 6.56416 14.3743 6.59338 14.3311 6.68175C13.0046 9.39028 11.5879 12.0413 10.4259 14.8269C9.55162 16.923 8.71605 19.047 8.07066 21.2265C7.84437 21.9906 7.64389 22.7686 7.54055 23.5599C7.484 23.9928 7.4322 24.506 7.62719 24.9124C7.70171 24.8733 7.77622 24.8343 7.85074 24.7953C4.26429 24.7966 1.46708 21.7678 0.759481 18.4275C-0.0840228 14.4458 1.54799 10.2106 4.78719 7.80313C6.31768 6.66569 8.17608 5.85766 10.0516 5.50221C10.1007 5.49292 10.1499 5.48423 10.1991 5.4763C10.1773 5.47987 10.07 5.45657 10.2258 5.50267C10.6817 5.63745 11.1375 5.77229 11.5933 5.90707C12.5155 6.17979 13.4376 6.45249 14.3598 6.72515C14.4413 6.74914 14.7255 6.62187 14.6158 6.58945Z" fill="black"/>
<path d="M13.409 6.83236L9.13954 14.4446L12.207 13.7242L7.71903 21.9723L10.8088 21.1711L8.5515 25.4221C8.5515 25.4221 0.860633 24.73 2.63557 15.1739C4.10075 7.28577 11.707 6.84214 13.1667 6.83008C13.3232 6.82862 13.409 6.83236 13.409 6.83236Z" fill="black"/>
<path d="M13.2608 6.83392C11.8377 9.37132 10.4145 11.9088 8.99129 14.4462C8.9352 14.5463 9.10893 14.5274 9.15885 14.5156C10.1813 14.2755 11.2038 14.0352 12.2263 13.7951C12.1666 13.779 12.1068 13.763 12.0471 13.7471C10.5511 16.4964 9.05504 19.2458 7.55913 21.9952C7.51723 22.0721 7.7181 22.0485 7.73834 22.0433C8.76827 21.7762 9.79813 21.509 10.8281 21.2421C10.7683 21.226 10.7086 21.2099 10.6488 21.194C9.89636 22.6111 9.14396 24.028 8.39159 25.445C8.47849 25.4105 8.56532 25.376 8.65215 25.3415C7.3505 25.2217 6.02979 24.5938 5.02796 23.7801C2.39173 21.6393 2.22317 17.9852 2.84686 14.8923C3.4598 11.8532 5.33451 9.32868 8.15232 8.01654C9.73501 7.27956 11.5904 6.85781 13.3444 6.91545C13.4548 6.91909 13.691 6.75658 13.4741 6.74944C11.4811 6.68397 9.38748 7.21036 7.61786 8.10227C6.28128 8.77592 5.11132 9.75278 4.22567 10.9607C3.0583 12.553 2.51477 14.482 2.29304 16.4218C1.96715 19.2729 2.58345 22.2997 4.98088 24.0988C5.9563 24.8309 7.22418 25.3897 8.45122 25.5027C8.54072 25.5109 8.66595 25.4857 8.71181 25.3992C9.46428 23.9822 10.2167 22.5652 10.9691 21.1482C11.0102 21.0709 10.8106 21.0947 10.7898 21.1002C9.7599 21.3672 8.73007 21.6344 7.70014 21.9013C7.75986 21.9174 7.81959 21.9335 7.87935 21.9494C9.37537 19.2001 10.8714 16.4507 12.3673 13.7013C12.4094 13.6239 12.2079 13.6486 12.1881 13.6532C11.1656 13.8934 10.1432 14.1336 9.12061 14.3737C9.17644 14.3968 9.23234 14.42 9.28817 14.4431C10.7113 11.9057 12.1344 9.36828 13.5577 6.83081C13.6271 6.70744 13.3069 6.75156 13.2608 6.83392Z" fill="black"/>
<path d="M24.2977 13.8776L18.4988 18.1364L20.296 18.2306L10.3689 25.7421C10.3689 25.7421 18.2154 27.1451 23.0677 21.4435C24.3765 19.7336 26.1165 15.9861 24.2977 13.8776Z" fill="black"/>
<path d="M24.1748 13.8735C22.2418 15.2931 20.3089 16.7127 18.3759 18.1324C18.3281 18.1674 18.3298 18.1983 18.3945 18.2017C18.9492 18.2307 19.5039 18.2598 20.0586 18.2888C20.2027 18.2964 20.1818 18.2195 20.1065 18.2765C20.0241 18.3389 19.9418 18.4011 19.8595 18.4635C19.0407 19.083 18.2219 19.7025 17.4031 20.3221C15.2528 21.9491 13.1025 23.5762 10.9522 25.2032C10.7093 25.387 10.4664 25.5708 10.2236 25.7546C10.1981 25.7738 10.2077 25.7989 10.2368 25.8041C12.2852 26.1668 14.512 25.962 16.5149 25.4686C18.3117 25.026 20.0119 24.2302 21.4776 23.0976C23.111 21.8354 24.2507 20.171 24.89 18.2099C25.3623 16.7612 25.4769 15.0619 24.4497 13.8229C24.3998 13.7628 24.0978 13.8739 24.1462 13.9322C25.5637 15.6421 24.7906 18.1265 23.8954 19.8921C22.9154 21.8252 21.2728 23.2887 19.3688 24.2893C16.789 25.6451 13.6652 26.0847 10.784 25.7211C10.7004 25.7106 10.617 25.6988 10.5339 25.6854C10.4878 25.6779 10.4978 25.7422 10.5589 25.696C10.7737 25.5334 10.9886 25.3708 11.2036 25.208C12.1621 24.4829 13.1205 23.7576 14.0789 23.0325C16.0937 21.5079 18.1085 19.9833 20.1234 18.4589C20.2295 18.3785 20.3357 18.2982 20.4418 18.2178C20.4863 18.1842 20.4282 18.1666 20.4007 18.1652C20.0125 18.1448 19.6244 18.1246 19.2362 18.1042C19.0421 18.094 18.848 18.0838 18.6539 18.0736C18.6097 18.0713 18.5934 18.1615 18.6972 18.0852C19.2923 17.6482 19.8875 17.2111 20.4826 16.774C21.7955 15.8098 23.1083 14.8457 24.4211 13.8816C24.5514 13.7859 24.23 13.8329 24.1748 13.8735Z" fill="black"/>
<path d="M9.61809 5.84431L11.8313 6.63106L9.52917 6.16579L9.61809 5.84431Z" fill="black"/>
<path d="M8.82964 6.12791L10.6679 6.84711L8.73499 6.44787L8.82964 6.12791Z" fill="black"/>
<path d="M8.06359 6.34772L9.69794 7.02729L7.96533 6.66665L8.06359 6.34772Z" fill="black"/>
<path d="M7.36869 6.55826L9.53639 7.36444L7.27539 6.87854L7.36869 6.55826Z" fill="black"/>
<path d="M24.427 13.9626L21.1875 13.4129L16.6357 18.0654L18.1696 18.0604L10.064 25.4775C10.064 25.4775 16.8907 26.1471 18.6055 24.2574C20.3206 22.3678 24.427 13.9626 24.427 13.9626Z" fill="#F7941E"/>
<path d="M24.5593 13.8992C23.632 13.7419 22.7046 13.5845 21.7772 13.4272C21.5935 13.396 21.2047 13.2577 21.0419 13.4242C20.8759 13.5939 20.7098 13.7637 20.5438 13.9333C19.1926 15.3144 17.8414 16.6956 16.4902 18.0767C16.4547 18.1129 16.4956 18.1329 16.5321 18.1328C17.0412 18.1311 17.5504 18.1294 18.0595 18.1278C17.9744 18.128 18.0375 18.0594 17.922 18.1651C17.8156 18.2623 17.7093 18.3598 17.6029 18.457C16.736 19.2502 15.8691 20.0435 15.0022 20.8367C13.3164 22.3794 11.6304 23.922 9.94451 25.4647C9.93576 25.4727 9.92711 25.4807 9.91832 25.4887C9.87785 25.5257 9.92866 25.5416 9.96029 25.5448C10.8922 25.6353 11.8331 25.6625 12.7688 25.6596C14.2878 25.6549 15.8619 25.5664 17.3137 25.0848C17.8552 24.9052 18.3997 24.6395 18.7856 24.2086C19.1554 23.7959 19.4618 23.3225 19.7613 22.858C20.6561 21.4703 21.4448 20.0121 22.2215 18.5561C23.0358 17.0296 23.8264 15.4891 24.5862 13.9347C24.6117 13.8824 24.309 13.9072 24.2684 13.9903C23.1879 16.2011 22.0551 18.3903 20.8531 20.5374C20.1636 21.7688 19.4716 23.0633 18.5629 24.1507C17.6014 25.3013 15.6877 25.3975 14.3077 25.4836C13.01 25.5645 11.7008 25.5327 10.4049 25.4307C10.3266 25.4246 10.2483 25.4179 10.17 25.4104C10.2652 25.4197 10.2107 25.4661 10.3299 25.3571C10.5973 25.1124 10.8648 24.8677 11.1323 24.6229C13.1419 22.7839 15.1514 20.9451 17.161 19.1063C17.5461 18.7539 17.9311 18.4016 18.3161 18.0492C18.3546 18.014 18.3079 17.9931 18.2741 17.9932C17.9316 17.9944 17.5889 17.9954 17.2464 17.9966C17.0862 17.9971 16.9262 17.9976 16.766 17.9981C16.804 17.998 16.759 18.0781 16.8547 17.9802C17.3281 17.4963 17.8016 17.0124 18.275 16.5286C19.2946 15.4864 20.3143 14.4441 21.3339 13.4018C21.2413 13.4267 21.1486 13.4516 21.056 13.4764C22.1358 13.6596 23.2157 13.8428 24.2955 14.0261C24.3724 14.0391 24.6506 13.9147 24.5593 13.8992Z" fill="black"/>
<path d="M5.72961 30.9443L12.0107 20.4233L8.09448 21.31L15.1094 12.7804L11.3986 13.4544L19.2264 3.21392L28.529 0.732651L21.1798 9.91099L24.5504 9.21916L16.0785 17.9147L19.0746 17.1686L5.72961 30.9443Z" fill="black"/>
<path d="M5.89081 30.95C7.98389 27.4441 10.077 23.9382 12.1701 20.4322C12.1708 20.4312 12.1714 20.4302 12.172 20.4292C12.2403 20.3148 12.0441 20.3197 11.986 20.3328C10.6806 20.6283 9.37511 20.9239 8.06973 21.2194C8.13177 21.2516 8.19367 21.2837 8.25571 21.3159C10.594 18.4726 12.9323 15.6295 15.2706 12.7863C15.3398 12.7021 15.1816 12.6717 15.1316 12.6809C13.8946 12.9055 12.6578 13.1302 11.4208 13.3548C11.4672 13.3899 11.5135 13.4252 11.5598 13.4602C14.145 10.0783 16.7301 6.69643 19.3152 3.31448C19.4731 3.10786 19.1235 3.33848 19.356 3.27648C19.6283 3.2038 19.9008 3.13112 20.1731 3.05855C21.2552 2.76985 22.3374 2.48124 23.4196 2.19263C25.1306 1.73621 26.8417 1.27978 28.5527 0.823453C28.4907 0.791316 28.4288 0.759175 28.3668 0.72713C25.9171 3.7866 23.4673 6.84608 21.0177 9.90543C20.9309 10.0139 21.1597 10.0108 21.2036 10.0019C22.3271 9.77122 23.4506 9.5406 24.5741 9.30998C24.5195 9.26933 24.4649 9.22861 24.4103 9.18799C21.5863 12.0865 18.7624 14.985 15.9384 17.8835C15.8243 18.0007 16.0207 18.0258 16.1023 18.0055C17.1009 17.7568 18.0997 17.5081 19.0983 17.2594C19.0437 17.2187 18.9892 17.178 18.9345 17.1374C15.8444 20.3273 12.7543 23.5171 9.66417 26.707C8.30596 28.109 6.94775 29.5111 5.58957 30.9131C5.44645 31.0608 5.78575 31.0613 5.86866 30.9757C8.95875 27.7858 12.0489 24.596 15.139 21.4061C16.4972 20.0041 17.8554 18.602 19.2136 17.2C19.3274 17.0826 19.1316 17.0577 19.0498 17.078C18.0511 17.3267 17.0524 17.5755 16.0537 17.8242C16.1084 17.8648 16.1629 17.9055 16.2176 17.9461C19.0415 15.0476 21.8654 12.1491 24.6894 9.25062C24.8056 9.13128 24.6052 9.11231 24.5256 9.12863C23.402 9.35929 22.2786 9.58991 21.1551 9.82053C21.2171 9.85269 21.279 9.88481 21.3411 9.91697C23.7908 6.85749 26.2405 3.798 28.6902 0.738542C28.7753 0.632264 28.5504 0.629891 28.5042 0.642218C26.3674 1.21222 24.2306 1.78213 22.0937 2.35214C21.1584 2.60158 20.223 2.85111 19.2877 3.10055C18.912 3.20079 18.6519 3.7478 18.4321 4.0354C16.0336 7.17321 13.6351 10.311 11.2365 13.4489C11.171 13.5346 11.3226 13.564 11.3755 13.5544C12.6125 13.3298 13.8494 13.1051 15.0863 12.8805C15.04 12.8453 14.9936 12.8101 14.9473 12.775C12.609 15.6183 10.2707 18.4614 7.93235 21.3045C7.84453 21.4113 8.07465 21.4108 8.11833 21.4009C9.42375 21.1054 10.7292 20.8098 12.0346 20.5143C11.9726 20.4822 11.9106 20.45 11.8486 20.4179C9.75555 23.9238 7.66248 27.4298 5.5693 30.9357C5.56867 30.9367 5.56805 30.9377 5.56748 30.9387C5.48158 31.0827 5.83052 31.0511 5.89081 30.95Z" fill="black"/>
<path d="M5.85999 30.9692L12.5765 20.0452L8.6603 20.9319L15.6752 12.4024L11.9644 13.0763L19.4864 2.83058L29.0948 0.35463L21.7457 9.53303L25.1161 8.84107L16.6444 17.5365L19.6404 16.7905L5.85999 30.9692Z" fill="black"/>
<path d="M6.02614 30.9911C8.24745 27.3784 10.4687 23.7658 12.6899 20.1531C12.7075 20.1244 12.7252 20.0957 12.7428 20.0671C12.8189 19.9435 12.6187 19.9053 12.5439 19.9222C11.2385 20.2177 9.93298 20.5135 8.6276 20.809C8.68706 20.868 8.74662 20.927 8.80618 20.986C11.1445 18.1429 13.4828 15.2997 15.8211 12.4565C15.9301 12.324 15.7472 12.2605 15.6425 12.2795C14.4055 12.5041 13.1686 12.7288 11.9318 12.9534C11.9912 13.0124 12.0508 13.0714 12.1103 13.1304C14.6041 9.73358 17.0979 6.33683 19.5916 2.94C19.661 2.8455 19.6287 2.9253 19.5238 2.95242C19.5796 2.93808 19.6353 2.92366 19.691 2.90932C20.0092 2.82733 20.3274 2.74534 20.6456 2.66335C21.7545 2.37758 22.8635 2.0918 23.9724 1.80602C25.6909 1.3632 27.4094 0.920378 29.1278 0.477561C29.0684 0.418577 29.0088 0.359504 28.9493 0.300523C26.4995 3.36 24.0498 6.41955 21.6 9.47894C21.4946 9.61061 21.6712 9.67806 21.7786 9.65598C22.9022 9.42533 24.0256 9.19461 25.1491 8.96399C25.0896 8.90499 25.0301 8.84593 24.9705 8.78694C22.1466 11.6855 19.3227 14.584 16.4988 17.4824C16.3797 17.6046 16.5789 17.684 16.6774 17.6594C17.676 17.4107 18.6747 17.1622 19.6733 16.9134C19.6139 16.8545 19.5543 16.7954 19.4948 16.7364C16.4171 19.9031 13.3395 23.0697 10.2618 26.2362C8.74599 27.7958 7.2302 29.3555 5.71437 30.9152C5.56161 31.0724 5.89414 31.1381 6.0056 31.0234C9.08328 27.8568 12.1609 24.6902 15.2386 21.5236C16.7544 19.964 18.2702 18.4044 19.786 16.8447C19.9049 16.7224 19.706 16.6431 19.6074 16.6677C18.6087 16.9164 17.6101 17.1649 16.6114 17.4136C16.6709 17.4726 16.7305 17.5317 16.79 17.5907C19.614 14.6921 22.4378 11.7937 25.2617 8.89524C25.3834 8.77035 25.1792 8.69846 25.0832 8.71819C23.9596 8.94882 22.8362 9.17957 21.7127 9.41019C21.7722 9.46915 21.8317 9.52825 21.8913 9.58724C24.341 6.52776 26.7908 3.46821 29.2405 0.408808C29.3431 0.280621 29.1715 0.203469 29.0619 0.231773C26.9416 0.778129 24.8215 1.32449 22.7012 1.87084C21.6847 2.13279 20.6682 2.39474 19.6515 2.65669C19.2394 2.76297 19.0838 3.12664 18.8373 3.46226C16.4978 6.64892 14.1583 9.83564 11.8188 13.0224C11.7193 13.1578 11.8856 13.2197 11.9973 13.1994C13.2343 12.9748 14.4712 12.7501 15.7081 12.5255C15.6486 12.4666 15.5891 12.4075 15.5295 12.3485C13.1912 15.1917 10.8529 18.0349 8.51458 20.878C8.40807 21.0076 8.58639 21.0792 8.6932 21.055C9.99858 20.7595 11.3041 20.4638 12.6094 20.1682C12.5431 20.1199 12.4768 20.0716 12.4105 20.0233C10.1892 23.636 7.96797 27.2487 5.74676 30.8613C5.72916 30.89 5.71146 30.9187 5.69387 30.9474C5.59125 31.1144 5.94433 31.1242 6.02614 30.9911Z" fill="black"/>
<path d="M12.9639 6.83659L8.69444 14.449L11.7619 13.7285L7.27373 21.9766L10.3634 21.1756L8.10623 25.4266C8.10623 25.4266 0.415252 24.7345 2.19028 15.1784C3.65555 7.29 11.2617 6.84628 12.7215 6.83421C12.878 6.83292 12.9639 6.83659 12.9639 6.83659Z" fill="black"/>
<path d="M12.8043 6.86141C11.3812 9.39891 9.95801 11.9363 8.53489 14.4738C8.4951 14.5446 8.69531 14.5151 8.71126 14.5114C9.73373 14.2713 10.7563 14.0312 11.7787 13.791C11.7199 13.7784 11.6611 13.7659 11.6023 13.7533C10.1063 16.5027 8.6103 19.2521 7.11418 22.0014C7.07562 22.0724 7.27355 22.0436 7.29058 22.0391C8.32051 21.7721 9.35038 21.505 10.3802 21.2381C10.3214 21.2256 10.2626 21.213 10.2038 21.2005C9.45144 22.6175 8.69904 24.0344 7.94668 25.4514C8.03387 25.4182 8.12107 25.3849 8.20826 25.3516C6.90595 25.2318 5.58515 24.6004 4.58305 23.7866C1.94627 21.6454 1.77707 17.9875 2.40086 14.8944C3.01196 11.8642 4.86979 9.35938 7.66637 8.03101C9.24093 7.28306 11.1103 6.85493 12.862 6.91125C12.9419 6.91383 13.2339 6.76699 13.0658 6.7616C11.0861 6.69798 9.01583 7.20278 7.24945 8.07566C5.91316 8.73603 4.73674 9.69437 3.84095 10.8877C2.6608 12.4601 2.1005 14.3675 1.86317 16.2973C1.50782 19.186 2.09804 22.2724 4.53488 24.1011C5.51 24.8329 6.77801 25.3883 8.00432 25.5012C8.0863 25.5088 8.22312 25.4818 8.26591 25.4014C9.01827 23.9844 9.77067 22.5675 10.5231 21.1504C10.561 21.079 10.3642 21.1082 10.3467 21.1128C9.3167 21.3798 8.28687 21.6468 7.25704 21.9138C7.31587 21.9263 7.37467 21.9388 7.43344 21.9514C8.92946 19.202 10.4255 16.4526 11.9216 13.7033C11.9604 13.632 11.7618 13.6617 11.7452 13.6657C10.7227 13.9058 9.70015 14.1459 8.67771 14.3862C8.73655 14.3986 8.79538 14.4112 8.85412 14.4238C10.2772 11.8863 11.7004 9.34887 13.1235 6.81137C13.159 6.74848 12.8535 6.77357 12.8043 6.86141Z" fill="black"/>
<path d="M13.8816 6.75543L10.5617 5.79573C10.5617 5.79573 3.11532 6.80517 1.42127 13.866C-0.272848 20.9272 4.4383 25.1597 8.44795 25.1277C7.49554 23.2894 1.20292 9.2101 13.8816 6.75543Z" fill="#F7941E"/>
<path d="M14.0097 6.68755C12.9491 6.38094 11.8884 6.07434 10.8277 5.76774C10.4184 5.64942 9.91288 5.85185 9.51768 5.95721C6.92292 6.64865 4.484 8.11259 2.88984 10.3036C0.781896 13.2008 0.244674 17.463 1.75373 20.7343C2.93207 23.2885 5.52424 25.2035 8.38229 25.2024C8.41458 25.2024 8.64186 25.1549 8.60584 25.0853C7.83274 23.5881 7.26982 21.9578 6.84478 20.331C6.20021 17.8638 5.89867 15.1755 6.61512 12.6901C7.00375 11.3418 7.73908 10.1267 8.7661 9.17081C10.1601 7.87327 12.0161 7.18944 13.8553 6.82622C13.9898 6.79965 14.1272 6.64124 13.9075 6.68461C10.9506 7.2686 8.1216 8.68587 6.76623 11.5114C5.65165 13.8349 5.74498 16.5763 6.21817 19.0486C6.61977 21.1466 7.3073 23.2678 8.28962 25.1702C8.36413 25.1311 8.43865 25.0921 8.51317 25.053C4.92665 25.0546 2.12952 22.0256 1.42191 18.6854C0.581327 14.7169 2.20103 10.4155 5.44919 8.02111C6.84504 6.9922 8.51555 6.26534 10.2157 5.92304C10.3207 5.90195 10.4262 5.88216 10.5322 5.86709C10.3598 5.89164 10.5111 5.88609 10.6111 5.91501C10.8132 5.97344 11.0152 6.03187 11.2173 6.09024C12.0627 6.33454 12.9079 6.57888 13.7532 6.82322C13.8353 6.84678 14.1191 6.71911 14.0097 6.68755Z" fill="black"/>
<path d="M6.36897 30.417C8.57176 26.9439 10.7746 23.4708 12.9775 19.9977C12.9789 19.9956 12.9803 19.9932 12.9817 19.991C13.0539 19.8773 12.8654 19.8396 12.7967 19.8562C11.633 20.1382 10.4694 20.4201 9.30583 20.7021C9.36117 20.7569 9.41654 20.8118 9.4718 20.8667C11.6332 18.1067 13.7947 15.3467 15.9561 12.5866C16.0542 12.4614 15.8897 12.4051 15.7901 12.422C14.6917 12.6089 13.5934 12.7958 12.495 12.9827C12.5504 13.0376 12.6058 13.0924 12.6611 13.1473C15.0792 9.85754 17.4972 6.56773 19.9153 3.27779C19.8659 3.34501 19.7634 3.35212 19.8715 3.32317C19.9501 3.30228 20.0285 3.28126 20.107 3.26027C20.4113 3.1789 20.7155 3.09757 21.0197 3.0162C21.9771 2.76029 22.9345 2.50437 23.8918 2.24836C25.2809 1.87703 26.6699 1.5057 28.0588 1.13428C28.0035 1.0794 27.9481 1.02444 27.8928 0.96957C25.5062 3.97388 23.1196 6.97831 20.7329 9.98263C20.6348 10.1063 20.7993 10.1663 20.899 10.1472C21.878 9.96055 22.8571 9.77372 23.836 9.58702C23.7807 9.53213 23.7253 9.47717 23.6699 9.4223C21.064 12.2552 18.4579 15.0881 15.852 17.921C15.7448 18.0375 15.9243 18.1077 16.018 18.0856C16.9006 17.8779 17.7831 17.67 18.6657 17.4622C18.6103 17.4073 18.5549 17.3524 18.4995 17.2975C15.3958 20.5583 12.292 23.819 9.18826 27.0797C8.15183 28.1686 7.11543 29.2574 6.07902 30.3462C5.93828 30.4941 6.24711 30.5548 6.34998 30.4468C9.45375 27.1861 12.5575 23.9253 15.6613 20.6646C16.6977 19.5758 17.7341 18.487 18.7705 17.3982C18.8804 17.2829 18.6965 17.2119 18.6044 17.2336C17.7219 17.4413 16.8393 17.6492 15.9568 17.857C16.0122 17.9118 16.0675 17.9667 16.1228 18.0216C18.7288 15.1888 21.3348 12.3559 23.9408 9.52301C24.0505 9.40386 23.8663 9.34087 23.7747 9.35828C22.7957 9.54502 21.8167 9.73181 20.8377 9.91861C20.8931 9.97351 20.9484 10.0284 21.0038 10.0832C23.3904 7.07891 25.777 4.07459 28.1636 1.07028C28.2581 0.951399 28.1002 0.878174 27.9976 0.905566C25.8109 1.49018 23.6242 2.07479 21.4376 2.6594C20.9737 2.78339 20.5097 2.90747 20.0457 3.03147C19.9155 3.06624 19.7135 3.08286 19.6276 3.19982C19.1792 3.80982 18.731 4.41972 18.2826 5.02972C16.3184 7.70206 14.3543 10.3743 12.3901 13.0466C12.2969 13.1732 12.4528 13.2288 12.5562 13.2112C13.6545 13.0243 14.7528 12.8374 15.8512 12.6505C15.7958 12.5956 15.7405 12.5407 15.6852 12.4859C13.5238 15.2459 11.3623 18.0059 9.20094 20.766C9.10635 20.8866 9.2644 20.9554 9.36691 20.9306C10.5306 20.6486 11.6942 20.3667 12.8578 20.0848C12.7961 20.0399 12.7344 19.995 12.6727 19.95C10.4699 23.4231 8.26712 26.8961 6.06423 30.3692C6.06278 30.3714 6.06139 30.3738 6.05994 30.376C5.96271 30.5297 6.29135 30.5393 6.36897 30.417Z" fill="black"/>
<path d="M13.9018 6.74707L9.63217 14.3594L12.6996 13.6391L8.21149 21.8872L11.3012 21.086L9.04385 25.337C9.04385 25.337 1.35299 24.6451 3.12803 15.0888C4.59321 7.20065 12.1994 6.75682 13.6592 6.74479C13.8158 6.7434 13.9018 6.74707 13.9018 6.74707Z" fill="#FBB040"/>
<path d="M13.5943 6.71197C12.171 9.24937 10.7479 11.7868 9.32468 14.3242C9.19579 14.5541 9.54942 14.6093 9.69007 14.5764C10.7125 14.3362 11.735 14.0962 12.7575 13.8561C12.6357 13.772 12.5139 13.688 12.3922 13.6039C10.8961 16.3533 9.40012 19.1027 7.90401 21.852C7.77987 22.0802 8.12508 22.1416 8.26939 22.1042C9.29932 21.8371 10.3292 21.57 11.3591 21.303C11.2373 21.2189 11.1155 21.1349 10.9937 21.0509C10.2412 22.4679 9.48887 23.8848 8.73637 25.3018C8.87629 25.2364 9.01611 25.1712 9.15603 25.1059C7.90975 24.9911 6.60572 24.3732 5.61828 23.5713C2.99264 21.439 2.88182 17.7355 3.53161 14.677C4.16287 11.7057 6.03841 9.28708 8.80002 8.0264C10.3187 7.33311 12.1103 6.92418 13.7892 6.97802C13.9451 6.98305 14.1336 6.93641 14.2089 6.782C14.2757 6.64488 14.1503 6.52035 14.0138 6.51595C11.961 6.45002 9.80955 6.97356 7.9909 7.90851C6.62725 8.60962 5.4325 9.61533 4.53873 10.8638C3.38723 12.4723 2.84215 14.3931 2.61969 16.3393C2.28741 19.2461 2.93573 22.3072 5.37459 24.1373C6.37223 24.8859 7.67705 25.4523 8.93146 25.5678C9.08934 25.5823 9.27304 25.5187 9.35113 25.3718C10.1036 23.9548 10.856 22.5379 11.6085 21.1209C11.73 20.8921 11.3893 20.8308 11.2431 20.8687C10.2131 21.1358 9.18331 21.4029 8.15337 21.6699C8.27514 21.754 8.397 21.838 8.51876 21.922C10.0148 19.1726 11.5108 16.4233 13.0069 13.6739C13.1323 13.4434 12.7846 13.3882 12.6415 13.4217C11.6191 13.6619 10.5966 13.9019 9.57405 14.142C9.69581 14.2261 9.81767 14.3101 9.93944 14.3942C11.3627 11.8568 12.7858 9.31934 14.209 6.78191C14.385 6.46803 13.7305 6.46929 13.5943 6.71197Z" fill="black"/>
<path d="M24.7897 13.7922L18.9908 18.0511L20.788 18.1453L10.8611 25.6566C10.8611 25.6566 18.7074 27.0598 23.5595 21.3582C24.8685 19.6485 26.6086 15.901 24.7897 13.7922Z" fill="#FBB040"/>
<path d="M24.5353 13.7529C22.6024 15.1726 20.6694 16.5922 18.7364 18.0118C18.5751 18.1304 18.7364 18.2109 18.8613 18.2174C19.4604 18.2488 20.0594 18.2802 20.6585 18.3115C20.6168 18.2431 20.5752 18.1745 20.5336 18.1059C17.2305 20.6054 13.9273 23.1047 10.6242 25.6041C10.6183 25.6085 10.6126 25.6129 10.6067 25.6173C10.4985 25.6993 10.5358 25.796 10.6605 25.8181C12.7722 26.1921 15.0747 25.9734 17.1352 25.4502C19.0066 24.9748 20.7761 24.1185 22.2796 22.9034C23.8666 21.621 24.9765 19.9338 25.5816 17.9859C26.0276 16.55 26.0988 14.8878 25.0902 13.6713C24.9618 13.5163 24.3452 13.7391 24.4896 13.9132C25.8942 15.6075 25.1111 18.0772 24.2255 19.8239C23.2594 21.7294 21.6325 23.1605 19.758 24.1456C17.2409 25.4683 14.1854 25.8861 11.3758 25.5402C11.271 25.5272 11.1661 25.5135 11.0621 25.4951C11.08 25.562 11.0979 25.629 11.1158 25.6959C14.419 23.1965 17.7221 20.6972 21.0252 18.1978C21.0311 18.1934 21.0368 18.189 21.0427 18.1846C21.2013 18.0647 21.045 17.9857 20.9178 17.979C20.3187 17.9476 19.7197 17.9162 19.1206 17.8849C19.1623 17.9534 19.2039 18.0219 19.2455 18.0905C21.1784 16.6708 23.1114 15.2512 25.0444 13.8316C25.1527 13.7521 25.1156 13.6501 24.9907 13.6307C24.8348 13.6067 24.6608 13.6608 24.5353 13.7529Z" fill="black"/>
<path d="M9.86968 5.72794L12.0915 6.49053L9.7843 6.05044L9.86968 5.72794Z" fill="black"/>
<path d="M8.82989 5.91377L10.668 6.63307L8.73523 6.23369L8.82989 5.91377Z" fill="black"/>
<path d="M8.12816 6.15504L9.76272 6.83461L8.02991 6.47388L8.12816 6.15504Z" fill="black"/>
<path d="M7.3797 6.4192L9.5474 7.22532L7.2865 6.73949L7.3797 6.4192Z" fill="black"/>
<path d="M5.88855 7.30597L7.31791 7.87231L5.80017 7.62764L5.88855 7.30597Z" fill="black"/>
<path d="M5.35607 7.68141L7.13127 8.37704L5.26221 8.00153L5.35607 7.68141Z" fill="black"/>
<path d="M4.56743 8.42285L6.26237 9.3923L4.37561 8.89077L4.56743 8.42285Z" fill="black"/>
<path d="M3.66915 9.26064L4.89929 9.84882L3.56323 9.57699L3.66915 9.26064Z" fill="black"/>
<path d="M1.51279 12.5739L3.11963 13.1446L1.43262 12.8978L1.51279 12.5739Z" fill="black"/>
<path d="M1.56143 13.0993L3.24718 13.8301L1.44678 13.4645L1.56143 13.0993Z" fill="black"/>
<path d="M1.55155 13.7646L2.57273 14.2471L1.45532 14.084L1.55155 13.7646Z" fill="black"/>
<path d="M1.10864 18.7224L2.54555 19.3439L1.00977 19.041L1.10864 18.7224Z" fill="black"/>
<path d="M1.64349 19.4447L2.91859 20.0401L1.52026 19.883L1.64349 19.4447Z" fill="black"/>
<path d="M1.66421 20.3931L2.84263 21.0146L1.54053 20.7338L1.66421 20.3931Z" fill="black"/>
<path d="M2.09608 20.9161L3.75162 21.8168L1.89771 21.4795L2.09608 20.9161Z" fill="black"/>
<path d="M2.85571 22.2054L4.21127 22.6822L2.78247 22.5308L2.85571 22.2054Z" fill="black"/>
<path d="M3.25654 22.7225L5.01094 23.6885L3.08789 23.1302L3.25654 22.7225Z" fill="black"/>
<path d="M4.50437 23.5833L5.53477 24.0589L4.40503 23.9535L4.50437 23.5833Z" fill="black"/>
<path d="M5.82607 24.4561L5.23796 24.2947L5.20911 24.4L5.79725 24.5615L5.82607 24.4561Z" fill="black"/>
<path d="M6.40772 24.7572L6.05474 24.639L6.02014 24.7425L6.37311 24.8607L6.40772 24.7572Z" fill="black"/>
<path d="M23.8419 14.1062C22.3311 15.3043 20.8203 16.5023 19.3095 17.7004C19.0007 17.9453 19.2977 18.0973 19.5592 18.1115C20.2861 18.1513 21.013 18.191 21.74 18.2308C21.6567 18.0938 21.5735 17.9568 21.4902 17.8197C18.018 20.3462 14.5457 22.8726 11.0735 25.3991C11.0244 25.4348 10.9754 25.4705 10.9265 25.5061C10.7086 25.6646 10.7849 25.8693 11.034 25.9078C11.3468 25.9562 11.6926 25.8469 11.9445 25.6636C15.4167 23.1371 18.889 20.6107 22.3612 18.0841C22.4103 18.0484 22.4593 18.0128 22.5082 17.9771C22.8331 17.7407 22.5063 17.5796 22.2585 17.566C21.5317 17.5262 20.8047 17.4865 20.0778 17.4466C20.1611 17.5837 20.2442 17.7207 20.3275 17.8578C21.8383 16.6597 23.3491 15.4617 24.8599 14.2636C25.0667 14.0996 25.0106 13.9019 24.7524 13.862C24.4489 13.8151 24.082 13.9158 23.8419 14.1062Z" fill="black"/>
<path d="M28.8724 0.278839L30 0L29.4185 0.714356L28.8724 0.278839Z" fill="black"/>
<path d="M8.79655 14.8104L11.9509 14.2834L7.80273 22.2713L10.3395 21.5877L9.16339 24.5617L11.2835 20.8056L8.81596 21.4521L12.9976 13.6783L9.99922 14.0385L12.348 8.93069L8.79655 14.8104Z" fill="#FBE942"/>
<path d="M12.7104 8.31356C12.7776 8.26994 12.7908 8.23586 12.7572 8.21369L12.8096 8.10155C12.8096 8.10155 12.7609 8.14319 12.7043 8.19488C11.9707 8.04212 5.72457 9.46835 4.54954 15.6222C2.9343 24.0814 9.19382 24.5617 9.19382 24.5617L10.37 21.5875L7.83317 22.2712L11.9813 14.2834L8.82688 14.8105L12.3784 8.93067" fill="#FFC229"/>
<path d="M21.3875 17.2647L22.7833 17.3268C22.7833 17.3268 23.2697 17.5398 22.7529 17.8746C22.2361 18.2095 14.3008 23.9919 14.3008 23.9919L22.0096 17.7457L20.4116 17.7245L22.6616 16.0182L21.3875 17.2647Z" fill="#FBE942"/>
<path d="M24.1548 14.8284L22.2903 16.2957L21.2026 17.2661L22.7228 17.327C22.7228 17.327 23.2092 17.54 22.6924 17.8748C22.3 18.129 17.6315 21.5233 15.4064 23.143L12.9666 24.9271C12.9666 24.9271 17.9832 24.7661 21.0947 22.2944C26.3102 18.151 24.1548 14.8284 24.1548 14.8284Z" fill="#FFC229"/>
<path d="M7.03943 28.7308L12.8278 19.8222L9.64237 20.594L15.838 12.3565L12.8313 12.8679L19.1676 3.81079L26.6922 1.7991L19.588 10.5256L22.268 10.0145L14.6186 18.6861L17.0343 18.1172L7.03943 28.7308Z" fill="#EF4136"/>
<path d="M15.784 12.387L12.7938 12.8985L17.1165 6.68556L12.4895 13.0152L15.7285 12.4611L15.784 12.387Z" fill="#972724"/>
<path d="M12.7898 19.8529L9.62192 20.6247L14.9299 13.5284L9.31738 20.7347L12.7623 19.8955L12.7898 19.8529Z" fill="#972724"/>
<path d="M20.7861 9.95137L27.9068 0.938324L19.7056 3.14302L19.2196 3.80798L26.5783 1.82981L19.513 10.5563L22.1782 10.0452L14.5709 18.7168L16.9733 18.1479L7.52107 28.2408L6.21265 30.315L18.5651 17.2663L15.9319 17.8897L23.707 9.39115L20.7861 9.95137Z" fill="#972724"/>
</svg>
