<svg width="57" height="66" viewBox="0 0 57 66" fill="none" xmlns="http://www.w3.org/2000/svg">
<path d="M48.0568 28.715L40.5934 27.2754L48.3729 18.2954L41.9119 19.7872L56 0L37.5811 5.33779L36.0503 7.68263L22.3026 27.909L21.6956 28.0143C23.4496 23.5023 24.3081 22.0683 27.9982 13.5875L19.8636 10.8822C19.8636 10.8822 19.4789 10.9462 18.8219 11.115C18.3356 11.193 17.7402 11.3625 17.0666 11.6436C12.581 13.1801 4.04106 17.5043 1.67961 28.5727C-0.182296 37.3008 1.99294 44.0231 5.63616 48.1584C9.33497 53.1895 15.419 54.5258 17.1222 54.8084L11.2095 65.9463L11.9748 65.0578L11.4597 66L20.8233 55.1653C25.8105 56.2388 36.6685 56.8602 45.7424 45.4708C54.5191 34.4547 48.0568 28.715 48.0568 28.715ZM17.0341 45.2403L17.3483 44.7678L22.5536 43.4424L21.9958 43.6408L22.001 43.6303L17.0341 45.2403Z" fill="#FBB040"/>
<path d="M48.6896 28.3013C46.1809 27.8286 43.6724 27.3559 41.1637 26.8832C41.2193 27.1112 41.2748 27.3394 41.3305 27.5672C43.9454 24.619 46.5603 21.6706 49.1751 18.7223C49.6988 18.132 48.8031 17.9725 48.432 18.0562C46.2602 18.5459 44.0885 19.0357 41.9169 19.5256C42.1647 19.7476 42.4123 19.9698 42.66 20.1918C47.3953 13.6953 52.1307 7.19851 56.866 0.702053C57.3064 0.0979332 56.5566 -0.0868354 56.1229 0.0358945C52.0245 1.19605 47.926 2.35621 43.8277 3.51638C41.8628 4.07261 39.8977 4.62884 37.9327 5.18508C36.6609 5.54511 36.0773 7.06861 35.317 8.16109C30.7248 14.7608 26.1325 21.3607 21.5402 27.9602C21.8106 27.8013 22.0811 27.6419 22.3516 27.4829C22.1476 27.5176 21.9436 27.5519 21.7394 27.5866C21.9498 27.7786 22.1603 27.9703 22.3706 28.1625C24.2985 23.3298 26.6143 18.6886 28.726 13.9524C28.8476 13.6794 28.7113 13.482 28.4632 13.4014C26.3723 12.7221 24.2813 12.0429 22.1902 11.3635C21.5587 11.1582 20.5783 10.5946 19.8921 10.7119C18.3323 10.9785 16.8455 11.4768 15.3624 12.0557C8.87165 14.5893 3.34458 19.7394 1.13052 27.0569C-0.882208 33.7085 -0.323666 41.5018 3.74744 47.0771C7.01916 51.558 11.6206 54.1893 16.7529 55.0365C16.6075 54.843 16.4622 54.6493 16.3167 54.4557C14.3294 58.1126 12.3421 61.7695 10.3546 65.4262C9.93903 66.1907 11.4149 65.9823 11.701 65.6577C11.9582 65.3661 12.2155 65.0744 12.4727 64.7826C12.0238 64.7056 11.5751 64.6282 11.1263 64.551C10.9531 64.8605 10.78 65.1697 10.6068 65.4792C10.1839 66.2351 11.6666 66.0348 11.9533 65.7106C15.1008 62.1534 18.248 58.5961 21.3953 55.0387C21.034 55.1453 20.6728 55.2518 20.3115 55.358C26.7273 56.6901 33.3564 55.6007 39.0829 52.1239C43.2181 49.6134 46.9253 45.7469 49.3821 41.3112C50.9313 38.5142 51.8725 35.0775 50.9294 31.8583C50.5454 30.5475 49.8234 29.2311 48.8334 28.3641C48.3897 27.9752 46.9953 28.6871 47.6291 29.2421C47.3946 29.0368 47.6968 29.3178 47.7491 29.3732C47.9449 29.5809 48.1231 29.8079 48.2922 30.0417C48.8363 30.7951 49.2192 31.6577 49.4724 32.5761C50.4645 36.175 48.8699 39.8749 47.0099 42.7645C42.1174 50.3641 34.1079 55.021 25.6411 54.8527C24.6307 54.8326 23.6215 54.742 22.6194 54.6007C21.8773 54.496 20.7389 54.0024 20.1366 54.6831C19.2748 55.6571 18.4131 56.6313 17.5511 57.6054C15.2684 60.1855 12.9856 62.7655 10.703 65.3457C11.1518 65.4227 11.6005 65.5001 12.0494 65.5773C12.2226 65.2679 12.3956 64.9586 12.5688 64.6491C12.9914 63.8938 11.509 64.0923 11.2223 64.4177C10.9651 64.7093 10.7079 65.001 10.4507 65.2928C10.8995 65.3698 11.3482 65.4472 11.7971 65.5243C13.7844 61.8676 15.7718 58.2105 17.7593 54.5538C17.9598 54.1848 17.5867 54.0165 17.3231 53.9729C14.1855 53.4549 11.0942 52.129 8.52996 50.0727C5.30107 47.4832 2.95248 43.4972 2.02651 39.2491C0.951739 34.3192 1.66032 28.7297 3.66634 24.1936C5.28167 20.5409 7.9298 17.612 11.0371 15.4699C12.5505 14.4266 14.1829 13.5992 15.8582 12.9237C16.6937 12.5869 17.5581 12.2601 18.4233 12.0398C18.7574 11.9549 19.1003 11.8942 19.4365 11.818C19.7865 11.7387 19.6722 11.8467 19.3619 11.7459C19.4958 11.7895 19.6296 11.833 19.7634 11.8764C22.3577 12.7192 24.9521 13.5619 27.5467 14.4047C27.459 14.2211 27.3714 14.0373 27.2839 13.8537C25.1723 18.5901 22.8565 23.2314 20.9286 28.0637C20.7473 28.5184 21.2184 28.6975 21.5597 28.6395C22.2613 28.5207 22.7578 28.3823 23.1873 27.7652C23.5998 27.1721 24.0124 26.5794 24.4249 25.9865C25.9533 23.7897 27.4819 21.5931 29.0104 19.3965C31.6093 15.6615 34.2082 11.9264 36.8073 8.19134C37.3479 7.41445 37.8626 6.61454 38.3895 5.82622C38.1884 5.97107 37.9872 6.11585 37.7862 6.2607C43.9773 4.50825 50.1683 2.7556 56.3593 1.00314C56.1116 0.781159 55.8639 0.558971 55.6162 0.336986C50.8809 6.83364 46.1455 13.3302 41.4102 19.8269C40.9594 20.4452 41.7276 20.589 42.1534 20.493C44.3251 20.0033 46.4969 19.5135 48.6685 19.0236C48.4207 18.8016 48.173 18.5794 47.9253 18.3575C45.3105 21.3058 42.6955 24.2541 40.0807 27.2026C39.864 27.4468 39.9009 27.8212 40.2475 27.8865C42.7561 28.3592 45.2646 28.8319 47.7733 29.3046C48.1502 29.3755 48.5753 29.2933 48.8571 28.9853C49.0778 28.7433 49.0325 28.3658 48.6896 28.3013Z" fill="black"/>
<path d="M17.4959 45.4814C17.6007 45.3169 17.7054 45.1527 17.8101 44.9886C17.6107 45.142 17.4112 45.2954 17.2119 45.4488C18.9467 44.9878 20.6815 44.5269 22.4161 44.0659C22.3381 43.7245 22.2604 43.3828 22.1824 43.0413C21.9966 43.1103 21.8106 43.1793 21.6247 43.2483C21.902 43.4364 22.1794 43.6247 22.4566 43.8128C22.4584 43.809 22.4601 43.8056 22.4619 43.8019C22.7495 43.2039 21.9228 43.1384 21.63 43.2374C19.9745 43.7974 18.3193 44.3572 16.664 44.9171C15.7494 45.2266 15.977 46.2534 16.8978 45.9418C18.5532 45.3818 20.2085 44.822 21.8637 44.2621C21.5865 44.074 21.3091 43.8857 21.0318 43.6976C21.0301 43.7013 21.0283 43.7048 21.0265 43.7085C20.742 44.3005 21.5636 44.3824 21.8585 44.273C22.0443 44.204 22.2303 44.135 22.4161 44.0659C23.3256 43.7284 23.115 42.7935 22.1824 43.0413C21.0909 43.3312 19.9995 43.6212 18.9082 43.9111C18.3219 44.067 17.7356 44.2229 17.1491 44.3785C16.6198 44.5194 16.3772 44.8884 16.0657 45.3771C15.8374 45.7354 16.2587 45.9747 16.4982 45.9923C16.8775 46.0205 17.2673 45.8399 17.4959 45.4814Z" fill="black"/>
<path d="M48.6566 28.5059L40.5243 27L31.2888 37.1833L36.0107 37.9474L18 53.6834C18 53.6834 33.8001 60.0029 46.2905 44.9517C55.2633 34.1394 48.6566 28.5059 48.6566 28.5059Z" fill="black"/>
<path d="M48.6196 27.5478C46.6301 27.1642 44.6407 26.7805 42.6513 26.3969C41.9777 26.2671 41.3043 26.1374 40.6307 26.0074C40.2029 25.9248 39.8287 26.5522 39.5774 26.8407C36.7442 30.0934 33.911 33.3461 31.0779 36.5987C31.0022 36.6857 31.098 36.7428 31.1669 36.7544C32.1904 36.927 33.2141 37.0995 34.2377 37.2718C34.719 37.353 35.2003 37.4341 35.6818 37.515C35.8204 37.5383 35.833 37.2693 35.6235 37.46C34.337 38.6303 33.0504 39.8008 31.7639 40.9713C27.6994 44.6688 23.6351 48.3663 19.5706 52.0639C19.0688 52.5204 18.567 52.9769 18.0652 53.4334C18.0054 53.4877 17.9584 53.5774 18.0572 53.6186C21.5147 55.0496 25.5358 55.2267 29.1527 54.7896C37.2752 53.8083 44.8908 48.2469 49.1363 40.4025C51.1424 36.6959 52.2215 30.7305 48.7138 27.5859C48.5629 27.4504 48.0009 27.7217 48.134 27.8411C49.0779 28.6872 49.7139 30.0189 50.0765 31.2855C51.1212 34.9343 49.633 38.7543 47.8109 41.7338C42.9639 49.6602 34.9301 54.6017 26.388 54.6451C24.1506 54.6565 21.8917 54.3481 19.726 53.7112C19.3412 53.5982 18.9572 53.4746 18.5821 53.3249C18.646 53.3504 18.4608 53.582 18.6602 53.4005C18.832 53.2442 19.0038 53.0882 19.1754 52.9319C23.0041 49.4487 26.8328 45.9657 30.6615 42.4826C32.5222 40.7899 34.3829 39.0971 36.2438 37.4044C36.3407 37.3162 36.3208 37.2265 36.1964 37.2056C34.6914 36.9521 33.1863 36.6985 31.6816 36.4448C31.4919 36.4128 31.6022 36.6308 31.7234 36.4916C31.8682 36.3253 32.013 36.1589 32.1578 35.9926C32.6999 35.3706 33.242 34.7481 33.7839 34.1258C36.0957 31.4717 38.4075 28.8176 40.7194 26.1635C40.5594 26.2218 40.3994 26.2803 40.2394 26.3386C42.9024 26.8522 45.5655 27.3656 48.2283 27.879C48.3913 27.91 48.953 27.612 48.6196 27.5478Z" fill="black"/>
<path d="M26.98 13.5029L19.5128 27.9252L29 26.329L16.3602 44.7549L23.1705 42.4077L17.0557 54C17.0557 54 -2.05841 52.0036 2.78692 31.6874C6.70521 15.2585 16.0554 11.0255 18.8881 11C19.1916 10.9973 26.98 13.5029 26.98 13.5029Z" fill="black"/>
<path d="M27.3392 13.6561C24.8169 18.4242 22.2947 23.1924 19.7724 27.9606C19.6818 28.1319 19.9105 28.1524 20.0188 28.1346C23.2235 27.6069 26.4282 27.0792 29.6326 26.5516C29.5505 26.4935 29.4684 26.4356 29.3863 26.3775C25.1167 32.4694 20.847 38.5612 16.5776 44.6531C16.4379 44.8523 16.828 44.8361 16.9096 44.8087C19.21 44.0326 21.5104 43.2564 23.8108 42.4806C23.7002 42.4286 23.5895 42.3769 23.4789 42.325C21.4134 46.1576 19.3479 49.9901 17.2824 53.8227C17.4455 53.7648 17.6085 53.707 17.7717 53.6491C15.1434 53.3763 12.4828 52.3899 10.1702 51.0644C8.10098 49.8783 6.26502 48.2358 4.92085 46.1701C3.25315 43.6069 2.60428 40.4892 2.63764 37.4029C2.68732 32.811 4.17658 28.1189 6.02002 24.0204C7.55865 20.6002 9.67648 17.4326 12.3851 14.9611C14.0356 13.4551 15.9823 12.15 18.0979 11.5525C19.8587 11.0553 21.7416 12.0607 23.4814 12.5978C24.7814 12.9992 26.0804 13.4043 27.3785 13.8129C27.5602 13.87 28.131 13.5769 27.8857 13.4996C25.7372 12.8233 23.5869 12.1517 21.4306 11.5035C20.7662 11.3038 20.0188 10.9553 19.3163 11.0047C18.6289 11.053 17.9526 11.2383 17.302 11.4726C11.988 13.3862 8.07514 18.4643 5.61132 23.6324C3.68033 27.683 2.26263 32.318 2.02644 36.877C1.867 39.9546 2.42081 43.0508 3.90344 45.7156C6.10149 49.6657 10.0829 52.0678 14.1253 53.2828C15.185 53.6012 16.2802 53.8827 17.3789 53.9967C17.5245 54.0118 17.7844 53.9785 17.8681 53.8231C19.9336 49.9905 21.9992 46.158 24.0646 42.3254C24.1767 42.1173 23.834 42.1357 23.7327 42.1698C21.4322 42.9459 19.1318 43.722 16.8314 44.4979C16.942 44.5498 17.0527 44.6015 17.1633 44.6535C21.4329 38.5616 25.7026 32.4698 29.972 26.378C30.0877 26.2132 29.8134 26.1896 29.7256 26.2039C26.5209 26.7316 23.3162 27.2594 20.1117 27.787C20.1938 27.8451 20.276 27.9029 20.3581 27.961C22.8804 23.1928 25.4027 18.4246 27.925 13.6564C28.0654 13.3908 27.4337 13.4772 27.3392 13.6561Z" fill="black"/>
<path d="M28 13.6428L19.8649 11C19.8649 11 4.92762 13.4115 1.67986 28.282C-1.56792 43.1528 7.46353 52.0669 15.1504 51.9996C13.9605 49.4763 17.1969 39.3578 21.1855 29.0417C23.317 23.5278 23.9691 22.6929 28 13.6428Z" fill="black"/>
<path d="M27.939 12.7025C25.8378 12.0178 23.7366 11.3328 21.6354 10.6479C21.0406 10.4539 20.2076 9.97505 19.5746 10.001C19.2757 10.0132 18.966 10.1142 18.6762 10.1829C14.1932 11.2429 9.85276 13.556 6.46359 16.9768C0.834144 22.6585 -1.38504 32.1595 0.870641 40.1838C2.70661 46.7154 8.19294 52.0025 14.5435 52C14.6092 52 15.0439 51.9015 14.9777 51.7492C14.581 50.8382 14.7137 49.6978 14.8278 48.7345C15.0319 47.0117 15.4626 45.3179 15.9092 43.6562C17.1706 38.9611 18.8356 34.3923 20.5442 29.8778C22.7553 24.0353 25.4709 18.4758 27.995 12.7954C28.0604 12.6484 27.4699 12.7109 27.3858 12.9001C24.8093 18.6989 22.0574 24.3747 19.8005 30.3385C18.1022 34.8261 16.4792 39.3735 15.2255 44.0397C14.786 45.6757 14.3966 47.3413 14.1959 49.0355C14.086 49.9622 13.9854 51.061 14.3641 51.931C14.5089 51.8474 14.6536 51.7639 14.7984 51.6802C7.83201 51.6831 2.3987 45.1985 1.02424 38.0472C-0.614191 29.5226 2.55584 20.4552 8.84771 15.3009C11.8205 12.8657 15.4303 11.1358 19.0734 10.3748C19.1687 10.3549 19.2642 10.3363 19.3598 10.3193C19.3175 10.3269 19.109 10.277 19.4118 10.3757C20.2972 10.6643 21.1826 10.953 22.0679 11.2415C23.8592 11.8254 25.6503 12.4093 27.4417 12.993C27.6 13.0444 28.1519 12.7719 27.939 12.7025Z" fill="black"/>
<path d="M26 14.0055L17.4915 29.9733L23.6045 28.4621L14.6606 45.7636L20.818 44.083L16.3196 53C16.3196 53 0.992779 51.5483 4.52998 31.503C7.44989 14.9566 22.6081 14.026 25.5171 14.0007C25.829 13.9977 26 14.0055 26 14.0055Z" fill="black"/>
<path d="M25.4058 13.1918C22.6485 18.6019 19.8912 24.0123 17.1338 29.4225C17.0251 29.6358 17.3617 29.5956 17.4584 29.5704C19.4394 29.0585 21.4204 28.5462 23.4015 28.0343C23.2858 28 23.17 27.9657 23.0543 27.9318C20.1558 33.7939 17.2573 39.6561 14.359 45.5183C14.2779 45.6822 14.667 45.632 14.7063 45.6207C16.7017 45.0513 18.697 44.4817 20.6925 43.9124C20.5767 43.8782 20.461 43.8439 20.3452 43.81C18.8873 46.8313 17.4296 49.8525 15.9719 52.8738C16.1403 52.8003 16.3085 52.7267 16.4767 52.653C13.9548 52.3977 11.396 51.0589 9.45502 49.3239C4.34743 44.7595 4.02087 36.9682 5.22924 30.3737C6.41678 23.8937 10.049 18.511 15.5083 15.7133C18.5747 14.142 22.1694 13.2427 25.5678 13.3656C25.7817 13.3734 26.2394 13.0269 25.8191 13.0117C21.9577 12.8721 17.9014 13.9944 14.4728 15.8961C11.8833 17.3325 9.61654 19.4153 7.90062 21.9908C5.63888 25.3857 4.58583 29.4988 4.15623 33.6348C3.52483 39.7139 4.71889 46.1675 9.3638 50.0035C11.2536 51.5645 13.7101 52.7559 16.0874 52.9969C16.2608 53.0144 16.5035 52.9606 16.5923 52.7761C18.0502 49.7548 19.5079 46.7336 20.9657 43.7123C21.0454 43.5474 20.6587 43.5982 20.6184 43.6099C18.623 44.1793 16.6277 44.749 14.6322 45.3181C14.748 45.3524 14.8637 45.3867 14.9795 45.4206C17.8779 39.5585 20.7764 33.6964 23.6747 27.8341C23.7562 27.6693 23.3658 27.7218 23.3275 27.7318C21.3465 28.2437 19.3655 28.7559 17.3844 29.2679C17.4925 29.3171 17.6008 29.3666 17.709 29.4159C20.4663 24.0057 23.2235 18.5955 25.981 13.1852C26.1155 12.9221 25.4952 13.0162 25.4058 13.1918Z" fill="black"/>
<path d="M46.5073 29L35.4716 37.8599L38.8918 38.0558L20 53.6825C20 53.6825 34.9324 56.6013 44.1665 44.7399C46.6573 41.1826 49.9686 33.3864 46.5073 29Z" fill="black"/>
<path d="M46.9468 28.1449C43.2172 31.1745 39.4877 34.2041 35.758 37.234C35.6658 37.3088 35.6691 37.3746 35.7939 37.3819C36.8642 37.4438 37.9345 37.506 39.0048 37.568C39.2828 37.5841 39.2425 37.42 39.0972 37.5416C38.9382 37.6747 38.7793 37.8076 38.6206 37.9407C37.0408 39.2628 35.4609 40.5849 33.8811 41.9072C29.7321 45.3795 25.5832 48.852 21.4342 52.3244C20.9655 52.7166 20.4968 53.1089 20.0284 53.5011C19.9793 53.542 19.9978 53.5956 20.0539 53.6067C24.0062 54.3809 28.3027 53.9439 32.1673 52.8909C35.6341 51.9462 38.9147 50.2478 41.7428 47.8306C44.8943 45.1369 47.0933 41.5847 48.3267 37.3994C49.238 34.3076 49.4592 30.6812 47.4773 28.0369C47.381 27.9087 46.7983 28.1457 46.8918 28.2702C49.6267 31.9193 48.1349 37.2215 46.4078 40.9896C44.517 45.1151 41.3475 48.2385 37.6738 50.3739C32.6962 53.2675 26.6689 54.2055 21.1097 53.4296C20.9484 53.4072 20.7876 53.3821 20.6272 53.3534C20.5382 53.3374 20.5574 53.4746 20.6753 53.376C21.0899 53.029 21.5046 52.6819 21.9193 52.3347C23.7686 50.7872 25.6179 49.2393 27.4671 47.6917C31.3547 44.438 35.2422 41.1843 39.1297 37.9308C39.3346 37.7593 39.5394 37.5878 39.7441 37.4164C39.8299 37.3446 39.7179 37.3071 39.6649 37.3041C38.9159 37.2606 38.1669 37.2174 37.4179 37.174C37.0434 37.1521 36.6689 37.1303 36.2944 37.1086C36.2092 37.1038 36.1777 37.2961 36.378 37.1334C37.5263 36.2007 38.6746 35.2678 39.8229 34.3351C42.3561 32.2772 44.8891 30.2197 47.422 28.1621C47.6735 27.958 47.0533 28.0582 46.9468 28.1449Z" fill="black"/>
<path d="M18.1931 12L23 13L18 12.4086L18.1931 12Z" fill="black"/>
<path d="M17.1469 12L20 14L17 12.8898L17.1469 12Z" fill="black"/>
<path d="M15.2268 13L19 14L15 13.4693L15.2268 13Z" fill="black"/>
<path d="M14.1651 13L18 15L14 13.7946L14.1651 13Z" fill="black"/>
<path d="M47 29.1733L40.6848 28L31.8112 37.9317L34.8016 37.921L19 53.7541C19 53.7541 32.3084 55.1835 35.6514 51.1496C38.9947 47.1159 47 29.1733 47 29.1733Z" fill="#F7941E"/>
<path d="M46.9458 28.2178C45.1776 27.8729 43.4094 27.528 41.641 27.1831C41.2907 27.1147 40.5493 26.8116 40.2389 27.1765C39.9223 27.5484 39.6056 27.9207 39.2891 28.2926C36.7127 31.3203 34.1361 34.3482 31.5597 37.376C31.4921 37.4552 31.5701 37.4991 31.6397 37.4989C32.6105 37.4951 33.5813 37.4915 34.5521 37.4878C34.3898 37.4884 34.5102 37.3379 34.2899 37.5697C34.087 37.7829 33.8843 37.9965 33.6815 38.2096C32.0286 39.9486 30.3755 41.6876 28.7226 43.4265C25.5079 46.8084 22.2932 50.1903 19.0785 53.5721C19.0618 53.5898 19.0454 53.6072 19.0286 53.6248C18.9514 53.7059 19.0483 53.7409 19.1086 53.7477C20.8856 53.9463 22.6796 54.0059 24.4639 53.9995C27.3603 53.9891 30.3618 53.7952 33.13 52.7393C34.1625 52.3456 35.2008 51.7631 35.9367 50.8186C36.6417 49.9137 37.2261 48.8759 37.7971 47.8576C39.5032 44.8155 41.0072 41.6188 42.4881 38.4268C44.0409 35.0804 45.5484 31.7033 46.9971 28.2956C47.0458 28.1811 46.4686 28.2354 46.3912 28.4175C44.3308 33.2641 42.1709 38.0635 39.8788 42.7703C38.5642 45.4698 37.2447 48.3078 35.5119 50.6917C33.6785 53.2141 30.0296 53.4248 27.3982 53.6136C24.9237 53.791 22.4273 53.7213 19.9565 53.4977C19.8071 53.4843 19.6577 53.4697 19.5084 53.4532C19.6901 53.4735 19.5862 53.5752 19.8133 53.3364C20.3233 52.7998 20.8334 52.2634 21.3433 51.7267C25.1752 47.6953 29.0069 43.6641 32.8388 39.633C33.5731 38.8605 34.3073 38.0881 35.0414 37.3157C35.1148 37.2385 35.0257 37.1926 34.9613 37.1928C34.3081 37.1954 33.6549 37.1976 33.0016 37.2002C32.6962 37.2014 32.391 37.2026 32.0857 37.2036C32.1582 37.2035 32.0722 37.3789 32.2549 37.1644C33.1575 36.1036 34.0603 35.0427 34.9629 33.9821C36.9071 31.6972 38.8515 29.4124 40.7958 27.1275C40.6191 27.1819 40.4423 27.2365 40.2658 27.291C42.3248 27.6925 44.3839 28.0942 46.4428 28.496C46.5895 28.5246 47.1199 28.2517 46.9458 28.2178Z" fill="black"/>
<path d="M11 65L23.1218 42.7126L15.5639 44.5908L29.1019 26.5219L21.9406 27.9495L37.0472 6.25629L55 1L40.8171 20.4433L47.3219 18.9777L30.9721 37.3983L36.7541 35.8177L11 65Z" fill="black"/>
<path d="M11.6401 64.8153C15.6174 57.3189 19.5947 49.8224 23.5722 42.326C23.5734 42.3239 23.5746 42.3217 23.5756 42.3196C23.7054 42.075 23.3326 42.0855 23.2222 42.1134C20.7417 42.7453 18.261 43.3773 15.7805 44.0092C15.8984 44.078 16.016 44.1467 16.1339 44.2154C20.5772 38.1359 25.0204 32.0568 29.4638 25.9775C29.5953 25.7975 29.2946 25.7325 29.1996 25.7521C26.8491 26.2323 24.4987 26.7127 22.1484 27.193C22.2364 27.2682 22.3245 27.3435 22.4125 27.4185C27.3249 20.1872 32.237 12.9561 37.1494 5.72476C37.4494 5.28295 36.785 5.77607 37.2268 5.6435C37.7444 5.4881 38.2621 5.3327 38.7796 5.17752C40.8358 4.56022 42.8922 3.94312 44.9485 3.32601C48.1999 2.35009 51.4513 1.37416 54.7026 0.398429C54.5848 0.329712 54.4671 0.260988 54.3492 0.192469C49.6943 6.73424 45.0393 13.276 40.3843 19.8176C40.2195 20.0495 40.6542 20.0429 40.7377 20.0238C42.8726 19.5306 45.0074 19.0375 47.1423 18.5444C47.0385 18.4574 46.9349 18.3704 46.831 18.2835C41.4649 24.4811 36.0989 30.6787 30.7328 36.8763C30.5158 37.127 30.8891 37.1805 31.0441 37.1371C32.9417 36.6053 34.8396 36.0736 36.7372 35.5418C36.6334 35.4549 36.5298 35.3678 36.4259 35.281C30.5541 42.1017 24.6821 48.9221 18.8103 55.7428C16.2294 58.7405 13.6485 61.7385 11.0677 64.7362C10.7957 65.0521 11.4405 65.0531 11.598 64.8702C17.4698 58.0494 23.3418 51.229 29.2136 44.4083C31.7945 41.4106 34.3754 38.4125 36.9562 35.4149C37.1726 35.1638 36.8005 35.1105 36.645 35.154C34.7473 35.6858 32.8495 36.2177 30.9518 36.7494C31.0557 36.8363 31.1593 36.9233 31.2631 37.0103C36.6292 30.8127 41.9953 24.615 47.3614 18.4174C47.5822 18.1623 47.2014 18.1217 47.0501 18.1566C44.9152 18.6498 42.7804 19.1429 40.6455 19.636C40.7633 19.7048 40.881 19.7735 40.9989 19.8422C45.6538 13.3004 50.3088 6.75862 54.9638 0.21687C55.1255 -0.0103741 54.6982 -0.015448 54.6104 0.0109108C50.5499 1.22969 46.4896 2.44829 42.4291 3.66707C40.6517 4.20042 38.8744 4.73397 37.097 5.26733C36.3831 5.48167 35.889 6.65128 35.4713 7.26623C30.9136 13.9755 26.3558 20.6848 21.7981 27.3943C21.6737 27.5774 21.9617 27.6404 22.0622 27.6197C24.4128 27.1395 26.7631 26.6591 29.1135 26.1788C29.0254 26.1036 28.9374 26.0283 28.8493 25.9533C24.406 32.0328 19.9628 38.1119 15.5195 44.1912C15.3526 44.4196 15.7899 44.4184 15.8729 44.3973C18.3534 43.7654 20.8341 43.1334 23.3146 42.5015C23.1968 42.4328 23.0791 42.3641 22.9612 42.2954C18.9839 49.7918 15.0066 57.2882 11.0292 64.7847C11.028 64.7868 11.0268 64.7889 11.0257 64.7911C10.8625 65.0989 11.5255 65.0314 11.6401 64.8153Z" fill="black"/>
<path d="M11 65L24.0083 41.8064L16.4235 43.6891L30.0096 25.5795L22.8228 27.0103L37.3909 5.25687L56 0L41.7665 19.4873L48.2942 18.0181L31.8867 36.4799L37.6891 34.8962L11 65Z" fill="black"/>
<path d="M11.6847 64.807C16.0149 57.1969 20.3449 49.5868 24.6749 41.9767C24.7093 41.9163 24.7438 41.8559 24.7781 41.7955C24.9264 41.5351 24.5361 41.4547 24.3903 41.4903C21.8455 42.1129 19.3006 42.7358 16.7559 43.3584C16.8718 43.4826 16.9879 43.607 17.104 43.7313C21.6624 37.7421 26.2206 31.753 30.7789 25.7638C30.9914 25.4847 30.6349 25.3508 30.4308 25.3909C28.0194 25.864 25.6082 26.3373 23.197 26.8105C23.313 26.9347 23.4291 27.0592 23.5452 27.1834C28.4065 20.0279 33.2678 12.8726 38.1291 5.71719C38.2644 5.51813 38.2015 5.68623 37.9969 5.74335C38.1056 5.71316 38.2143 5.68277 38.3229 5.65257C38.9431 5.47986 39.5635 5.30715 40.1837 5.13444C42.3454 4.53244 44.5073 3.93045 46.669 3.32846C50.019 2.39565 53.369 1.46285 56.719 0.530048C56.6031 0.405798 56.487 0.28136 56.3709 0.157117C51.5954 6.60193 46.8198 13.0469 42.0443 19.4915C41.8388 19.7689 42.183 19.911 42.3925 19.8645C44.5827 19.3786 46.7727 18.8926 48.9628 18.4068C48.8469 18.2825 48.7308 18.1581 48.6147 18.0338C43.1098 24.1396 37.605 30.2453 32.1 36.3508C31.8678 36.6083 32.2561 36.7755 32.4481 36.7237C34.3949 36.1999 36.3417 35.6763 38.2884 35.1524C38.1725 35.0282 38.0564 34.9037 37.9403 34.7795C31.9407 41.4501 25.9413 48.1205 19.9417 54.7909C16.9867 58.0762 14.0318 61.3616 11.0769 64.647C10.7791 64.9782 11.4273 65.1167 11.6446 64.8751C17.6442 58.2045 23.6436 51.5341 29.6433 44.8637C32.5982 41.5783 35.5531 38.293 38.508 35.0076C38.7399 34.7498 38.3521 34.5829 38.1599 34.6347C36.2131 35.1586 34.2664 35.6821 32.3196 36.206C32.4355 36.3303 32.5516 36.4547 32.6677 36.5789C38.1727 30.4732 43.6775 24.3677 49.1824 18.262C49.4196 17.9989 49.0215 17.8474 48.8343 17.889C46.6441 18.3748 44.4542 18.8609 42.2639 19.3467C42.3799 19.4709 42.496 19.5954 42.6121 19.7196C47.3875 13.2748 52.1631 6.82986 56.9386 0.385219C57.1386 0.115192 56.8041 -0.0473279 56.5905 0.0122943C52.4572 1.1632 48.3242 2.31411 44.191 3.46501C42.2094 4.01681 40.2278 4.5686 38.246 5.12039C37.4425 5.34427 37.1391 6.11034 36.6587 6.81733C32.0981 13.5301 27.5374 20.2429 22.9767 26.9558C22.7829 27.2411 23.1071 27.3715 23.3249 27.3288C25.7362 26.8557 28.1474 26.3823 30.5586 25.9092C30.4427 25.785 30.3266 25.6605 30.2105 25.5362C25.6522 31.5255 21.094 37.5146 16.5356 43.5038C16.328 43.7767 16.6756 43.9276 16.8838 43.8767C19.4285 43.2541 21.9734 42.6312 24.5181 42.0086C24.3888 41.9069 24.2596 41.8049 24.1303 41.7034C19.8001 49.3135 15.47 56.9236 11.14 64.5337C11.1057 64.5941 11.0712 64.6545 11.0369 64.7149C10.8369 65.0669 11.5252 65.0875 11.6847 64.807Z" fill="black"/>
<path d="M25 14.0056L16.4917 29.9733L22.6047 28.462L13.6605 45.7633L19.8176 44.0832L15.3195 53C15.3195 53 -0.0073169 51.5483 3.53002 31.5033C6.45007 14.9566 21.6079 14.0259 24.517 14.0006C24.8289 13.9979 25 14.0056 25 14.0056Z" fill="black"/>
<path d="M24.3761 13.2244C21.6196 18.6389 18.863 24.0531 16.1065 29.4675C16.0294 29.6185 16.4172 29.5557 16.4481 29.5478C18.4286 29.0354 20.4092 28.523 22.3897 28.0105C22.2757 27.9838 22.1617 27.9571 22.048 27.9302C19.1503 33.7968 16.2526 39.6634 13.3547 45.5298C13.28 45.6812 13.6633 45.6196 13.6963 45.61C15.6913 45.0404 17.6861 44.4705 19.6808 43.9009C19.5668 43.8742 19.4529 43.8475 19.3391 43.8206C17.8818 46.8442 16.4245 49.8676 14.9672 52.8912C15.1361 52.8203 15.3049 52.7492 15.4738 52.6783C12.9513 52.4225 10.393 51.0753 8.45199 49.3389C3.34469 44.77 3.01697 36.9649 4.22521 30.365C5.40888 23.8992 9.0074 18.5545 14.4242 15.7201C17.4741 14.1241 21.0949 13.2106 24.4878 13.3308C24.6425 13.3363 25.2082 13.023 24.8826 13.0115C21.048 12.8757 17.0381 13.9529 13.6167 15.8154C11.0283 17.2244 8.74968 19.2693 7.01459 21.8156C4.7287 25.1708 3.64343 29.2407 3.18375 33.3584C2.49545 39.5223 3.63867 46.1078 8.35869 50.0099C10.2475 51.5713 12.7035 52.7566 15.0788 52.9974C15.2376 53.0135 15.5026 52.9561 15.5855 52.7845C17.0428 49.7609 18.5001 46.7375 19.9575 43.7139C20.031 43.5615 19.6497 43.6239 19.6158 43.6336C17.6208 44.2033 15.6261 44.7731 13.6314 45.3427C13.7453 45.3695 13.8592 45.3961 13.9731 45.423C16.8708 39.5564 19.7685 33.6899 22.6663 27.8234C22.7416 27.6713 22.3568 27.7348 22.3246 27.7431C20.3442 28.2555 18.3635 28.7679 16.3831 29.2805C16.4971 29.3071 16.6111 29.3339 16.7248 29.3607C19.4813 23.9463 22.2379 18.5321 24.9945 13.1177C25.0631 12.9835 24.4715 13.037 24.3761 13.2244Z" fill="black"/>
<path d="M27 13.085L20.5233 11C20.5233 11 5.99664 13.1931 2.69182 28.5331C-0.613161 43.8739 8.57758 53.0693 16.3998 52.9996C14.5418 49.0058 2.26584 18.4179 27 13.085Z" fill="#F7941E"/>
<path d="M26.9511 13.0617C24.8525 12.4004 22.7539 11.739 20.6553 11.0776C19.8453 10.8224 18.8452 11.2591 18.0633 11.4863C12.9294 12.9778 8.1039 16.1357 4.94975 20.8619C0.779076 27.1115 -0.283846 36.3055 2.70191 43.362C5.03331 48.8716 10.1621 53.0024 15.8169 53C15.8808 53 16.3305 52.8976 16.2592 52.7473C14.7296 49.5178 13.6158 46.001 12.7748 42.492C11.4995 37.1699 10.9029 31.3711 12.3204 26.0099C13.0893 23.1014 14.5442 20.4804 16.5763 18.4184C19.3343 15.6195 23.0065 14.1444 26.6455 13.3609C26.9115 13.3036 27.1835 12.9619 26.7487 13.0554C20.8983 14.3151 15.3011 17.3723 12.6194 23.4673C10.4141 28.4793 10.5988 34.3926 11.535 39.7257C12.3296 44.2513 13.6899 48.8269 15.6335 52.9305C15.7809 52.8462 15.9284 52.7621 16.0758 52.6778C8.97969 52.6812 3.44542 46.1474 2.04538 38.9422C0.382241 30.3818 3.5869 21.1033 10.0136 15.9384C12.7753 13.7189 16.0805 12.151 19.4444 11.4126C19.652 11.3671 19.8609 11.3244 20.0706 11.2919C19.7295 11.3449 20.0289 11.3329 20.2267 11.3953C20.6265 11.5213 21.0263 11.6474 21.4262 11.7733C23.0987 12.3003 24.7711 12.8273 26.4434 13.3544C26.606 13.4052 27.1674 13.1298 26.9511 13.0617Z" fill="black"/>
<path d="M11.6345 63.8196C15.9107 56.4281 20.187 49.0365 24.4634 41.645C24.4662 41.6403 24.4688 41.6353 24.4716 41.6306C24.6117 41.3887 24.2459 41.3084 24.1124 41.3438C21.8534 41.9438 19.5945 42.5439 17.3357 43.144C17.4432 43.2607 17.5506 43.3775 17.6579 43.4943C21.8538 37.6204 26.0498 31.7464 30.2457 25.8723C30.4362 25.6059 30.1167 25.486 29.9234 25.5219C27.7912 25.9197 25.659 26.3174 23.5268 26.7152C23.6343 26.832 23.7418 26.9488 23.8493 27.0655C28.5434 20.0642 33.2375 13.0627 37.9315 6.06088C37.8356 6.20395 37.6366 6.21907 37.8466 6.15746C37.999 6.113 38.1513 6.06827 38.3037 6.0236C38.8944 5.85043 39.4849 5.67733 40.0756 5.50416C41.934 4.95952 43.7926 4.41486 45.6511 3.87C48.3476 3.07972 51.044 2.28945 53.7403 1.49897C53.6328 1.38219 53.5253 1.26521 53.4181 1.14843C48.7849 7.54234 44.1519 13.9365 39.5187 20.3304C39.3282 20.5935 39.6476 20.7213 39.8412 20.6808C41.7417 20.2834 43.6423 19.8858 45.5427 19.4885C45.4353 19.3716 45.3278 19.2547 45.2203 19.1379C40.1614 25.1669 35.1024 31.1961 30.0436 37.2251C29.8354 37.4731 30.184 37.6225 30.3658 37.5754C32.0791 37.1334 33.7924 36.6909 35.5056 36.2487C35.3981 36.1319 35.2907 36.0151 35.1832 35.8983C29.158 42.8379 23.1327 49.7777 17.1075 56.7172C15.0955 59.0346 13.0836 61.3518 11.0716 63.6691C10.7984 63.9838 11.3979 64.113 11.5977 63.8832C17.6229 56.9436 23.6482 50.0039 29.6734 43.0643C31.6853 40.7469 33.6973 38.4297 35.7093 36.1125C35.9224 35.8671 35.5655 35.7161 35.3868 35.7621C33.6735 36.2042 31.9603 36.6466 30.2471 37.0889C30.3545 37.2057 30.462 37.3224 30.5693 37.4393C35.6283 31.4105 40.6871 25.3812 45.7462 19.3522C45.959 19.0987 45.6015 18.9646 45.4237 19.0017C43.5232 19.3991 41.6226 19.7966 39.7222 20.1942C39.8296 20.311 39.9371 20.4278 40.0446 20.5445C44.6776 14.1506 49.3107 7.75666 53.9437 1.36276C54.127 1.10976 53.8207 0.95392 53.6215 1.01222C49.3764 2.25641 45.1316 3.50061 40.8867 4.74481C39.9862 5.00869 39.0855 5.27276 38.1848 5.53665C37.9319 5.61065 37.5399 5.64603 37.3731 5.89496C36.5027 7.19318 35.6324 8.4912 34.762 9.78943C30.949 15.4768 27.1361 21.1641 23.3231 26.8512C23.1423 27.1208 23.4449 27.2391 23.6455 27.2016C25.7776 26.8038 27.9098 26.4061 30.0421 26.0083C29.9346 25.8915 29.8271 25.7747 29.7198 25.6579C25.524 31.5319 21.3279 37.4059 17.1321 43.28C16.9485 43.5367 17.2553 43.6832 17.4543 43.6303C19.7133 43.0303 21.9723 42.4302 24.231 41.8302C24.1114 41.7348 23.9914 41.6391 23.8718 41.5433C19.5955 48.9349 15.3193 56.3265 11.0429 63.718C11.0401 63.7227 11.0374 63.7277 11.0346 63.7324C10.8459 64.0596 11.4838 64.08 11.6345 63.8196Z" fill="black"/>
<path d="M27 13.0056L18.4915 29.3827L24.6044 27.8331L15.6604 45.5781L21.8176 43.8545L17.3191 53C17.3191 53 1.99272 51.5115 5.53002 30.952C8.44984 13.9814 23.6074 13.0266 26.5165 13.0007C26.8286 12.9977 27 13.0056 27 13.0056Z" fill="#FBB040"/>
<path d="M25.788 13.4231C23.1119 18.7483 20.4359 24.0736 17.7597 29.3988C17.5174 29.8813 18.1823 29.9972 18.4468 29.9281C20.3693 29.4241 22.2919 28.9204 24.2146 28.4164C23.9857 28.2399 23.7566 28.0636 23.5276 27.8872C20.7146 33.6573 17.9016 39.4275 15.0884 45.1974C14.8549 45.6763 15.5041 45.8053 15.7754 45.7267C17.712 45.1662 19.6485 44.6056 21.5851 44.0453C21.3561 43.8688 21.1271 43.6925 20.898 43.5161C19.4832 46.4899 18.0685 49.4637 16.6535 52.4375C16.9166 52.3003 17.1795 52.1634 17.4426 52.0264C15.0992 51.7855 12.6472 50.4886 10.7904 48.8056C5.85334 44.3306 5.64496 36.558 6.86678 30.1392C8.05377 23.9034 11.5804 18.8274 16.7732 16.1816C19.6288 14.7266 22.9976 13.8684 26.1545 13.9814C26.4476 13.992 26.8022 13.8941 26.9436 13.57C27.0693 13.2823 26.8335 13.0209 26.5769 13.0117C22.7169 12.8733 18.6714 13.9721 15.2518 15.9342C12.6876 17.4057 10.4411 19.5163 8.7605 22.1365C6.5953 25.5122 5.57036 29.5434 5.15206 33.628C4.52727 39.7284 5.74632 46.1527 10.3322 49.9937C12.2081 51.5648 14.6616 52.7534 17.0203 52.9958C17.3172 53.0262 17.6626 52.8926 17.8094 52.5845C19.2243 49.6106 20.6391 46.6369 22.054 43.663C22.2825 43.1828 21.6419 43.0542 21.3669 43.1337C19.4303 43.6942 17.4939 44.2549 15.5573 44.8152C15.7862 44.9917 16.0154 45.168 16.2443 45.3444C19.0573 39.5742 21.8704 33.8041 24.6835 28.0341C24.9194 27.5503 24.2656 27.4344 23.9965 27.5048C22.0739 28.0088 20.1513 28.5126 18.2286 29.0165C18.4576 29.193 18.6867 29.3693 18.9157 29.5458C21.5918 24.2205 24.2678 18.8951 26.9439 13.5698C27.2748 12.9111 26.0441 12.9137 25.788 13.4231Z" fill="black"/>
<path d="M47.5073 28L36.4715 37.2146L39.8917 37.4182L21 53.6697C21 53.6697 35.9321 56.7057 45.1661 44.3698C47.6572 40.6706 50.9687 32.5625 47.5073 28Z" fill="#FBB040"/>
<path d="M47.3465 28.2809C43.5689 31.2609 39.7911 34.2409 36.0132 37.2208C35.6978 37.4697 36.0132 37.6387 36.2572 37.6523C37.428 37.7182 38.5989 37.7842 39.7697 37.8499C39.6882 37.7062 39.6069 37.5623 39.5257 37.4183C33.07 42.6649 26.6143 47.9112 20.1587 53.1577C20.1473 53.1669 20.1361 53.176 20.1246 53.1853C19.9131 53.3574 19.986 53.5605 20.2296 53.6069C24.3567 54.3919 28.8567 53.9329 32.8839 52.8345C36.5412 51.8368 39.9995 50.0393 42.9379 47.4887C46.0396 44.7968 48.2088 41.2552 49.3914 37.1663C50.263 34.1522 50.4021 30.6631 48.4309 28.1095C48.1799 27.7843 46.9749 28.252 47.2571 28.6174C50.0022 32.1739 48.4717 37.358 46.741 41.0245C44.8529 45.0243 41.6733 48.0283 38.0097 50.0962C33.0903 52.8727 27.1187 53.7495 21.6277 53.0235C21.4229 52.9963 21.2178 52.9675 21.0145 52.9288C21.0495 53.0693 21.0846 53.21 21.1195 53.3505C27.5752 48.1039 34.0308 42.8576 40.4864 37.6111C40.4979 37.602 40.5091 37.5927 40.5205 37.5835C40.8305 37.3317 40.5251 37.166 40.2765 37.1519C39.1057 37.086 37.9348 37.0201 36.764 36.9544C36.8455 37.0981 36.9268 37.242 37.008 37.3859C40.7857 34.406 44.5636 31.4259 48.3414 28.4461C48.553 28.2792 48.4806 28.0651 48.2364 28.0245C47.9318 27.9741 47.5917 28.0877 47.3465 28.2809Z" fill="black"/>
<path d="M19.148 11L23 13L19 11.8458L19.148 11Z" fill="black"/>
<path d="M17.1469 12L20 13L17 12.4448L17.1469 12Z" fill="black"/>
<path d="M15.2268 12L19 14L15 12.9383L15.2268 12Z" fill="black"/>
<path d="M14.1649 13L18 14L14 13.3973L14.1649 13Z" fill="black"/>
<path d="M11.1747 15L14 16L11 15.568L11.1747 15Z" fill="black"/>
<path d="M10.2009 15L14 17L10 15.9204L10.2009 15Z" fill="black"/>
<path d="M8.40667 17L12 19L8 17.9653L8.40667 17Z" fill="black"/>
<path d="M7.15855 19L9 20L7 19.5378L7.15855 19Z" fill="black"/>
<path d="M3.14257 26L6 27L3 26.5675L3.14257 26Z" fill="black"/>
<path d="M3.19104 27L6 28L3 27.4998L3.19104 27Z" fill="black"/>
<path d="M3.17223 28L5 29L3 28.662L3.17223 28Z" fill="black"/>
<path d="M2.19313 39L5 40L2 39.5127L2.19313 39Z" fill="black"/>
<path d="M3.17624 40L5 42L3 41.4722L3.17624 40Z" fill="black"/>
<path d="M3.18997 42L5 44L3 43.0965L3.18997 42Z" fill="black"/>
<path d="M3.42802 44L7 45L3 44.6255L3.42802 44Z" fill="black"/>
<path d="M5.15378 46L8 47L5 46.6825L5.15378 46Z" fill="black"/>
<path d="M6.26309 47L9 49L6 47.8441L6.26309 47Z" fill="black"/>
<path d="M8.17587 49L10 50L8 49.7785L8.17587 49Z" fill="black"/>
<path d="M12 51.5331L11.0893 51L11 51.4669L11.9107 52L12 51.5331Z" fill="black"/>
<path d="M45.823 29.5296C42.9477 32.0114 40.0726 34.493 37.1974 36.9748C36.6096 37.4821 37.1748 37.797 37.6726 37.8265C39.0559 37.9089 40.4393 37.9912 41.8228 38.0737C41.6643 37.7898 41.506 37.5059 41.3475 37.222C34.7395 42.4555 28.1314 47.689 21.5234 52.9226C21.43 52.9966 21.3368 53.0704 21.2436 53.1443C20.829 53.4724 20.9742 53.8966 21.4483 53.9762C22.0435 54.0765 22.7016 53.8501 23.1809 53.4704C29.789 48.2369 36.397 43.0034 43.005 37.7697C43.0984 37.6958 43.1917 37.622 43.2848 37.5481C43.9032 37.0584 43.2812 36.7246 42.8096 36.6964C41.4263 36.614 40.0429 36.5317 38.6594 36.4492C38.8179 36.7331 38.9762 37.017 39.1347 37.3009C42.0099 34.8191 44.8851 32.3375 47.7603 29.8557C48.1538 29.516 48.047 29.1064 47.5556 29.0237C46.9781 28.9265 46.2798 29.1351 45.823 29.5296Z" fill="black"/>
<path d="M16.9131 30.4132L22.9852 29.3007L15 46.1646L19.8833 44.7213L17.6192 51L21.7004 43.0703L16.9505 44.435L25 28.023L19.2282 28.7835L23.7497 18L16.9131 30.4132Z" fill="#FBE942"/>
<path d="M24.8023 16.4508C24.9363 16.3581 24.9627 16.2856 24.8956 16.2384L25 16C25 16 24.903 16.0885 24.7901 16.1985C23.3274 15.8736 10.8738 18.9063 8.53102 31.9915C5.31053 49.9788 17.7909 51 17.7909 51L20.1359 44.676L15.078 46.1298L23.3485 29.1448L17.0593 30.2656L24.1404 17.763" fill="#FFC229"/>
<path d="M41.0481 35.6577L43.618 35.7901C43.618 35.7901 44.5136 36.2442 43.5621 36.958C42.6106 37.6718 28 50 28 50L42.1936 36.6831L39.2514 36.6379L43.394 33L41.0481 35.6577Z" fill="#FBE942"/>
<path d="M47.1271 31L43.4396 34.0511L41.2885 36.0691L44.295 36.1958C44.295 36.1958 45.257 36.6387 44.2349 37.3349C43.4589 37.8635 34.226 44.9219 29.8253 48.2901L25 52C25 52 34.9214 51.6652 41.0751 46.5253C51.39 37.9093 47.1271 31 47.1271 31Z" fill="#FFC229"/>
<path d="M13 60L24.4867 41.1453L18.1654 42.7787L30.4605 25.3443L24.4938 26.4266L37.0678 7.25767L52 3L37.902 21.4693L43.2204 20.3875L28.0405 38.7408L32.8343 37.5367L13 60Z" fill="#EF4136"/>
<path d="M30.4081 25.6104L24.5919 26.7417L33 13L24 27L30.3003 25.7744L30.4081 25.6104Z" fill="#972724"/>
<path d="M24.8057 41.1645L18.5969 42.771L29 28L18 43L24.7517 41.2531L24.8057 41.1645Z" fill="#972724"/>
<path d="M40.2144 20.329L54 1L38.1225 5.72811L37.1816 7.15416L51.428 2.91184L37.7496 21.6263L42.9095 20.5302L28.1817 39.1271L32.8327 37.907L14.5331 59.5519L12 64L35.9144 36.0164L30.8167 37.3533L45.8692 19.1276L40.2144 20.329Z" fill="#972724"/>
</svg>
