<svg width="133" height="57" viewBox="0 0 133 57" fill="none" xmlns="http://www.w3.org/2000/svg">
<path d="M54.8844 25.3396L46.4066 24.1523L55.2435 16.7461L47.9043 17.9765L63.9072 1.65717L42.9848 6.05946L41.246 7.99335L25.6298 24.6749L24.9403 24.7618C26.9327 21.0405 27.9079 19.8578 32.0995 12.8633L22.8593 10.6322C22.8593 10.6322 22.4224 10.6849 21.676 10.8242C21.1237 10.8885 20.4474 11.0283 19.6821 11.2601C14.5869 12.5273 4.88627 16.0937 2.20387 25.2223C0.088898 32.4207 2.55978 37.9648 6.69817 41.3754C10.8997 45.5247 17.8107 46.6268 19.7453 46.8599L13.029 56.0458L13.8983 55.313L13.3132 56.0901L23.9494 47.1543C29.6145 48.0397 41.9483 48.5521 52.2554 39.1588C62.225 30.0734 54.8844 25.3396 54.8844 25.3396ZM19.6452 38.9687L20.0021 38.5791L25.9149 37.4859L25.2813 37.6496L25.2873 37.6409L19.6452 38.9687Z" fill="#FBB040"/>
<path d="M55.4006 24.9198C52.5746 24.5239 49.7489 24.1282 46.9229 23.7324C46.9855 23.9233 47.048 24.1144 47.1108 24.3051C50.0563 21.8365 53.002 19.3678 55.9476 16.8991C56.5375 16.4048 55.5285 16.2712 55.1105 16.3413C52.664 16.7514 50.2176 17.1615 47.7713 17.5717C48.0504 17.7576 48.3294 17.9436 48.6084 18.1295C53.9427 12.6899 59.2771 7.24995 64.6113 1.81032C65.1074 1.30447 64.2628 1.14976 63.7742 1.25253C59.1574 2.22396 54.5405 3.19538 49.9238 4.16682C47.7104 4.63256 45.4967 5.09831 43.2832 5.56406C41.8505 5.86552 41.1931 7.14118 40.3366 8.05594C35.1635 13.5821 29.9904 19.1082 24.8173 24.6342C25.1219 24.5011 25.4265 24.3676 25.7312 24.2345C25.5015 24.2636 25.2717 24.2923 25.0416 24.3214C25.2786 24.4821 25.5158 24.6426 25.7527 24.8035C27.9244 20.7571 30.5332 16.8709 32.9119 12.9051C33.0489 12.6766 32.8954 12.5113 32.6159 12.4438C30.2605 11.8749 27.905 11.3063 25.5495 10.7374C24.8381 10.5655 23.7336 10.0936 22.9606 10.1918C21.2035 10.415 19.5287 10.8322 17.8581 11.317C10.5463 13.4384 4.32012 17.7508 1.826 23.8778C-0.441305 29.4473 0.187885 35.9728 4.77394 40.6412C8.45948 44.3931 13.643 46.5964 19.4244 47.3058C19.2606 47.1438 19.097 46.9816 18.933 46.8195C16.6944 49.8814 14.4557 52.9434 12.2168 56.0053C11.7487 56.6454 13.4112 56.4709 13.7335 56.1991C14.0233 55.955 14.3131 55.7107 14.6029 55.4664C14.0972 55.4019 13.5917 55.3371 13.0861 55.2725C12.891 55.5316 12.696 55.7906 12.501 56.0496C12.0245 56.6826 13.6948 56.5149 14.0177 56.2434C17.5633 53.2649 21.1086 50.2863 24.654 47.3076C24.247 47.3969 23.8401 47.486 23.4331 47.575C30.6605 48.6904 38.128 47.7782 44.5789 44.867C49.2371 42.7649 53.4132 39.5274 56.1808 35.8132C57.9259 33.4712 58.9861 30.5936 57.9238 27.8982C57.4912 26.8006 56.6779 25.6983 55.5627 24.9724C55.0628 24.6467 53.4921 25.2428 54.206 25.7075C53.9419 25.5357 54.2823 25.7709 54.3412 25.8173C54.5617 25.9912 54.7625 26.1813 54.953 26.377C55.5659 27.0079 55.9973 27.7302 56.2825 28.4991C57.4 31.5126 55.6038 34.6107 53.5085 37.0302C47.9971 43.3935 38.9746 47.2928 29.4369 47.1519C28.2986 47.135 27.1618 47.0592 26.0329 46.9409C25.197 46.8532 23.9146 46.4399 23.2361 47.0099C22.2653 47.8254 21.2946 48.6412 20.3235 49.4567C17.7522 51.6172 15.1806 53.7774 12.6092 55.9379C13.1148 56.0024 13.6203 56.0672 14.126 56.1318C14.321 55.8727 14.516 55.6137 14.7111 55.3547C15.1871 54.7222 13.5172 54.8884 13.1943 55.1609C12.9046 55.405 12.6148 55.6493 12.325 55.8936C12.8307 55.9581 13.3361 56.0229 13.8417 56.0874C16.0805 53.0256 18.3192 49.9635 20.5581 46.9016C20.7839 46.5926 20.3636 46.4517 20.0667 46.4152C16.5323 45.9814 13.0499 44.8712 10.1614 43.1495C6.52407 40.9813 3.87841 37.6436 2.83533 34.0866C1.62461 29.9587 2.42282 25.2785 4.68258 21.4803C6.50222 18.4218 9.48531 15.9694 12.9856 14.1757C14.6904 13.3022 16.5293 12.6094 18.4165 12.0438C19.3577 11.7618 20.3315 11.4881 21.3061 11.3036C21.6824 11.2325 22.0687 11.1818 22.4475 11.118C22.8417 11.0516 22.713 11.142 22.3634 11.0575C22.5142 11.0941 22.665 11.1305 22.8156 11.1668C25.7382 11.8725 28.6607 12.5782 31.5834 13.2838C31.4847 13.1301 31.386 12.9762 31.2875 12.8225C28.9088 16.7884 26.3 20.6746 24.1282 24.7209C23.9241 25.1016 24.4548 25.2515 24.8393 25.203C25.6296 25.1035 26.1888 24.9876 26.6726 24.4709C27.1374 23.9743 27.6021 23.478 28.0668 22.9816C29.7886 21.1421 31.5105 19.3029 33.2323 17.4636C36.1599 14.3362 39.0876 11.2087 42.0154 8.08126C42.6244 7.43076 43.2042 6.76098 43.7978 6.1009C43.5712 6.22218 43.3446 6.34341 43.1181 6.4647C50.0923 4.99733 57.0664 3.5298 64.0405 2.06243C63.7615 1.87656 63.4824 1.69051 63.2034 1.50464C57.8691 6.94444 52.5347 12.3842 47.2005 17.824C46.6927 18.3417 47.558 18.4621 48.0377 18.3818C50.4841 17.9717 52.9306 17.5616 55.3768 17.1514C55.0978 16.9655 54.8187 16.7795 54.5397 16.5936C51.5941 19.0623 48.6484 21.531 45.7029 23.9998C45.4587 24.2043 45.5003 24.5178 45.8907 24.5725C48.7167 24.9683 51.5425 25.3641 54.3685 25.7598C54.7931 25.8193 55.272 25.7504 55.5894 25.4925C55.838 25.2899 55.7869 24.9738 55.4006 24.9198Z" fill="black"/>
<path d="M20.4579 39.0102C20.5769 38.8801 20.6959 38.7503 20.8148 38.6206C20.5882 38.7418 20.3616 38.8631 20.1352 38.9844C22.1062 38.6199 24.0772 38.2556 26.0479 37.8911C25.9594 37.6212 25.871 37.3511 25.7824 37.0811C25.5713 37.1356 25.36 37.1902 25.1488 37.2447C25.4638 37.3934 25.7791 37.5423 26.094 37.691C26.096 37.6881 26.098 37.6854 26.1 37.6824C26.4267 37.2097 25.4875 37.1579 25.1548 37.2361C23.274 37.6788 21.3934 38.1214 19.5127 38.564C18.4736 38.8087 18.7322 39.6204 19.7783 39.3741C21.6591 38.9314 23.5398 38.4889 25.4203 38.0462C25.1054 37.8975 24.7902 37.7486 24.4751 37.5999C24.4732 37.6029 24.4712 37.6056 24.4692 37.6086C24.1459 38.0765 25.0793 38.1414 25.4144 38.0548C25.6255 38.0003 25.8369 37.9457 26.0479 37.8911C27.0813 37.6243 26.842 36.8852 25.7824 37.0811C24.5423 37.3103 23.3024 37.5396 22.0625 37.7687C21.3964 37.892 20.7302 38.0152 20.0639 38.1382C19.4625 38.2496 19.1869 38.5413 18.8329 38.9277C18.5735 39.211 19.0522 39.4001 19.3243 39.414C19.7552 39.4363 20.1982 39.2936 20.4579 39.0102Z" fill="black"/>
<path d="M54.8835 24.853L45.848 23.5876L35.5867 32.1446L40.8331 32.7867L20.822 46.0096C20.822 46.0096 38.3769 51.3198 52.2547 38.6724C62.224 29.5868 54.8835 24.853 54.8835 24.853Z" fill="black"/>
<path d="M55.1049 24.7172C52.8549 24.4021 50.6049 24.0868 48.3549 23.7717C47.593 23.6651 46.8313 23.5585 46.0695 23.4518C45.5857 23.3839 45.1624 23.8993 44.8783 24.1363C41.6739 26.8084 38.4695 29.4805 35.2652 32.1525C35.1796 32.224 35.288 32.2709 35.3659 32.2805C36.5236 32.4222 37.6813 32.5639 38.839 32.7055C39.3833 32.7722 39.9277 32.8388 40.4723 32.9053C40.629 32.9244 40.6433 32.7034 40.4064 32.86C38.9513 33.8215 37.4962 34.7831 36.0412 35.7446C31.4442 38.7821 26.8474 41.8196 22.2504 44.8573C21.683 45.2323 21.1154 45.6072 20.5478 45.9823C20.4802 46.0269 20.427 46.1006 20.5388 46.1344C24.4492 47.31 28.9971 47.4555 33.0878 47.0964C42.2745 46.2902 50.8877 41.7215 55.6894 35.2774C57.9583 32.2324 59.1788 27.3317 55.2116 24.7485C55.0408 24.6371 54.4052 24.86 54.5558 24.9581C55.6233 25.6532 56.3426 26.7472 56.7528 27.7877C57.9343 30.7852 56.2511 33.9234 54.1903 36.3711C48.7084 42.8826 39.6221 46.942 29.961 46.9777C27.4305 46.9871 24.8756 46.7337 22.4262 46.2105C21.991 46.1177 21.5567 46.0162 21.1325 45.8931C21.2048 45.9141 20.9953 46.1044 21.2209 45.9553C21.4151 45.8269 21.6094 45.6987 21.8035 45.5703C26.1338 42.7089 30.4641 39.8475 34.7943 36.9861C36.8988 35.5956 39.0032 34.205 41.1079 32.8144C41.2175 32.742 41.195 32.6683 41.0543 32.6511C39.3521 32.4428 37.6499 32.2345 35.9481 32.0261C35.7335 31.9998 35.8583 32.1789 35.9953 32.0646C36.1591 31.9279 36.3228 31.7912 36.4867 31.6546C37.0998 31.1436 37.7129 30.6323 38.3257 30.121C40.9404 27.9407 43.5551 25.7603 46.1698 23.58C45.9888 23.6279 45.8079 23.6759 45.627 23.7238C48.6388 24.1457 51.6508 24.5675 54.6625 24.9892C54.8468 25.0147 55.4821 24.7699 55.1049 24.7172Z" fill="black"/>
<path d="M31.3995 12.3977L23.0198 24.517L33.6664 23.1757L19.4818 38.6593L27.1244 36.687L20.2624 46.4282C20.2624 46.4282 -1.1877 44.7506 4.24979 27.6785C8.64694 13.873 19.1398 10.3158 22.3188 10.2944C22.6593 10.2921 31.3995 12.3977 31.3995 12.3977Z" fill="black"/>
<path d="M31.0751 12.3974C28.2818 16.4372 25.4886 20.4769 22.6954 24.5167C22.5951 24.6618 22.8484 24.6792 22.9683 24.6641C26.5173 24.217 30.0662 23.7699 33.6149 23.3229C33.5239 23.2737 33.433 23.2246 33.342 23.1754C28.6138 28.3366 23.8855 33.4978 19.1575 38.6591C19.0027 38.8279 19.4347 38.8141 19.5251 38.7909C22.0726 38.1334 24.6202 37.4758 27.1677 36.8185C27.0452 36.7745 26.9226 36.7306 26.8001 36.6867C24.5127 39.9337 22.2253 43.1808 19.938 46.4279C20.1185 46.3788 20.299 46.3298 20.4798 46.2808C17.5692 46.0497 14.6228 45.2139 12.0617 44.0909C9.77026 43.086 7.73708 41.6944 6.24853 39.9443C4.40167 37.7727 3.68311 35.1313 3.72005 32.5165C3.77506 28.6261 5.4243 24.6508 7.46576 21.1784C9.16967 18.2807 11.515 15.597 14.5145 13.5031C16.3424 12.2271 18.4982 11.1214 20.841 10.6152C22.791 10.194 24.8762 11.0457 26.8028 11.5008C28.2425 11.8408 29.6811 12.1841 31.1186 12.5303C31.3198 12.5787 31.9519 12.3303 31.6802 12.2649C29.3009 11.6918 26.9196 11.1228 24.5317 10.5737C23.7959 10.4045 22.9683 10.1092 22.1904 10.1511C21.4291 10.192 20.6801 10.349 19.9596 10.5475C14.0749 12.1688 9.74165 16.4711 7.01317 20.8497C4.87475 24.2815 3.30476 28.2084 3.04319 32.0709C2.86663 34.6784 3.47993 37.3016 5.12182 39.5592C7.55599 42.906 11.965 44.941 16.4417 45.9704C17.6152 46.2402 18.8281 46.4787 20.0448 46.5753C20.2061 46.5881 20.4939 46.5599 20.5866 46.4282C22.874 43.1811 25.1614 39.9341 27.4487 36.687C27.5728 36.5107 27.1933 36.5263 27.0811 36.5552C24.5335 37.2127 21.986 37.8703 19.4385 38.5276C19.561 38.5716 19.6836 38.6154 19.8061 38.6594C24.5343 33.4982 29.2626 28.337 33.9906 23.1758C34.1187 23.0362 33.8151 23.0162 33.7178 23.0284C30.1689 23.4754 26.6199 23.9226 23.0712 24.3696C23.1621 24.4188 23.2532 24.4678 23.3441 24.517C26.1373 20.4772 28.9305 16.4375 31.7237 12.3977C31.8792 12.1727 31.1797 12.2459 31.0751 12.3974Z" fill="black"/>
<path d="M32.0995 12.3766L22.8593 10.1455C22.8593 10.1455 5.89303 12.1814 2.20409 24.7356C-1.48486 37.2902 8.77341 44.8158 17.5045 44.759C16.1529 42.6287 19.8289 34.0862 24.3594 25.377C26.7804 20.722 27.521 20.0171 32.0995 12.3766Z" fill="black"/>
<path d="M32.3784 12.2561C30.0229 11.6875 27.6675 11.1186 25.3119 10.5498C24.6452 10.3887 23.7113 9.99103 23.0018 10.0126C22.6667 10.0227 22.3195 10.1066 21.9946 10.1636C16.969 11.0439 12.1033 12.9649 8.30396 15.8058C1.9932 20.5243 -0.494562 28.4147 2.03412 35.0787C4.09229 40.5031 10.2426 44.8939 17.3617 44.8918C17.4354 44.8918 17.9227 44.81 17.8485 44.6836C17.4037 43.9269 17.5526 42.9799 17.6805 42.1799C17.9092 40.7492 18.392 39.3425 18.8928 37.9625C20.3068 34.0633 22.1733 30.269 24.0887 26.5198C26.5674 21.6678 29.6116 17.0507 32.4412 12.3333C32.5145 12.2111 31.8525 12.2631 31.7583 12.4202C28.87 17.236 25.785 21.9496 23.255 26.9024C21.3511 30.6293 19.5317 34.4058 18.1263 38.2809C17.6336 39.6396 17.1971 41.0229 16.972 42.4298C16.8489 43.1995 16.7361 44.112 17.1607 44.8345C17.3229 44.7651 17.4852 44.6957 17.6475 44.6263C9.83799 44.6287 3.74711 39.2433 2.2063 33.3043C0.369581 26.2248 3.92327 18.6946 10.9766 14.4141C14.3092 12.3917 18.3559 10.955 22.4398 10.323C22.5467 10.3065 22.6538 10.291 22.761 10.2769C22.7135 10.2833 22.4798 10.2418 22.8192 10.3238C23.8118 10.5634 24.8043 10.8032 25.7968 11.0428C27.8049 11.5277 29.8128 12.0126 31.8209 12.4974C31.9984 12.54 32.6171 12.3137 32.3784 12.2561Z" fill="black"/>
<path d="M29.7506 12.688L20.4538 26.2228L27.1332 24.9418L17.3607 39.6071L24.0885 38.1825L19.1734 45.7408C19.1734 45.7408 2.42658 44.5103 6.29148 27.5194C9.48191 13.4942 26.0444 12.7054 29.2229 12.684C29.5638 12.6814 29.7506 12.688 29.7506 12.688Z" fill="black"/>
<path d="M29.4279 12.6908C26.329 17.2023 23.2301 21.714 20.1311 26.2255C20.0089 26.4034 20.3872 26.3698 20.4959 26.3489C22.7223 25.9219 24.9487 25.4948 27.1753 25.0679C27.0452 25.0393 26.9151 25.0107 26.785 24.9824C23.5275 29.8708 20.2699 34.7593 17.0126 39.6477C16.9213 39.7845 17.3587 39.7426 17.4028 39.7332C19.6455 39.2583 21.888 38.7833 24.1306 38.3086C24.0005 38.2801 23.8705 38.2515 23.7403 38.2233C22.1019 40.7427 20.4635 43.2621 18.8252 45.7815C19.0145 45.7202 19.2035 45.6588 19.3926 45.5974C16.5583 45.3844 13.6825 44.268 11.501 42.8213C5.76059 39.015 5.39357 32.5178 6.75165 27.0187C8.08632 21.6151 12.1685 17.1265 18.3042 14.7935C21.7505 13.4831 25.7906 12.7333 29.61 12.8357C29.8504 12.8422 30.3648 12.5533 29.8924 12.5406C25.5527 12.4242 20.9938 13.3601 17.1405 14.9459C14.2301 16.1437 11.6825 17.8805 9.75399 20.0283C7.21204 22.8593 6.02852 26.2892 5.5457 29.7382C4.83608 34.8075 6.17807 40.1892 11.3984 43.388C13.5224 44.6896 16.2832 45.6831 18.9551 45.8841C19.15 45.8987 19.4227 45.8539 19.5225 45.7C21.161 43.1806 22.7994 40.6612 24.4377 38.1417C24.5273 38.0042 24.0927 38.0466 24.0474 38.0564C21.8047 38.5312 19.5623 39.0062 17.3196 39.4808C17.4497 39.5095 17.5797 39.538 17.7098 39.5663C20.9674 34.6779 24.225 29.7895 27.4823 24.901C27.5739 24.7635 27.1352 24.8073 27.0921 24.8156C24.8657 25.2425 22.6392 25.6697 20.4127 26.0966C20.5343 26.1377 20.656 26.1789 20.7775 26.22C23.8764 21.7085 26.9753 17.1969 30.0744 12.6853C30.2255 12.4659 29.5284 12.5443 29.4279 12.6908Z" fill="black"/>
<path d="M53.4604 25.2145L40.8333 32.7868L44.7467 32.9542L23.1306 46.3097C23.1306 46.3097 40.2163 48.8043 50.782 38.6668C53.632 35.6265 57.4209 28.9634 53.4604 25.2145Z" fill="black"/>
<path d="M53.1929 25.2073C48.9838 27.7313 44.7749 30.2553 40.5659 32.7795C40.4618 32.8419 40.4655 32.8967 40.6063 32.9028C41.8143 32.9544 43.022 33.0061 44.23 33.0578C44.5437 33.0712 44.4983 32.9345 44.3342 33.0359C44.1548 33.1467 43.9755 33.2574 43.7964 33.3683C42.0135 34.4698 40.2305 35.5712 38.4477 36.6729C33.7653 39.5657 29.0831 42.4587 24.4007 45.3516C23.8718 45.6784 23.3429 46.0052 22.8142 46.332C22.7589 46.366 22.7797 46.4107 22.8431 46.4199C27.3034 47.0649 32.1522 46.7008 36.5136 45.8235C40.426 45.0365 44.1282 43.6216 47.3199 41.6078C50.8765 39.3636 53.3581 36.4042 54.7502 32.9173C55.7786 30.3415 56.0282 27.3203 53.7915 25.1173C53.6829 25.0105 53.0253 25.2079 53.1308 25.3116C56.2173 28.3517 54.5337 32.7691 52.5846 35.9084C50.4507 39.3455 46.8738 41.9475 42.7279 43.7266C37.1104 46.1373 30.3083 46.9188 24.0345 46.2724C23.8526 46.2537 23.671 46.2328 23.4901 46.2089C23.3897 46.1956 23.4113 46.3099 23.5444 46.2277C24.0122 45.9386 24.4802 45.6495 24.9483 45.3602C27.0353 44.0709 29.1222 42.7813 31.2092 41.492C35.5965 38.7813 39.9837 36.0706 44.3709 33.36C44.6021 33.2172 44.8333 33.0743 45.0643 32.9315C45.1612 32.8717 45.0347 32.8404 44.9749 32.8379C44.1296 32.8017 43.2844 32.7657 42.4391 32.7295C42.0165 32.7113 41.5938 32.6931 41.1712 32.6751C41.0751 32.6711 41.0395 32.8313 41.2655 32.6957C42.5614 31.9187 43.8573 31.1415 45.1533 30.3644C48.0121 28.65 50.8706 26.9359 53.7292 25.2216C54.0129 25.0516 53.3131 25.135 53.1929 25.2073Z" fill="black"/>
<path d="M21.4959 10.9312L26.315 12.3301L21.3022 11.5028L21.4959 10.9312Z" fill="black"/>
<path d="M19.7791 11.4355L23.7819 12.7142L19.573 12.0044L19.7791 11.4355Z" fill="black"/>
<path d="M18.1112 11.8263L21.67 13.0346L17.8972 12.3934L18.1112 11.8263Z" fill="black"/>
<path d="M16.5979 12.2007L21.3181 13.6341L16.3948 12.7701L16.5979 12.2007Z" fill="black"/>
<path d="M53.7424 25.3656L46.6884 24.3883L36.7769 32.6606L40.1171 32.6517L22.467 45.8393C22.467 45.8393 37.3322 47.0299 41.0663 43.67C44.8007 40.3102 53.7424 25.3656 53.7424 25.3656Z" fill="#F7941E"/>
<path d="M54.0301 25.2529C52.0109 24.9732 49.9917 24.6935 47.9723 24.4138C47.5722 24.3582 46.7256 24.1124 46.3711 24.4084C46.0096 24.71 45.6479 25.012 45.2864 25.3136C42.3443 27.7692 39.4019 30.2249 36.4598 32.6806C36.3825 32.7449 36.4716 32.7805 36.5511 32.7803C37.6597 32.7772 38.7684 32.7743 39.877 32.7714C39.6917 32.7718 39.8291 32.6498 39.5775 32.8378C39.3459 33.0106 39.1143 33.1839 38.8827 33.3568C36.9951 34.7671 35.1074 36.1776 33.2198 37.5879C29.5488 40.3308 25.8777 43.0737 22.2066 45.8165C22.1876 45.8308 22.1687 45.8449 22.1496 45.8592C22.0615 45.925 22.1721 45.9533 22.241 45.9589C24.2702 46.1199 26.319 46.1683 28.3565 46.1631C31.6641 46.1547 35.0917 45.9974 38.253 45.141C39.4321 44.8217 40.6178 44.3493 41.4581 43.5832C42.2632 42.8493 42.9305 42.0076 43.5826 41.1817C45.5309 38.7144 47.2485 36.1217 48.9396 33.5329C50.7128 30.8188 52.4344 28.0798 54.0887 25.316C54.1444 25.2232 53.4852 25.2672 53.3968 25.4149C51.0439 29.3457 48.5774 33.2382 45.9599 37.0556C44.4587 39.2451 42.9518 41.5469 40.9731 43.4803C38.8794 45.5261 34.7124 45.697 31.7074 45.8501C28.8816 45.9939 26.0308 45.9375 23.2092 45.7561C23.0386 45.7453 22.868 45.7334 22.6976 45.7201C22.905 45.7365 22.7864 45.819 23.0457 45.6253C23.6281 45.1901 24.2106 44.755 24.7929 44.3197C29.1689 41.0501 33.5445 37.7806 37.9205 34.5112C38.759 33.8847 39.5973 33.2582 40.4357 32.6317C40.5195 32.5691 40.4178 32.5319 40.3443 32.5321C39.5984 32.5342 38.8523 32.536 38.1064 32.5381C37.7576 32.5391 37.4091 32.54 37.0604 32.5408C37.1432 32.5407 37.045 32.683 37.2536 32.509C38.2843 31.6486 39.3153 30.7882 40.3461 29.928C42.5663 28.0749 44.7868 26.2218 47.007 24.3686C46.8052 24.4128 46.6034 24.4571 46.4018 24.5012C48.7531 24.8269 51.1045 25.1527 53.4558 25.4785C53.6232 25.5017 54.229 25.2804 54.0301 25.2529Z" fill="black"/>
<path d="M13.0288 55.5592L26.7059 36.8529L18.1783 38.4293L33.4532 23.2638L25.3731 24.462L42.418 6.25437L62.6742 1.84265L46.6716 18.1618L54.0109 16.9318L35.5634 32.3925L42.0873 31.0659L13.0288 55.5592Z" fill="black"/>
<path d="M13.38 55.5695C17.9376 49.336 22.4953 43.1023 27.0532 36.8687C27.0545 36.867 27.056 36.8651 27.0571 36.8634C27.2059 36.66 26.7787 36.6687 26.6522 36.692C23.8097 37.2174 20.967 37.7429 18.1246 38.2684C18.2596 38.3256 18.3944 38.3827 18.5295 38.4399C23.6212 33.3845 28.7127 28.3295 33.8045 23.2742C33.9552 23.1245 33.6106 23.0705 33.5017 23.0868C30.8082 23.4861 28.1149 23.8856 25.4216 24.2849C25.5225 24.3475 25.6234 24.4101 25.7243 24.4724C31.3535 18.4593 36.9824 12.4463 42.6115 6.43318C42.9553 6.0658 42.194 6.47585 42.7003 6.36561C43.2933 6.23639 43.8866 6.10717 44.4796 5.97812C46.8359 5.46482 49.1924 4.95167 51.5487 4.43852C55.2746 3.62699 59.0004 2.81546 62.7261 2.0041C62.5911 1.94696 62.4562 1.88981 62.3212 1.83284C56.9869 7.27261 51.6527 12.7124 46.3185 18.152C46.1296 18.3448 46.6278 18.3393 46.7235 18.3234C49.1699 17.9133 51.6162 17.5033 54.0627 17.0932C53.9437 17.021 53.8249 16.9486 53.7059 16.8763C47.5568 22.0299 41.4078 27.1835 35.2586 32.3371C35.01 32.5455 35.4378 32.59 35.6154 32.5539C37.7899 32.1117 39.9647 31.6696 42.1392 31.2274C42.0203 31.1551 41.9015 31.0827 41.7825 31.0105C35.0539 36.6822 28.3251 42.3536 21.5964 48.0254C18.6389 50.5181 15.6815 53.0111 12.724 55.5038C12.4124 55.7664 13.1512 55.7673 13.3317 55.6152C20.0604 49.9434 26.7892 44.272 33.5178 38.6002C36.4753 36.1075 39.4328 33.6145 42.3902 31.1218C42.6381 30.913 42.2117 30.8687 42.0336 30.9049C39.859 31.3471 37.6843 31.7894 35.5097 32.2316C35.6287 32.3038 35.7474 32.3762 35.8664 32.4485C42.0155 27.2949 48.1646 22.1413 54.3137 16.9877C54.5667 16.7755 54.1304 16.7418 53.957 16.7708C51.5105 17.1809 49.0642 17.591 46.6178 18.001C46.7528 18.0582 46.8877 18.1153 47.0228 18.1725C52.357 12.7327 57.6912 7.29288 63.0254 1.85313C63.2107 1.66416 62.7211 1.65994 62.6205 1.68186C57.9675 2.69534 53.3147 3.70865 48.6617 4.72212C46.625 5.16563 44.5883 5.6093 42.5516 6.05281C41.7335 6.23104 41.1672 7.20362 40.6886 7.71498C35.4658 13.294 30.243 18.8731 25.0202 24.4524C24.8777 24.6046 25.2077 24.657 25.3229 24.6398C28.0165 24.2405 30.7097 23.841 33.403 23.4416C33.3022 23.3791 33.2013 23.3165 33.1004 23.2541C28.0087 28.3095 22.9172 33.3645 17.8254 38.4197C17.6342 38.6096 18.1353 38.6087 18.2304 38.5911C21.0729 38.0657 23.9156 37.5401 26.7581 37.0147C26.623 36.9575 26.4881 36.9004 26.3531 36.8433C21.7954 43.0768 17.2378 49.3105 12.6799 55.5441C12.6785 55.5459 12.6772 55.5476 12.6759 55.5494C12.4889 55.8054 13.2487 55.7493 13.38 55.5695Z" fill="black"/>
<path d="M13.3127 55.6037L27.938 36.1806L19.4104 37.7572L34.6853 22.5916L26.6051 23.7899L42.9841 5.57281L63.9064 1.17053L47.9037 17.4898L55.2428 16.2595L36.7957 31.72L43.3194 30.3938L13.3127 55.6037Z" fill="black"/>
<path d="M13.6744 55.6425C18.5113 49.2192 23.348 42.7958 28.1847 36.3724C28.223 36.3214 28.2616 36.2705 28.2999 36.2195C28.4655 35.9997 28.0296 35.9318 27.8668 35.9618C25.0242 36.4874 22.1815 37.0132 19.3391 37.5386C19.4686 37.6435 19.5982 37.7485 19.7279 37.8534C24.8197 32.7982 29.9112 27.743 35.0029 22.6878C35.2402 22.4523 34.842 22.3393 34.614 22.373C31.9205 22.7724 29.2272 23.1719 26.5339 23.5713C26.6634 23.6761 26.793 23.7812 26.9227 23.886C32.3529 17.8464 37.783 11.8069 43.2132 5.76735C43.3643 5.59933 43.294 5.74121 43.0654 5.78943C43.1869 5.76394 43.3083 5.73829 43.4296 5.7128C44.1224 5.56703 44.8153 5.42125 45.5081 5.27547C47.9227 4.76735 50.3376 4.25923 52.7523 3.75112C56.4942 2.96378 60.2362 2.17644 63.9782 1.3891C63.8487 1.28423 63.719 1.1792 63.5893 1.07433C58.2551 6.51411 52.9207 11.954 47.5865 17.3937C47.3569 17.6278 47.7414 17.7477 47.9753 17.7084C50.4218 17.2983 52.8681 16.8881 55.3145 16.4781C55.185 16.3732 55.0553 16.2682 54.9256 16.1633C48.7766 21.3169 42.6277 26.4705 36.4785 31.6238C36.2192 31.8412 36.6529 31.9823 36.8674 31.9386C39.042 31.4964 41.2166 31.0546 43.3911 30.6123C43.2616 30.5075 43.1319 30.4024 43.0022 30.2976C36.3006 35.9279 29.5992 41.5581 22.8976 47.1883C19.5969 49.9613 16.2963 52.7344 12.9956 55.5075C12.6629 55.787 13.387 55.9039 13.6297 55.7C20.3313 50.0696 27.0327 44.4394 33.7344 38.8093C37.0351 36.0362 40.3357 33.2632 43.6364 30.4901C43.8953 30.2725 43.4622 30.1316 43.2475 30.1753C41.0729 30.6175 38.8984 31.0594 36.7238 31.5016C36.8533 31.6065 36.983 31.7115 37.1127 31.8164C43.2618 26.6628 49.4107 21.5094 55.5598 16.3558C55.8247 16.1338 55.3801 16.006 55.1709 16.041C52.7245 16.4511 50.2783 16.8614 47.8318 17.2714C47.9613 17.3763 48.0909 17.4813 48.2206 17.5862C53.5549 12.1464 58.8892 6.7065 64.2235 1.26686C64.4469 1.03894 64.0733 0.901764 63.8346 0.952089C59.2177 1.92352 54.6011 2.89495 49.9843 3.86637C47.7708 4.33212 45.5573 4.79787 43.3436 5.26362C42.4461 5.45258 42.1073 6.09919 41.5706 6.69593C36.4764 12.3618 31.382 18.0279 26.2878 23.694C26.0713 23.9347 26.4334 24.0448 26.6767 24.0088C29.3702 23.6094 32.0635 23.2099 34.7568 22.8105C34.6273 22.7057 34.4976 22.6006 34.3679 22.4957C29.2763 27.551 24.1847 32.6062 19.093 37.6614C18.8611 37.8917 19.2494 38.0191 19.4819 37.9761C22.3244 37.4507 25.1671 36.9248 28.0095 36.3993C27.8651 36.3135 27.7207 36.2274 27.5764 36.1417C22.7395 42.5651 17.9028 48.9885 13.0661 55.4118C13.0278 55.4628 12.9892 55.5138 12.9509 55.5648C12.7275 55.8618 13.4963 55.8792 13.6744 55.6425Z" fill="black"/>
<path d="M28.7814 12.6955L19.4848 26.2305L26.1641 24.9494L16.3912 39.6147L23.1189 38.1905L18.204 45.7488C18.204 45.7488 1.45695 44.5183 5.32205 27.5274C8.51267 13.5017 25.075 12.7128 28.2537 12.6913C28.5945 12.689 28.7814 12.6955 28.7814 12.6955Z" fill="black"/>
<path d="M28.4339 12.7397C25.335 17.2514 22.2361 21.7629 19.1372 26.2746C19.0506 26.4004 19.4866 26.3481 19.5213 26.3415C21.7477 25.9145 23.9743 25.4876 26.2007 25.0605C26.0726 25.0382 25.9445 25.016 25.8166 24.9936C22.559 29.882 19.3014 34.7705 16.0437 39.6588C15.9597 39.785 16.3907 39.7337 16.4278 39.7257C18.6704 39.2511 20.913 38.7762 23.1554 38.3015C23.0273 38.2793 22.8993 38.257 22.7713 38.2347C21.133 40.7541 19.4947 43.2735 17.8564 45.7929C18.0463 45.7339 18.2361 45.6746 18.426 45.6155C15.5902 45.4024 12.7142 44.2798 10.5321 42.8328C4.79057 39.0257 4.42216 32.522 5.78044 27.0225C7.11111 21.6347 11.1565 17.1811 17.2461 14.8192C20.6746 13.4894 24.7451 12.7281 28.5594 12.8283C28.7334 12.8329 29.3693 12.5718 29.0033 12.5622C24.6925 12.4491 20.1845 13.3466 16.3382 14.8986C13.4284 16.0728 10.8668 17.7767 8.91622 19.8985C6.34646 22.6942 5.12642 26.0856 4.60964 29.5168C3.83586 34.653 5.12106 40.1405 10.4272 43.392C12.5506 44.6931 15.3117 45.6807 17.9819 45.8814C18.1604 45.8949 18.4584 45.847 18.5515 45.704C20.1898 43.1845 21.8282 40.6652 23.4665 38.1457C23.5491 38.0188 23.1205 38.0707 23.0824 38.0788C20.8396 38.5535 18.5972 39.0283 16.3547 39.503C16.4828 39.5253 16.6109 39.5475 16.7389 39.5699C19.9964 34.6814 23.254 29.793 26.5117 24.9046C26.5963 24.7778 26.1637 24.8307 26.1276 24.8377C23.9012 25.2647 21.6746 25.6916 19.4482 26.1187C19.5764 26.141 19.7045 26.1632 19.8324 26.1856C22.9312 21.6739 26.0301 17.1624 29.129 12.6507C29.2062 12.5389 28.5411 12.5835 28.4339 12.7397Z" fill="black"/>
<path d="M30.7794 12.5512L23.5503 10.8449C23.5503 10.8449 7.33595 12.6397 3.64719 25.194C-0.0417467 37.7488 10.2167 45.2743 18.9477 45.2173C16.8738 41.9488 3.17173 16.9157 30.7794 12.5512Z" fill="#F7941E"/>
<path d="M31.0586 12.4305C28.749 11.8854 26.4394 11.3402 24.1298 10.7951C23.2385 10.5847 22.1378 10.9446 21.2772 11.132C15.6272 12.3614 10.3165 14.9643 6.84518 18.8599C2.25515 24.0112 1.08536 31.5895 4.37132 37.4059C6.93714 41.9472 12.5816 45.3521 18.805 45.3501C18.8753 45.3501 19.3702 45.2658 19.2917 45.1419C17.6083 42.4799 16.3826 39.5812 15.457 36.6888C14.0535 32.302 13.3969 27.5222 14.9569 23.1032C15.8032 20.7058 17.4044 18.5455 19.6407 16.8458C22.676 14.5388 26.7174 13.3229 30.7224 12.6771C31.0151 12.6299 31.3144 12.3482 30.836 12.4253C24.3974 13.4636 18.2373 15.9836 15.286 21.0074C12.859 25.1386 13.0622 30.0128 14.0926 34.4086C14.9671 38.1389 16.4642 41.9104 18.6032 45.2929C18.7654 45.2234 18.9277 45.1541 19.0899 45.0846C11.2803 45.0874 5.18959 39.7018 3.64879 33.7628C1.81842 26.7068 5.3453 19.0589 12.4182 14.8016C15.4576 12.9722 19.0951 11.6798 22.7972 11.0712C23.0257 11.0337 23.2556 10.9985 23.4863 10.9717C23.111 11.0154 23.4405 11.0055 23.6582 11.0569C24.0982 11.1608 24.5382 11.2647 24.9782 11.3685C26.819 11.8029 28.6595 12.2373 30.5 12.6717C30.6789 12.7136 31.2967 12.4866 31.0586 12.4305Z" fill="black"/>
<path d="M14.421 54.6218C19.2175 48.4466 24.0141 42.2714 28.8109 36.0962C28.8141 36.0924 28.817 36.0881 28.8202 36.0842C28.9773 35.8821 28.567 35.8151 28.4172 35.8446C25.8834 36.3459 23.3496 36.8472 20.8159 37.3485C20.9364 37.4461 21.057 37.5437 21.1773 37.6412C25.8838 32.7339 30.5904 27.8266 35.2968 22.9191C35.5105 22.6966 35.1522 22.5964 34.9354 22.6264C32.5437 22.9587 30.152 23.291 27.7604 23.6233C27.881 23.7209 28.0015 23.8185 28.1221 23.916C33.3874 18.0668 38.6527 12.2175 43.918 6.36797C43.8104 6.48749 43.5871 6.50013 43.8226 6.44865C43.9937 6.41151 44.1644 6.37414 44.3355 6.33683C44.998 6.19215 45.6603 6.04754 46.3229 5.90286C48.4075 5.44785 50.4923 4.99282 52.5769 4.53763C55.6015 3.8774 58.626 3.21717 61.6505 2.55679C61.5299 2.45922 61.4093 2.36149 61.289 2.26393C56.0921 7.60563 50.8953 12.9475 45.6983 18.2893C45.4846 18.5091 45.8429 18.6159 46.06 18.582C48.1918 18.25 50.3237 17.9178 52.4554 17.5859C52.3348 17.4883 52.2142 17.3905 52.0937 17.293C46.4192 22.3298 40.7446 27.3669 35.0702 32.4037C34.8367 32.6109 35.2277 32.7357 35.4316 32.6964C37.3534 32.3271 39.2751 31.9574 41.1969 31.5879C41.0763 31.4904 40.9557 31.3929 40.8352 31.2952C34.0768 37.0929 27.3184 42.8906 20.5599 48.6881C18.3031 50.6242 16.0464 52.5601 13.7896 54.4959C13.4831 54.7589 14.1556 54.8669 14.3796 54.6748C21.138 48.8773 27.8965 43.0796 34.6549 37.2819C36.9117 35.3459 39.1684 33.4101 41.4253 31.4742C41.6644 31.2692 41.264 31.143 41.0636 31.1815C39.1418 31.5508 37.2201 31.9204 35.2984 32.2899C35.4189 32.3875 35.5395 32.485 35.6599 32.5826C41.3345 27.5459 47.0089 22.5089 52.6835 17.472C52.9223 17.2602 52.5213 17.1482 52.3219 17.1792C50.19 17.5112 48.0582 17.8433 45.9265 18.1754C46.0471 18.273 46.1676 18.3706 46.2882 18.4681C51.485 13.1264 56.6819 7.78468 61.8787 2.44298C62.0843 2.23162 61.7406 2.10143 61.5172 2.15013C56.7556 3.18957 51.9942 4.22902 47.2328 5.26847C46.2226 5.48893 45.2123 5.70954 44.202 5.93001C43.9184 5.99183 43.4786 6.02139 43.2916 6.22935C42.3152 7.31393 41.3391 8.39834 40.3627 9.48293C36.0857 14.2344 31.8089 18.9857 27.5319 23.737C27.3291 23.9622 27.6685 24.061 27.8935 24.0297C30.2851 23.6974 32.6767 23.3651 35.0684 23.0328C34.9479 22.9352 34.8273 22.8376 34.707 22.7401C30.0006 27.6474 25.294 32.5547 20.5875 37.4622C20.3816 37.6766 20.7257 37.799 20.9489 37.7549C23.4829 37.2536 26.0167 36.7523 28.5503 36.251C28.4161 36.1713 28.2816 36.0914 28.1473 36.0113C23.3507 42.1865 18.5542 48.3617 13.7574 54.5368C13.7542 54.5407 13.7512 54.545 13.748 54.5488C13.5363 54.8223 14.2519 54.8393 14.421 54.6218Z" fill="black"/>
<path d="M30.8233 12.5364L21.5263 26.0711L28.2057 24.7904L18.4328 39.4557L25.1606 38.0312L20.2452 45.5894C20.2452 45.5894 3.49844 44.3592 7.36357 27.368C10.554 13.3428 27.1163 12.5537 30.295 12.5323C30.6361 12.5298 30.8233 12.5364 30.8233 12.5364Z" fill="#FBB040"/>
<path d="M30.1542 12.474C27.0552 16.9855 23.9563 21.4971 20.8572 26.0086C20.5765 26.4173 21.3466 26.5155 21.6528 26.4569C23.8792 26.03 26.1056 25.6032 28.3322 25.1763C28.067 25.0268 27.8018 24.8774 27.5366 24.7279C24.279 29.6163 21.0215 34.5048 17.7637 39.3931C17.4934 39.7988 18.2451 39.9081 18.5593 39.8415C20.802 39.3667 23.0444 38.8917 25.2871 38.417C25.022 38.2675 24.7567 38.1181 24.4915 37.9686C22.853 40.4881 21.2147 43.0074 19.5762 45.5269C19.8808 45.4107 20.1853 45.2946 20.49 45.1786C17.7762 44.9745 14.9367 43.8758 12.7866 42.45C7.06925 38.6588 6.82794 32.0738 8.24285 26.6358C9.61742 21.3528 13.7014 17.0525 19.7148 14.811C23.0217 13.5783 26.9229 12.8513 30.5786 12.947C30.9181 12.9559 31.3286 12.873 31.4925 12.5985C31.638 12.3547 31.3649 12.1332 31.0678 12.1254C26.5978 12.0082 21.913 12.9391 17.9529 14.6014C14.9836 15.848 12.382 17.6362 10.4358 19.856C7.92846 22.7159 6.74155 26.1311 6.25715 29.5915C5.53361 34.7597 6.94532 40.2024 12.2559 43.4565C14.4283 44.7875 17.2695 45.7945 20.001 45.9998C20.3448 46.0256 20.7448 45.9124 20.9148 45.6514C22.5533 43.132 24.1916 40.6126 25.8301 38.0932C26.0947 37.6863 25.3529 37.5774 25.0345 37.6447C22.7918 38.1196 20.5494 38.5946 18.3067 39.0693C18.5718 39.2188 18.8372 39.3681 19.1023 39.5176C22.3599 34.6291 25.6175 29.7407 28.8752 24.8524C29.1483 24.4425 28.3912 24.3443 28.0795 24.404C25.8532 24.831 23.6268 25.2578 21.4002 25.6847C21.6653 25.8342 21.9307 25.9835 22.1958 26.1331C25.2949 21.6215 28.3938 17.1099 31.4928 12.5983C31.8759 12.0402 30.4508 12.0425 30.1542 12.474Z" fill="black"/>
<path d="M54.5319 25.0627L41.9048 32.6351L45.8181 32.8025L24.2024 46.1577C24.2024 46.1577 41.2876 48.6527 51.8532 38.5152C54.7034 35.4753 58.4924 28.8121 54.5319 25.0627Z" fill="#FBB040"/>
<path d="M53.978 24.9928C49.7692 27.517 45.5601 30.0412 41.3509 32.5652C40.9996 32.776 41.3509 32.9193 41.6228 32.9308C42.9273 32.9866 44.2318 33.0425 45.5363 33.0981C45.4455 32.9764 45.3549 32.8545 45.2644 32.7326C38.0717 37.1766 30.8792 41.6204 23.6866 46.0644C23.6739 46.0722 23.6614 46.08 23.6486 46.0878C23.4129 46.2336 23.4941 46.4056 23.7656 46.4449C28.3638 47.1098 33.3775 46.7211 37.8644 45.7907C41.9392 44.9455 45.7923 43.423 49.0661 41.2626C52.5219 38.9824 54.9387 35.9826 56.2563 32.5191C57.2275 29.966 57.3824 27.0106 55.1862 24.8476C54.9066 24.5722 53.5639 24.9683 53.8784 25.2778C56.9369 28.2903 55.2317 32.6814 53.3034 35.7871C51.1998 39.1751 47.6571 41.7196 43.5753 43.4712C38.0944 45.823 31.4411 46.5657 25.3233 45.9507C25.0951 45.9277 24.8665 45.9033 24.6401 45.8705C24.6791 45.9895 24.7182 46.1087 24.7571 46.2277C31.9497 41.7837 39.1423 37.3399 46.3348 32.8959C46.3476 32.8881 46.3601 32.8803 46.3728 32.8725C46.7182 32.6592 46.3779 32.5188 46.1009 32.5069C44.7964 32.4511 43.4919 32.3952 42.1875 32.3396C42.2783 32.4613 42.3688 32.5832 42.4594 32.7051C46.6683 30.181 50.8774 27.6567 55.0864 25.1327C55.3223 24.9913 55.2416 24.81 54.9695 24.7756C54.6301 24.7329 54.2511 24.8291 53.978 24.9928Z" fill="black"/>
<path d="M22.0438 10.7243L26.8817 12.0802L21.8579 11.2977L22.0438 10.7243Z" fill="black"/>
<path d="M19.7796 11.0548L23.7822 12.3337L19.5735 11.6236L19.7796 11.0548Z" fill="black"/>
<path d="M18.2515 11.4837L21.8108 12.692L18.0376 12.0506L18.2515 11.4837Z" fill="black"/>
<path d="M16.6219 11.9534L21.342 13.3867L16.4189 12.5229L16.6219 11.9534Z" fill="black"/>
<path d="M13.3748 13.5301L16.4872 14.5371L13.1824 14.102L13.3748 13.5301Z" fill="black"/>
<path d="M12.2154 14.1976L16.0809 15.4345L12.011 14.7668L12.2154 14.1976Z" fill="black"/>
<path d="M10.498 15.5159L14.1887 17.2396L10.0803 16.3479L10.498 15.5159Z" fill="black"/>
<path d="M8.54215 17.0055L11.2208 18.0513L8.31152 17.568L8.54215 17.0055Z" fill="black"/>
<path d="M3.84669 22.8966L7.34557 23.9112L3.67212 23.4724L3.84669 22.8966Z" fill="black"/>
<path d="M3.95278 23.8307L7.62348 25.13L3.70312 24.48L3.95278 23.8307Z" fill="black"/>
<path d="M3.93121 25.0136L6.15482 25.8715L3.72168 25.5815L3.93121 25.0136Z" fill="black"/>
<path d="M2.96626 33.8286L6.09514 34.9336L2.75098 34.3951L2.96626 33.8286Z" fill="black"/>
<path d="M4.13135 35.1128L6.90789 36.1716L3.86304 35.8922L4.13135 35.1128Z" fill="black"/>
<path d="M4.1763 36.7991L6.74231 37.9041L3.90698 37.4049L4.1763 36.7991Z" fill="black"/>
<path d="M5.11678 37.7291L8.72169 39.3305L4.68481 38.7309L5.11678 37.7291Z" fill="black"/>
<path d="M6.77057 40.0215L9.72228 40.8692L6.61108 40.6L6.77057 40.0215Z" fill="black"/>
<path d="M7.64359 40.9409L11.4638 42.6584L7.27637 41.6658L7.64359 40.9409Z" fill="black"/>
<path d="M10.3609 42.4714L12.6045 43.317L10.1445 43.1297L10.3609 42.4714Z" fill="black"/>
<path d="M13.2387 44.0233L11.9581 43.7363L11.8953 43.9235L13.1759 44.2105L13.2387 44.0233Z" fill="black"/>
<path d="M14.5053 44.5586L13.7367 44.3484L13.6614 44.5325L14.43 44.7427L14.5053 44.5586Z" fill="black"/>
<path d="M52.4681 25.621C49.1784 27.7512 45.8887 29.8813 42.5989 32.0115C41.9264 32.4469 42.5731 32.7172 43.1427 32.7425C44.7254 32.8133 46.3083 32.8839 47.8912 32.9546C47.7099 32.711 47.5287 32.4673 47.3474 32.2236C39.7866 36.7157 32.2258 41.2078 24.665 45.7C24.5582 45.7634 24.4515 45.8268 24.3449 45.8902C23.8706 46.1719 24.0366 46.536 24.5791 46.6043C25.2601 46.6904 26.0132 46.4961 26.5615 46.1701C34.1223 41.678 41.6831 37.186 49.2439 32.6938C49.3508 32.6303 49.4575 32.567 49.5641 32.5035C50.2716 32.0832 49.5599 31.7967 49.0203 31.7725C47.4376 31.7018 45.8547 31.6311 44.2717 31.5603C44.4531 31.804 44.6342 32.0477 44.8155 32.2913C48.1053 30.1612 51.395 28.0311 54.6848 25.9009C55.135 25.6093 55.0129 25.2578 54.4506 25.1868C53.7899 25.1033 52.9909 25.2824 52.4681 25.621Z" fill="black"/>
<path d="M63.4221 1.03579L65.8773 0.540009L64.6111 1.81014L63.4221 1.03579Z" fill="black"/>
<path d="M19.707 26.8731L26.5756 25.9361L17.543 40.1387L23.0668 38.9231L20.5058 44.211L25.1222 37.5327L19.7493 38.682L28.8547 24.8601L22.3258 25.5006L27.4403 16.4189L19.707 26.8731Z" fill="#FBE942"/>
<path d="M28.2293 15.3216C28.3757 15.244 28.4045 15.1835 28.3312 15.144L28.4452 14.9446C28.4452 14.9446 28.3393 15.0187 28.216 15.1106C26.6186 14.839 13.0177 17.3748 10.4591 28.3164C6.94192 43.357 20.572 44.2109 20.572 44.2109L23.1331 38.9229L17.6092 40.1385L26.6416 25.9361L19.773 26.8732L27.5064 16.4188" fill="#FFC229"/>
<path d="M47.1236 31.2369L50.1629 31.3473C50.1629 31.3473 51.2221 31.726 50.0968 32.3213C48.9715 32.9166 31.6924 43.1979 31.6924 43.1979L48.4783 32.092L44.9987 32.0544L49.898 29.0204L47.1236 31.2369Z" fill="#FBE942"/>
<path d="M53.1491 26.9051L49.0891 29.5139L46.7207 31.2394L50.0309 31.3477C50.0309 31.3477 51.0901 31.7264 49.9648 32.3216C49.1104 32.7736 38.9448 38.8087 34.0996 41.6886L28.7869 44.8606C28.7869 44.8606 39.7105 44.5744 46.4858 40.1797C57.8426 32.8127 53.1491 26.9051 53.1491 26.9051Z" fill="#FFC229"/>
<path d="M15.8809 51.6237L28.4849 35.7841L21.5487 37.1564L35.0398 22.51L28.4927 23.4192L42.2898 7.31564L58.6745 3.73883L43.2052 19.2546L49.0409 18.3458L32.3844 33.7642L37.6445 32.7526L15.8809 51.6237Z" fill="#EF4136"/>
<path d="M34.922 22.5642L28.4108 23.4736L37.8234 12.427L27.7483 23.6812L34.8012 22.696L34.922 22.5642Z" fill="#972724"/>
<path d="M28.4022 35.8387L21.5042 37.211L33.0622 24.5938L20.8411 37.4066L28.3423 35.9144L28.4022 35.8387Z" fill="#972724"/>
<path d="M45.8142 18.2337L61.3193 2.20834L43.4614 6.12832L42.4031 7.31063L58.4265 3.79341L43.042 19.3092L48.8455 18.4004L32.2806 33.8187L37.5117 32.8072L16.9296 50.7525L14.0806 54.4403L40.9778 31.2397L35.2442 32.3481L52.1744 17.2376L45.8142 18.2337Z" fill="#972724"/>
<path d="M61.3665 10.5021L59.1955 21.1494L60.5222 27.0648L57.3862 41.6555L86.5745 42.74L120.587 42.9369L125.05 39.4865L123.602 28.8391L95.2583 28.1492L86.4537 17.699L80.4234 9.31915L61.3665 10.5021Z" fill="black"/>
<path d="M121.638 45.118L86.4529 44.9125L54.2412 43.7159L57.8182 27.0728L56.4939 21.167L59.0843 8.46257L81.8749 7.04785L88.6981 16.5293L96.6846 26.008L125.991 26.7215L127.84 40.3225L121.638 45.118ZM86.6435 40.5652L119.535 40.7558L122.258 38.6504L121.212 30.9569L93.8312 30.2904L84.1596 18.8017L78.9697 11.5905L63.6476 12.5417L61.896 21.1313L63.2249 27.0564L60.53 39.5949L86.6435 40.5652Z" fill="black"/>
<path d="M66.574 12.5529L62.7202 12.5772L63.1385 11.1123C63.1982 10.9168 63.2028 10.7665 63.1534 10.6605C63.1035 10.5548 63.0386 10.4774 62.9591 10.4285C62.8793 10.3797 62.7597 10.3472 62.6007 10.3308C62.4215 10.3308 62.2767 10.3636 62.1675 10.4285C62.0578 10.4936 61.9631 10.5712 61.8837 10.6605C61.8038 10.7503 61.7492 10.8357 61.7194 10.9168C61.6897 10.9985 61.6644 11.0555 61.6447 11.0877L58.986 20.9527V20.9771C58.986 20.9936 58.9808 21.038 58.9711 21.1112C58.9608 21.1847 58.9659 21.2662 58.986 21.3556C59.0057 21.4451 59.0555 21.5227 59.1353 21.5874C59.2148 21.6527 59.3445 21.6852 59.5239 21.6852C59.7032 21.6852 59.8474 21.6528 59.957 21.5874C60.0662 21.5229 60.1558 21.4451 60.2259 21.3556C60.2954 21.2662 60.35 21.1847 60.3904 21.1112C60.43 21.038 60.4501 20.9854 60.4501 20.9526L60.8982 19.3897L64.722 19.3654L64.0946 21.6607C63.975 22.0842 63.8108 22.4504 63.6016 22.7597C63.3925 23.0691 63.1536 23.3336 62.8847 23.5534C62.6158 23.7732 62.3268 23.9522 62.0184 24.0906C61.7093 24.2292 61.4158 24.3388 61.1371 24.4202C60.898 24.5017 60.6787 24.5543 60.4799 24.5788C60.2805 24.6032 60.1014 24.6318 59.9421 24.6644C59.7627 24.6971 59.6031 24.7133 59.464 24.7133H57.9703C57.7312 24.7133 57.4923 24.6889 57.2534 24.6401C57.0341 24.6074 56.795 24.5545 56.5364 24.4811C56.2774 24.4079 56.0385 24.2982 55.8194 24.1514C55.4609 23.9402 55.1822 23.6428 54.983 23.2605C54.7842 22.8782 54.7739 22.361 54.9533 21.7097L58.0303 10.3554V10.3311C58.0303 10.315 58.0752 10.1887 58.1647 9.95257C58.2543 9.71681 58.4134 9.45203 58.6428 9.15903C58.8714 8.86587 59.1755 8.56911 59.5538 8.26778C59.932 7.96685 60.41 7.72675 60.9878 7.54734C61.2463 7.46602 61.5105 7.40496 61.7794 7.36424C62.0483 7.32381 62.3516 7.30318 62.6904 7.30318H64.1543C64.4129 7.28714 64.6622 7.30318 64.9011 7.35208C65.12 7.38486 65.3539 7.44169 65.6032 7.52302C65.8518 7.60464 66.0961 7.71035 66.3351 7.84034C66.6735 8.05223 66.9424 8.34946 67.1416 8.73159C67.3404 9.11426 67.3507 9.63942 67.1714 10.3066L66.574 12.5529Z" fill="black"/>
<path d="M59.4645 27.0671H57.9708C57.5287 27.0671 57.084 27.0249 56.6473 26.9418C56.3113 26.8878 55.9575 26.8082 55.5941 26.7053C55.0417 26.5491 54.5265 26.3176 54.0628 26.017C53.3101 25.5571 52.7287 24.9403 52.3341 24.1829C51.8941 23.3373 51.8305 22.3317 52.144 21.1928L55.1818 9.98317C55.223 9.75934 55.3041 9.54586 55.4143 9.25527C55.5831 8.81126 55.8455 8.36531 56.2169 7.8905C56.5605 7.45008 57.008 7.00871 57.5446 6.58138C58.205 6.05557 59.0194 5.64017 59.9658 5.3465C60.3755 5.2176 60.8135 5.11647 61.2548 5.04959C61.6993 4.98271 62.1811 4.9491 62.6907 4.9491H64.0659C64.5576 4.928 65.041 4.96225 65.5075 5.05024C65.8865 5.11209 66.2776 5.20835 66.671 5.33676C67.1073 5.47994 67.5294 5.66241 67.9306 5.88075L68.0857 5.97137C68.8215 6.43189 69.3951 7.05008 69.7907 7.80871C70.2348 8.66324 70.2976 9.64469 69.9842 10.8116L68.899 14.8923L63.5592 14.9261L62.9942 17.0227L68.3222 16.9887L66.9006 22.1902C66.7214 22.8249 66.4595 23.3997 66.1218 23.8988C65.7836 24.3993 65.3795 24.8432 64.9209 25.2179C64.4595 25.5949 63.9487 25.91 63.4023 26.1548C62.9878 26.3407 62.5751 26.496 62.1755 26.6163C61.7446 26.7585 61.3183 26.8563 60.9078 26.9066C60.7739 26.923 60.6903 26.9379 60.6435 26.9475L60.5684 26.9619C60.1857 27.0318 59.814 27.0671 59.4645 27.0671Z" fill="black"/>
<path d="M74.7281 21.6853C74.6088 22.1088 74.4391 22.4751 74.2205 22.7844C74.0013 23.0938 73.7525 23.3582 73.4736 23.578C73.1946 23.7978 72.9006 23.9769 72.5922 24.1152C72.283 24.2538 71.9897 24.3634 71.7111 24.4449C71.472 24.5264 71.2527 24.5832 71.0539 24.6158C70.8545 24.6484 70.6753 24.673 70.5161 24.6891C70.3367 24.7053 70.1673 24.7134 70.0082 24.7134H68.5443C68.2853 24.7134 68.0365 24.689 67.7975 24.6402C67.5782 24.6075 67.3391 24.5547 67.0805 24.4813C66.8216 24.408 66.5824 24.2983 66.3635 24.1515C66.0251 23.9404 65.7562 23.6389 65.5571 23.2483C65.3582 22.8577 65.3478 22.3368 65.5272 21.6855L68.6938 10.3312V10.3069C68.7135 10.2909 68.7685 10.1645 68.858 9.92834C68.9476 9.69258 69.1067 9.42786 69.3361 9.13481C69.5647 8.84164 69.8688 8.54489 70.2471 8.24361C70.6253 7.94263 71.1134 7.70252 71.7111 7.52312C72.1889 7.37668 72.746 7.30334 73.3837 7.30334H74.8776C75.1364 7.30334 75.3852 7.32767 75.6246 7.37656C75.8431 7.40935 76.0775 7.46618 76.3262 7.5475C76.5757 7.62913 76.8094 7.73484 77.0286 7.86482C77.3874 8.07672 77.6656 8.37395 77.8655 8.75608C78.0639 9.13874 78.0739 9.66385 77.8949 10.3311L74.7281 21.6853ZM69.59 20.953C69.59 20.9856 69.5848 21.0382 69.575 21.1116C69.5647 21.1851 69.5699 21.2666 69.59 21.3561C69.6096 21.4455 69.6595 21.5231 69.7393 21.5879C69.8187 21.6532 69.9484 21.6856 70.1278 21.6856C70.3071 21.6856 70.4513 21.6534 70.5609 21.5879C70.6702 21.5233 70.7649 21.4455 70.8448 21.3561C70.924 21.2666 70.984 21.1851 71.0241 21.1116C71.0638 21.0384 71.0839 20.9858 71.0839 20.953L73.8021 11.1126C73.8625 10.9171 73.8719 10.7668 73.8323 10.6608C73.7921 10.5551 73.7324 10.4777 73.6533 10.4288C73.5735 10.3799 73.4534 10.3475 73.2946 10.3311C73.135 10.3311 72.9962 10.3639 72.8762 10.4288C72.7568 10.4939 72.6619 10.5715 72.5922 10.6608C72.5224 10.7506 72.4678 10.8359 72.4283 10.9171C72.388 10.9988 72.3578 11.0558 72.3384 11.0881V11.1126L69.59 20.953Z" fill="black"/>
<path d="M70.0088 27.0671H68.5449C68.0847 27.0671 67.6303 27.025 67.1925 26.9419C66.8563 26.8879 66.502 26.8083 66.1384 26.7053C65.5735 26.5455 65.0475 26.307 64.5759 25.9965C63.852 25.5351 63.2881 24.9155 62.8996 24.1538C62.4673 23.3046 62.4065 22.3006 62.7181 21.1683L65.8144 10.066V9.33106L66.1949 9.02015C66.3624 8.64518 66.5977 8.26581 66.9105 7.86593C67.2541 7.42567 67.7014 6.98413 68.2382 6.55687C68.9045 6.02618 69.7367 5.60848 70.712 5.31514C71.5093 5.07228 72.4081 4.94907 73.3844 4.94907H74.8783C75.3399 4.94907 75.7964 4.99143 76.2349 5.07504C76.6131 5.13689 77.0027 5.233 77.3953 5.36092C77.8662 5.51562 78.3104 5.71611 78.7195 5.95866C79.5024 6.4213 80.1077 7.05247 80.5147 7.83237C80.9589 8.68737 81.0215 9.66871 80.708 10.8355L80.7037 10.8538L77.5369 22.208C77.3514 22.8635 77.0753 23.452 76.7137 23.9628C76.36 24.4617 75.943 24.9015 75.4736 25.2716C75.0099 25.6366 74.5066 25.9413 73.9768 26.1786C73.5634 26.3644 73.1508 26.5194 72.7518 26.6398C72.365 26.7681 71.9847 26.8632 71.6219 26.923C71.3484 26.9677 71.1037 27.0007 70.8719 27.0244L70.8324 27.0282C70.5482 27.0541 70.2711 27.0671 70.0088 27.0671Z" fill="black"/>
<path d="M79.7182 24.7134H75.8647L80.7038 7.30334H84.5579L79.7182 24.7378V24.7134Z" fill="black"/>
<path d="M76.838 45.751V27.0672H72.2563L78.4045 4.94937H88.1639L76.838 45.751Z" fill="black"/>
<path d="M81.5994 24.7134L86.4391 7.30334H90.2925L91.4881 16.6553L94.087 7.30334H97.9404L93.1013 24.7134H89.2472L87.8798 19.3347L85.4535 24.7134H81.5994Z" fill="black"/>
<path d="M90.4343 31.0716L89.9231 27.0672H77.9919L84.1401 4.94937H101.547L95.3999 27.0672H91.5472L90.4343 31.0716Z" fill="black"/>
<path d="M64.0943 41.4912L63.2578 44.5189H54.0867L58.9261 27.1091H62.7798L58.7768 41.4912H64.0943Z" fill="black"/>
<path d="M65.5602 46.8727H50.4795L56.6276 24.7552H66.3888L62.3859 39.1371H67.6974L65.5602 46.8727Z" fill="black"/>
<path d="M77.2392 30.1368H72.5785L71.4436 34.2391H76.0738L75.237 37.2671H70.607L69.412 41.5157H74.0724L73.2061 44.5434L64.7217 44.519L69.5911 27.1093H78.0753L77.2392 30.1368Z" fill="black"/>
<path d="M75.4879 46.9037L61.1123 46.8623L67.2954 24.7552H81.6778L79.5411 32.4905H79.5088L77.6662 39.1616H77.7029L75.4879 46.9037Z" fill="black"/>
<path d="M85.0662 44.5187H81.212L81.8691 41.4911H79.6585L78.4039 44.5187H74.5505L79.2106 33.1401C79.2501 33.0912 79.3249 32.9286 79.4349 32.6515C79.5441 32.375 79.6987 32.0332 79.8979 31.6262C80.0172 31.4146 80.1373 31.1705 80.2566 30.8934C80.3357 30.7634 80.4054 30.6333 80.4658 30.5028C80.5255 30.3728 80.5945 30.2427 80.6743 30.1122C80.7943 29.9007 80.9137 29.6934 81.033 29.4895C81.1524 29.2862 81.2717 29.095 81.3918 28.916C81.7102 28.395 82.0287 27.9635 82.3472 27.6216C82.6657 27.2799 82.9648 27.1089 83.2437 27.1089H88.233L85.0662 44.5187ZM80.8835 38.463H82.4967L84.1999 30.4051L80.8835 38.463Z" fill="black"/>
<path d="M87.5491 46.8727H70.5491L76.6007 32.0975L76.6503 32.036C76.6625 32.0061 76.6776 31.9702 76.6942 31.9272C76.8243 31.599 76.9976 31.2143 77.224 30.7519L77.283 30.6396C77.3649 30.4948 77.4512 30.317 77.5396 30.1113L77.5993 29.9737L77.6791 29.843C77.7143 29.7844 77.7445 29.729 77.7675 29.6788C77.8581 29.4818 77.9616 29.2868 78.0767 29.0959C78.196 28.8845 78.3153 28.6771 78.4354 28.4729C78.5691 28.2456 78.7043 28.029 78.838 27.8268C79.2327 27.1844 79.6317 26.6503 80.0566 26.1949C81.1651 25.0053 82.4017 24.7553 83.2435 24.7553H91.5715L87.5491 46.8727ZM83.851 30.147L84.7346 30.3296L84.8927 29.4628H84.3018C84.2026 29.5999 84.0904 29.7665 83.9675 29.9675L83.9193 30.0431C83.8963 30.0771 83.874 30.1118 83.851 30.147Z" fill="black"/>
<path d="M93.1612 37.2426H92.4142L93.2805 34.2146H97.8514L94.9836 44.519H89.6658C89.407 44.519 89.1582 44.4947 88.9196 44.4458C88.6996 44.4135 88.4609 44.3606 88.2021 44.2872C87.9433 44.214 87.7046 44.1039 87.4853 43.9575C87.1474 43.746 86.8785 43.4448 86.6787 43.0543C86.4795 42.6633 86.4695 42.1427 86.6492 41.4914L89.8153 30.1125C89.8153 30.0966 89.8649 29.9701 89.9649 29.734C90.0641 29.4984 90.2287 29.2336 90.458 28.9406C90.6867 28.6473 90.9908 28.3505 91.3689 28.0494C91.7471 27.7482 92.2352 27.5081 92.8326 27.3289C93.3107 27.1825 93.8679 27.1091 94.5056 27.1091H95.9995C96.2576 27.1091 96.507 27.1335 96.7464 27.1824C96.965 27.215 97.1986 27.2676 97.4481 27.341C97.6968 27.4141 97.9305 27.5162 98.1498 27.6463C98.5085 27.8742 98.7874 28.1796 98.9866 28.562C99.1857 28.9446 99.1857 29.4698 98.9866 30.1369L98.1498 33.1404H94.2964L94.924 30.9184C94.9836 30.7228 94.9937 30.5724 94.9534 30.4665C94.9132 30.3607 94.8535 30.2796 94.7744 30.2224C94.6946 30.1653 94.5746 30.1289 94.4157 30.1123C94.2367 30.1123 94.0871 30.1492 93.9678 30.2224C93.8485 30.2956 93.7536 30.3771 93.6838 30.4665C93.6141 30.5563 93.5595 30.6416 93.5199 30.7228C93.4797 30.8046 93.4603 30.8614 93.4603 30.8937V30.9184L90.7111 40.7585C90.7111 40.7914 90.7061 40.844 90.6967 40.9174C90.6859 40.9906 90.6917 41.0724 90.7111 41.1616C90.7312 41.2513 90.7808 41.3286 90.8606 41.3937C90.9397 41.4586 91.0698 41.4914 91.2489 41.4914H91.9958L93.1612 37.2426Z" fill="black"/>
<path d="M97.2812 46.8727H89.6657C89.2063 46.8727 88.7534 46.8308 88.317 46.7482C87.977 46.6941 87.6297 46.6164 87.2588 46.5112C86.6951 46.3518 86.1696 46.1133 85.6965 45.8029C84.9726 45.341 84.409 44.7214 84.0207 43.9602C83.588 43.1105 83.5268 42.1068 83.8389 40.9745L86.9971 29.6253C87.0503 29.4193 87.1358 29.2172 87.2415 28.966C87.4183 28.5488 87.6757 28.1258 88.0309 27.672C88.3745 27.2314 88.8224 26.7897 89.3594 26.3623C90.0244 25.8326 90.8569 25.4147 91.8318 25.1214C92.6291 24.8784 93.5284 24.7552 94.5047 24.7552H95.9986C96.4595 24.7552 96.9138 24.7973 97.3516 24.8805C97.6982 24.9363 98.0576 25.0187 98.4214 25.1254C98.9246 25.2738 99.4013 25.4805 99.8398 25.7404L99.9175 25.788C100.664 26.2628 101.242 26.8855 101.635 27.6388C102.086 28.5069 102.136 29.4991 101.79 30.6746L97.2812 46.8727Z" fill="black"/>
<path d="M110.486 27.1093L106.454 41.5158C106.334 41.939 106.165 42.3012 105.946 42.6023C105.726 42.9035 105.483 43.1639 105.214 43.3835C104.945 43.6031 104.656 43.7827 104.347 43.9207C104.038 44.0593 103.745 44.1692 103.466 44.2504C103.227 44.3322 103.007 44.389 102.809 44.4213C102.609 44.4543 102.43 44.4788 102.271 44.4945C102.091 44.5111 101.922 44.5189 101.763 44.5189H100.299C100.04 44.5189 99.7909 44.4945 99.5522 44.4456C99.333 44.4133 99.0943 44.3604 98.8355 44.287C98.5767 44.2138 98.3373 44.1038 98.1187 43.9573C97.7801 43.7458 97.5112 43.4487 97.3121 43.0661C97.1129 42.6838 97.1029 42.1589 97.2819 41.4913L101.315 27.1091H105.139L101.345 40.7585V40.7828C101.345 40.7994 101.339 40.844 101.33 40.9172C101.32 40.9904 101.325 41.0723 101.345 41.1614C101.365 41.2512 101.414 41.3285 101.494 41.3936C101.574 41.4585 101.703 41.4913 101.882 41.4913C102.062 41.4913 102.206 41.4587 102.316 41.3936C102.425 41.3286 102.515 41.2552 102.585 41.1737C102.654 41.0922 102.709 41.0148 102.749 40.9416C102.789 40.8684 102.809 40.8158 102.809 40.7827V40.7583L106.633 27.1089H110.486V27.1093Z" fill="black"/>
<path d="M101.764 46.8727H100.3C99.8405 46.8727 99.3869 46.8309 98.9498 46.7479C98.6133 46.694 98.2582 46.6144 97.8937 46.5112C97.33 46.3521 96.8045 46.1138 96.3322 45.8032C95.6133 45.3454 95.0518 44.7349 94.6628 43.9883C94.2193 43.1352 94.1567 42.1539 94.4695 40.9868L94.4759 40.9653L99.0209 24.7552H114.1L109.261 42.0407C109.074 42.7024 108.792 43.2943 108.422 43.8039C108.079 44.2747 107.686 44.6922 107.25 45.048C106.788 45.4259 106.276 45.7415 105.73 45.986C105.316 46.1712 104.905 46.3263 104.507 46.4459C104.118 46.575 103.737 46.6706 103.372 46.73C103.105 46.774 102.856 46.8078 102.62 46.8313L102.594 46.8339C102.311 46.8596 102.032 46.8727 101.764 46.8727Z" fill="black"/>
<path d="M119.627 30.1368H114.967L113.832 34.2391H118.462L117.626 37.2671H112.995L111.801 41.5157H116.461L115.594 44.5434L107.11 44.519L111.98 27.1093H120.464L119.627 30.1368Z" fill="black"/>
<path d="M117.877 46.9037L103.501 46.8623L109.685 24.7552H124.067L121.93 32.4905H121.898L120.055 39.1616H120.092L117.877 46.9037Z" fill="black"/>
<path d="M67.3379 11.5453L63.4842 11.5696L63.9024 10.1047C63.9622 9.90924 63.9668 9.75893 63.9173 9.65292C63.8674 9.5472 63.8025 9.46981 63.7231 9.42092C63.6432 9.37209 63.5236 9.33959 63.3646 9.3232C63.1854 9.3232 63.0407 9.35599 62.9314 9.42092C62.8217 9.48603 62.7271 9.5636 62.6476 9.65292C62.5678 9.74271 62.5131 9.82809 62.4833 9.90924C62.4536 9.99092 62.4283 10.0479 62.4087 10.0802L59.7499 19.9451V19.9695C59.7499 19.986 59.7448 20.0305 59.735 20.1037C59.7247 20.1771 59.7298 20.2587 59.7499 20.3481C59.7696 20.4377 59.8194 20.5151 59.8993 20.5801C59.9787 20.6451 60.1084 20.6778 60.2878 20.6778C60.4671 20.6778 60.6113 20.6453 60.7209 20.5801C60.8301 20.5152 60.9197 20.4377 60.9898 20.3481C61.0593 20.2587 61.114 20.1771 61.1543 20.1037C61.194 20.0305 61.214 19.9779 61.214 19.9449L61.6621 18.3823L65.4859 18.3579L64.8585 20.6532C64.739 21.0768 64.5747 21.443 64.3655 21.7523C64.1564 22.0617 63.9175 22.3261 63.6486 22.546C63.3797 22.7657 63.0907 22.9448 62.7823 23.0831C62.4732 23.2217 62.1797 23.3313 61.901 23.4128C61.6619 23.4943 61.4426 23.5469 61.2439 23.5714C61.0444 23.5958 60.8653 23.6243 60.706 23.6566C60.5267 23.6896 60.367 23.7055 60.228 23.7055H58.7342C58.4951 23.7055 58.2562 23.6812 58.0173 23.6323C57.798 23.6 57.5588 23.5471 57.3003 23.4737C57.0413 23.4005 56.8024 23.2907 56.5833 23.144C56.2248 22.9328 55.9461 22.6354 55.7469 22.2531C55.5482 21.8708 55.5378 21.3536 55.7172 20.7023L58.7942 9.34806V9.32367C58.7942 9.30763 58.8391 9.18135 58.9287 8.94512C59.0182 8.70942 59.1773 8.44464 59.4067 8.15159C59.6353 7.85842 59.9394 7.56166 60.3177 7.26039C60.6959 6.9594 61.1739 6.7193 61.7517 6.5399C62.0102 6.45857 62.2744 6.39757 62.5433 6.35679C62.8123 6.31636 63.1155 6.29579 63.4543 6.29579H64.9183C65.1768 6.27969 65.4261 6.29579 65.6651 6.34463C65.8839 6.37742 66.1178 6.43424 66.3671 6.51557C66.6158 6.59725 66.8601 6.7029 67.099 6.83295C67.4374 7.04479 67.7063 7.34201 67.9055 7.7242C68.1044 8.10681 68.1146 8.63197 67.9353 9.29917L67.3379 11.5453Z" fill="white"/>
<path d="M75.4929 20.6773C75.3735 21.1009 75.2039 21.4671 74.9846 21.7763C74.7653 22.0858 74.5166 22.3502 74.2376 22.5701C73.9587 22.7898 73.6654 22.9689 73.3569 23.1072C73.0478 23.2458 72.7538 23.3554 72.4756 23.4369C72.2362 23.5184 72.0169 23.5752 71.8182 23.6075C71.6189 23.6405 71.4397 23.665 71.2804 23.6807C71.1011 23.6973 70.9317 23.7051 70.7726 23.7051H69.3086C69.0497 23.7051 68.8008 23.6807 68.5619 23.6319C68.3426 23.5996 68.1035 23.5466 67.8449 23.4733C67.586 23.4001 67.3469 23.2903 67.1279 23.1436C66.7896 22.9324 66.5206 22.6309 66.3214 22.2403C66.1226 21.8497 66.1123 21.3288 66.2916 20.6775L69.4583 9.32325V9.29892C69.4779 9.28282 69.5329 9.15654 69.6225 8.92031C69.712 8.68462 69.8711 8.41983 70.1005 8.12684C70.3291 7.83367 70.6332 7.53692 71.0115 7.23558C71.3897 6.9346 71.8778 6.69455 72.4756 6.51515C72.9536 6.36871 73.5108 6.29532 74.1485 6.29532H75.6424C75.9005 6.29532 76.1499 6.3197 76.3886 6.36854C76.6079 6.40133 76.8415 6.45815 77.091 6.53948C77.3398 6.62116 77.5734 6.72681 77.7927 6.85686C78.1514 7.0687 78.4304 7.36598 78.6295 7.74811C78.8286 8.13072 78.8387 8.65588 78.659 9.32308L75.4929 20.6773ZM70.3545 19.9449C70.3545 19.9777 70.3494 20.0303 70.3396 20.1036C70.3293 20.177 70.3345 20.2587 70.3545 20.3479C70.3742 20.4375 70.424 20.515 70.5039 20.5799C70.5834 20.645 70.7131 20.6777 70.8924 20.6777C71.0717 20.6777 71.2159 20.6452 71.3256 20.5799C71.4348 20.5152 71.5295 20.4375 71.6093 20.3479C71.6886 20.2587 71.7486 20.177 71.7887 20.1036C71.8284 20.0304 71.8484 19.9778 71.8484 19.9449L74.5669 10.1046C74.6266 9.90912 74.6366 9.7588 74.5971 9.65279C74.5568 9.54714 74.4972 9.46969 74.4174 9.4208C74.3376 9.37197 74.2182 9.33947 74.0593 9.32308C73.8997 9.32308 73.7603 9.35587 73.6409 9.4208C73.5216 9.48591 73.4267 9.56353 73.3569 9.65279C73.2872 9.74258 73.2326 9.82797 73.193 9.90912C73.1528 9.9908 73.1226 10.0478 73.1032 10.0801V10.1046L70.3545 19.9449Z" fill="white"/>
<path d="M80.4816 23.7051H76.6282L81.4672 6.29532H85.3213L80.4816 23.7296V23.7051Z" fill="white"/>
<path d="M82.363 23.7051L87.2028 6.29532H91.0562L92.2518 15.6473L94.8507 6.29532H98.7041L93.865 23.7051H90.0109L88.6068 15.0613L86.2172 23.7051H82.363Z" fill="white"/>
<path d="M64.8585 40.4829L64.0219 43.5108H54.8508L59.6903 26.1007H63.5439L59.5409 40.4829H64.8585Z" fill="white"/>
<path d="M78.0026 29.1289H73.3419L72.2067 33.2312H76.8373L76.0004 36.2588H71.3705L70.1754 40.5075H74.8358L73.9695 43.5354L65.4851 43.5111L70.355 26.101H78.8387L78.0026 29.1289Z" fill="white"/>
<path d="M85.8289 43.5111H81.9755L82.6325 40.4832H80.4219L79.1674 43.5111H75.3132L79.974 32.1322C80.0135 32.0833 80.0883 31.9207 80.1976 31.6439C80.3068 31.3671 80.4614 31.0252 80.6613 30.6182C80.7806 30.407 80.8999 30.1629 81.0193 29.8858C81.0984 29.7557 81.1688 29.6254 81.2285 29.4952C81.2882 29.3649 81.3579 29.2348 81.4377 29.1046C81.557 28.8931 81.6771 28.6854 81.7964 28.4819C81.9158 28.2783 82.0351 28.0874 82.1545 27.908C82.4729 27.387 82.7921 26.9559 83.1106 26.6137C83.4291 26.272 83.7275 26.101 84.0071 26.101H88.9957L85.8289 43.5111ZM81.6469 37.4554H83.2594L84.9626 29.3974L81.6469 37.4554Z" fill="white"/>
<path d="M93.924 36.2344H93.1778L94.0441 33.2069H98.6149L95.7465 43.5112H90.4293C90.1705 43.5112 89.9211 43.4869 89.6824 43.438C89.4631 43.4054 89.2244 43.3524 88.9656 43.2791C88.7068 43.2059 88.4674 43.0961 88.2488 42.9494C87.9102 42.7382 87.6414 42.4367 87.4422 42.0462C87.2431 41.6556 87.233 41.1346 87.412 40.4833L90.5789 29.1047C90.5789 29.0885 90.6285 28.9624 90.7284 28.7262C90.8276 28.4903 90.9922 28.2255 91.2209 27.9325C91.4495 27.6395 91.7536 27.3427 92.1325 27.0413C92.5106 26.7403 92.9987 26.5004 93.5962 26.3208C94.0735 26.1744 94.6314 26.101 95.2691 26.101H96.7623C97.0211 26.101 97.2706 26.1253 97.5092 26.1742C97.7285 26.2072 97.9622 26.2598 98.2116 26.3331C98.4604 26.4063 98.694 26.5081 98.9133 26.6382C99.272 26.8664 99.5503 27.1718 99.7501 27.5539C99.9493 27.9365 99.9493 28.4617 99.7501 29.1291L98.9133 32.1323H95.0599L95.6875 29.9103C95.7472 29.715 95.7572 29.5646 95.717 29.4585C95.6767 29.353 95.6171 29.2718 95.538 29.2143C95.4582 29.1575 95.3381 29.1208 95.1792 29.1046C95.0002 29.1046 94.8507 29.1411 94.7313 29.2143C94.612 29.2875 94.5171 29.3693 94.4474 29.4585C94.3776 29.5482 94.323 29.6338 94.2835 29.715C94.2432 29.7964 94.2238 29.8536 94.2238 29.8859V29.9103L91.4754 39.7507C91.4754 39.7833 91.4696 39.8359 91.4603 39.9093C91.4502 39.9828 91.4552 40.0643 91.4754 40.1538C91.4948 40.2432 91.5444 40.3208 91.6242 40.3856C91.704 40.4509 91.8334 40.4833 92.0131 40.4833H92.7593L93.924 36.2344Z" fill="white"/>
<path d="M111.251 26.1009L107.218 40.5074C107.099 40.9309 106.929 41.2931 106.71 41.5939C106.49 41.8953 106.247 42.1558 105.978 42.3754C105.709 42.595 105.42 42.7743 105.112 42.9126C104.802 43.0512 104.509 43.1608 104.23 43.2423C103.992 43.3238 103.772 43.3806 103.573 43.4132C103.374 43.4459 103.195 43.4704 103.035 43.4865C102.856 43.5027 102.687 43.5108 102.528 43.5108H101.064C100.805 43.5108 100.557 43.4865 100.317 43.4376C100.098 43.405 99.8585 43.352 99.6004 43.2786C99.3408 43.2055 99.1022 43.0957 98.8836 42.949C98.545 42.7378 98.2761 42.4403 98.077 42.0581C97.8778 41.6757 97.8678 41.1506 98.0468 40.4829L102.08 26.1007H105.904L102.11 39.7504V39.7748C102.11 39.7913 102.105 39.8356 102.095 39.9089C102.084 39.9824 102.09 40.0639 102.11 40.1533C102.13 40.2428 102.179 40.3204 102.259 40.3851C102.339 40.4504 102.468 40.4829 102.647 40.4829C102.826 40.4829 102.971 40.4505 103.081 40.3851C103.19 40.3206 103.28 40.2472 103.35 40.1653C103.419 40.0842 103.474 40.0067 103.514 39.9332C103.554 39.86 103.574 39.8074 103.574 39.7746V39.7503L107.397 26.1005H111.251V26.1009Z" fill="white"/>
<path d="M120.391 29.1289H115.731L114.596 33.2312H119.226L118.389 36.2588H113.76L112.564 40.5075H117.225L116.358 43.5354L107.874 43.5111L112.744 26.101H121.228L120.391 29.1289Z" fill="white"/>
<path d="M61.8323 6.88544C62.1012 6.84501 62.4046 6.82444 62.7433 6.82444H64.2072C64.4658 6.80834 64.7151 6.82444 64.954 6.87327C65.173 6.90606 65.4068 6.96289 65.6561 7.04422C65.9047 7.1259 66.149 7.23155 66.3881 7.36159C66.7263 7.57343 66.9953 7.87072 67.1947 8.25285C67.3937 8.63546 67.4038 9.16062 67.2245 9.82781L66.7621 11.5668L67.3669 11.5631L67.9643 9.31663C68.1434 8.64944 68.1333 8.12428 67.9345 7.74161C67.7351 7.35948 67.4664 7.06208 67.1278 6.85042C66.8888 6.72037 66.6445 6.61466 66.3958 6.53304C66.1464 6.45171 65.9124 6.39489 65.6938 6.3621C65.4548 6.31321 65.2054 6.29728 64.947 6.31321H63.4831C63.1442 6.31321 62.8408 6.33383 62.5719 6.37426C62.303 6.41498 62.0388 6.47604 61.7802 6.55737C61.2027 6.73659 60.7247 6.9767 60.3465 7.27786C60.2812 7.3298 60.2212 7.38157 60.1602 7.43317C60.4229 7.2929 60.7139 7.1702 61.0406 7.06872C61.2992 6.98722 61.5633 6.92622 61.8323 6.88544Z" fill="#BCBEC0"/>
<path d="M61.9369 10.182C61.857 10.2717 61.8024 10.3571 61.7726 10.4383C61.7428 10.52 61.7176 10.5769 61.6979 10.6092L59.0392 20.4742V20.4985C59.0392 20.5151 59.034 20.5595 59.0241 20.6328C59.014 20.7062 59.0191 20.7878 59.0392 20.8771C59.0586 20.9667 59.1086 21.0442 59.1885 21.1091C59.2677 21.1742 59.3976 21.2068 59.5768 21.2068C59.756 21.2068 59.9003 21.1743 60.0102 21.1091C60.1191 21.0443 60.2087 20.9667 60.279 20.8771C60.3311 20.8102 60.3722 20.7492 60.4076 20.6911C60.378 20.693 60.3483 20.6953 60.3166 20.6953C60.1375 20.6953 60.0074 20.6628 59.9281 20.5976C59.8485 20.5328 59.7984 20.4552 59.7787 20.3656C59.7587 20.2763 59.7536 20.1946 59.7639 20.1212C59.7736 20.0481 59.7787 20.0034 59.7787 19.987V19.9626L62.4377 10.0977C62.4572 10.0654 62.4825 10.0084 62.5122 9.92675C62.5206 9.90419 62.5352 9.8805 62.5476 9.85712C62.4171 9.86781 62.3073 9.89837 62.2206 9.94967C62.111 10.0151 62.0161 10.0927 61.9369 10.182Z" fill="#BCBEC0"/>
<path d="M64.1478 21.182C64.0282 21.6054 63.8638 21.9717 63.6548 22.2808C63.4701 22.5544 63.2608 22.7904 63.0294 22.9938C63.257 22.8737 63.4731 22.7303 63.6779 22.5633C63.9467 22.3435 64.1857 22.0792 64.3946 21.7696C64.6038 21.4607 64.768 21.0943 64.8876 20.6707L65.5148 18.3755L61.6908 18.3998L61.5454 18.9073L64.7752 18.8866L64.1478 21.182Z" fill="#BCBEC0"/>
<path d="M69.6287 20.6327C69.6184 20.7061 69.6236 20.7877 69.6436 20.877C69.6633 20.9666 69.7132 21.0441 69.793 21.109C69.8724 21.1741 70.0021 21.2067 70.1812 21.2067C70.3604 21.2067 70.5048 21.1742 70.6146 21.109C70.7238 21.0442 70.8186 20.9666 70.8984 20.877C70.9584 20.8097 71.0033 20.7481 71.041 20.6897C71.0031 20.6932 70.9631 20.6954 70.9211 20.6954C70.7419 20.6954 70.612 20.6629 70.5328 20.5976C70.4529 20.5329 70.4029 20.4553 70.3834 20.3656C70.3631 20.2764 70.3582 20.1947 70.3683 20.1213C70.3782 20.0481 70.3834 19.9955 70.3834 19.9626L73.1321 10.1223V10.0978C73.1515 10.0654 73.1809 10.0085 73.2212 9.92682C73.2327 9.90396 73.2478 9.88023 73.2607 9.85672C73.1378 9.86677 73.0264 9.89697 72.9293 9.94974C72.81 10.0149 72.7158 10.0924 72.6461 10.1817C72.5756 10.2715 72.521 10.3569 72.4814 10.4381C72.4419 10.5197 72.4117 10.5767 72.3923 10.609V10.6335L69.6436 20.4738C69.6436 20.5067 69.6387 20.5593 69.6287 20.6327Z" fill="#BCBEC0"/>
<path d="M73.4376 6.82447H74.9315C75.1903 6.82447 75.4391 6.8488 75.6785 6.89769C75.897 6.93048 76.1314 6.9873 76.3801 7.06863C76.6289 7.15025 76.8632 7.25597 77.0825 7.38601C77.4405 7.59785 77.7195 7.89507 77.9186 8.27721C78.1177 8.65987 78.1278 9.18504 77.9488 9.85223L74.782 21.2065C74.6626 21.6298 74.493 21.9962 74.2744 22.3053C74.0889 22.5663 73.8812 22.7936 73.654 22.9908C73.8653 22.8764 74.0702 22.7428 74.2665 22.5878C74.5454 22.368 74.7942 22.1037 75.0142 21.7941C75.2327 21.4852 75.4024 21.1188 75.5217 20.6953L78.6878 9.34105C78.8676 8.6738 78.8575 8.14864 78.6584 7.76603C78.4592 7.38389 78.1803 7.0865 77.8223 6.87477C77.6023 6.74473 77.3686 6.63907 77.1199 6.55739C76.8704 6.47607 76.6368 6.41924 76.4175 6.38645C76.1788 6.33762 75.9294 6.31329 75.6713 6.31329H74.1774C73.5397 6.31329 72.9825 6.38645 72.5044 6.53307C71.907 6.71229 71.4189 6.9524 71.0407 7.2535C70.971 7.30885 70.9068 7.36409 70.8423 7.41927C71.1146 7.27465 71.4193 7.1482 71.765 7.04442C72.2427 6.89769 72.7999 6.82447 73.4376 6.82447Z" fill="#BCBEC0"/>
<path d="M79.9194 23.7232H80.5097V23.7475L85.3494 6.31329H81.4953L81.3537 6.82447H84.6097L79.9194 23.7232Z" fill="#BCBEC0"/>
<path d="M85.6477 23.7232H86.2458L88.1172 16.9539L87.8958 15.5904L85.6477 23.7232Z" fill="#BCBEC0"/>
<path d="M93.2957 23.7232H93.8931L98.7328 6.31329H94.8794L94.7371 6.82447H97.9931L93.2957 23.7232Z" fill="#BCBEC0"/>
<path d="M91.5399 16.1764L92.0913 14.1925L91.0849 6.31329H87.2307L87.0891 6.82447H90.3451L91.5399 16.1764Z" fill="#BCBEC0"/>
<path d="M64.8873 40.5011H59.5697L63.5726 26.119H59.7191L59.5769 26.6303H62.833L58.8301 41.0126H64.1476L63.4523 43.5291H64.0505L64.8873 40.5011Z" fill="#BCBEC0"/>
<path d="M71.4966 33.7602H76.127L75.4318 36.2767H76.0299L76.8668 33.2488H72.2362L73.2297 29.6579H72.6316L71.4966 33.7602Z" fill="#BCBEC0"/>
<path d="M74.8654 40.5254H70.2052L71.2562 36.788H70.6604L69.4656 41.0368H74.1256L73.406 43.5514L73.9991 43.5533L74.8654 40.5254Z" fill="#BCBEC0"/>
<path d="M77.4333 29.1468H78.0315L78.8683 26.119H70.384L70.241 26.6303H78.1285L77.4333 29.1468Z" fill="#BCBEC0"/>
<path d="M78.6677 43.5289H79.1961L80.2386 41.0124H79.7109L78.6677 43.5289Z" fill="#BCBEC0"/>
<path d="M83.6928 32.5698L84.2514 29.9265L80.9358 37.9843H82.549L82.6569 37.4732H81.6756L83.6928 32.5698Z" fill="#BCBEC0"/>
<path d="M89.0251 26.119H84.0358C83.7568 26.119 83.4578 26.29 83.14 26.6318C83.1328 26.6387 83.1271 26.647 83.1199 26.6541C83.1795 26.6394 83.2385 26.6305 83.296 26.6305H88.2853L85.2112 43.5291H85.8582L89.0251 26.119Z" fill="#BCBEC0"/>
<path d="M94.5579 26.6303H96.0519C96.3099 26.6303 96.5594 26.6546 96.7988 26.7035C97.0174 26.7363 97.251 26.7889 97.5005 26.8623C97.7492 26.9354 97.9829 27.0374 98.2029 27.1674C98.5609 27.3956 98.8398 27.7009 99.039 28.0832C99.2374 28.4658 99.2374 28.991 99.039 29.6582L98.3452 32.1504H98.9419L99.7787 29.147C99.9771 28.4798 99.9771 27.9546 99.7787 27.572C99.5796 27.1898 99.3006 26.8845 98.9419 26.6563C98.7226 26.5262 98.489 26.4243 98.2402 26.351C97.9908 26.2778 97.7571 26.2252 97.5386 26.1923C97.2992 26.1434 97.0504 26.119 96.7916 26.119H95.2977C94.66 26.119 94.1029 26.1923 93.6248 26.3389C93.0274 26.5181 92.5392 26.7582 92.1611 27.0593C92.0913 27.1148 92.0273 27.1697 91.9626 27.2249C92.2351 27.0805 92.5399 26.954 92.8857 26.8502C93.3631 26.7035 93.9203 26.6303 94.5579 26.6303Z" fill="#BCBEC0"/>
<path d="M98.6429 33.2244H94.0727L93.926 33.7356H97.9038L95.1777 43.529H95.7751L98.6429 33.2244Z" fill="#BCBEC0"/>
<path d="M101.399 40.2796V40.304C101.399 40.3206 101.394 40.3652 101.383 40.4384C101.373 40.5116 101.378 40.5934 101.399 40.6826C101.418 40.7724 101.468 40.8497 101.548 40.9148C101.627 40.9797 101.757 41.0125 101.936 41.0125C102.115 41.0125 102.26 40.9798 102.37 40.9148C102.478 40.8498 102.568 40.7764 102.639 40.6949C102.698 40.6251 102.744 40.5592 102.782 40.4957C102.748 40.4987 102.713 40.5008 102.676 40.5008C102.497 40.5008 102.367 40.4685 102.288 40.4031C102.208 40.3384 102.158 40.2607 102.138 40.1712C102.118 40.0818 102.113 40.0003 102.124 39.9267C102.133 39.8536 102.138 39.8091 102.138 39.7927V39.7683L105.933 26.1186H102.108L101.965 26.6298H105.193L101.399 40.2796Z" fill="#BCBEC0"/>
<path d="M111.279 26.119H107.426L107.283 26.6303H110.539L106.507 41.0369C106.388 41.4602 106.218 41.8223 105.999 42.1235C105.805 42.3892 105.592 42.6208 105.36 42.8233C105.587 42.7035 105.802 42.5605 106.007 42.3938C106.276 42.1739 106.519 41.9138 106.739 41.6123C106.958 41.3113 107.127 40.9493 107.246 40.5257L111.279 26.119Z" fill="#BCBEC0"/>
<path d="M113.645 36.788H113.049L111.854 41.0368H116.515L115.795 43.5514L116.388 43.5533L117.254 40.5254H112.594L113.645 36.788Z" fill="#BCBEC0"/>
<path d="M113.885 33.7602H118.516L117.821 36.2767H118.419L119.255 33.2488H114.625L115.619 29.6579H115.02L113.885 33.7602Z" fill="#BCBEC0"/>
<path d="M119.823 29.1468H120.421L121.257 26.119H112.773L112.631 26.6303H120.518L119.823 29.1468Z" fill="#BCBEC0"/>
<path d="M90.6937 40.3436C90.6937 40.3763 90.6887 40.4289 90.6786 40.5022C90.6686 40.5758 90.6736 40.6573 90.6937 40.7468C90.7131 40.8362 90.7634 40.9138 90.8432 40.9786C90.9223 41.0438 91.0525 41.0763 91.2315 41.0763H91.9784L92.1186 40.5652H91.9712C91.7922 40.5652 91.6621 40.5326 91.5823 40.4675C91.5032 40.4026 91.4529 40.3251 91.4335 40.2354C91.4133 40.1463 91.4083 40.0644 91.4184 39.9912C91.4284 39.918 91.4335 39.8654 91.4335 39.8323L94.1819 29.9922V29.9675C94.1819 29.9352 94.2013 29.8784 94.2416 29.7966C94.2567 29.766 94.2754 29.7347 94.2948 29.7032C94.1611 29.7149 94.0453 29.7488 93.9504 29.8075C93.8304 29.8807 93.7362 29.9625 93.6664 30.0516C93.596 30.1414 93.5414 30.2269 93.5018 30.3081C93.4616 30.3896 93.4421 30.4467 93.4421 30.4791V30.5034" fill="#BCBEC0"/>
</svg>
