<svg width="90" height="95" viewBox="0 0 90 95" fill="none" xmlns="http://www.w3.org/2000/svg">
<path d="M74.6923 42.2327L63.1549 40.2538L75.181 27.9102L65.1932 29.9608L86.9715 2.76192L58.4982 10.0991L56.1318 13.3222L34.8798 41.1248L33.9414 41.2696C36.6529 35.0674 37.98 33.0963 43.6844 21.4388L31.1093 17.7202C31.1093 17.7202 30.5147 17.8082 29.499 18.0403C28.7473 18.1474 27.8269 18.3804 26.7856 18.7668C19.8514 20.8788 6.64981 26.8228 2.99933 42.0371C0.121057 54.0344 3.48368 63.2747 9.11563 68.9589C14.8335 75.8745 24.2386 77.7114 26.8716 78.0999L17.7312 93.4097L18.9143 92.1884L18.118 93.4835L32.5929 78.5905C40.3025 80.0661 57.0876 80.9202 71.1146 65.2647C84.6822 50.1223 74.6923 42.2327 74.6923 42.2327ZM26.7353 64.9479L27.221 64.2984L35.2677 62.4765L34.4055 62.7493L34.4136 62.7349L26.7353 64.9479Z" fill="#FBB040"/>
<path d="M75.3949 41.5329C71.549 40.8732 67.7034 40.2136 63.8575 39.554C63.9427 39.8722 64.0278 40.1906 64.1132 40.5085C68.1219 36.3941 72.1307 32.2796 76.1393 28.1651C76.942 27.3413 75.569 27.1187 75.0001 27.2355C71.6706 27.9189 68.3413 28.6024 65.0122 29.2861C65.392 29.5959 65.7717 29.906 66.1514 30.2158C73.4108 21.1497 80.6703 12.0832 87.9297 3.01717C88.6049 2.1741 87.4554 1.91625 86.7905 2.08752C80.5074 3.70657 74.2243 5.32561 67.9415 6.94467C64.9292 7.7209 61.9166 8.49715 58.9043 9.2734C56.9545 9.77583 56.0598 11.9019 54.8943 13.4265C47.8542 22.6367 40.814 31.847 33.7739 41.0569C34.1885 40.8351 34.6031 40.6127 35.0177 40.3909C34.7051 40.4392 34.3924 40.4871 34.0793 40.5356C34.4018 40.8035 34.7245 41.071 35.047 41.3392C38.0025 34.5951 41.5527 28.1181 44.79 21.5085C44.9765 21.1276 44.7675 20.8521 44.3872 20.7396C41.1816 19.7915 37.9761 18.8438 34.7704 17.8956C33.8023 17.6092 32.2992 16.8226 31.2473 16.9863C28.856 17.3584 26.5767 18.0537 24.3031 18.8616C14.3525 22.3973 5.87933 29.5846 2.48508 39.7964C-0.600505 49.0789 0.255761 59.9547 6.49693 67.7353C11.5126 73.9885 18.5668 77.6606 26.4348 78.8429C26.2118 78.5729 25.9892 78.3026 25.7661 78.0324C22.7195 83.1357 19.6729 88.239 16.6259 93.3422C15.9889 94.409 18.2514 94.1182 18.6901 93.6652C19.0844 93.2583 19.4787 92.8511 19.8731 92.4439C19.1849 92.3365 18.497 92.2286 17.8089 92.1208C17.5435 92.5526 17.2781 92.9842 17.0126 93.416C16.3643 94.4709 18.6373 94.1914 19.0768 93.739C23.902 88.7748 28.7269 83.8105 33.5517 78.846C32.9979 78.9948 32.4441 79.1433 31.8903 79.2916C41.726 81.1506 51.8885 79.6303 60.6676 74.7783C67.0069 71.2748 72.6902 65.879 76.4567 59.6887C78.8316 55.7854 80.2744 50.9893 78.8286 46.4969C78.24 44.6676 77.1331 42.8305 75.6155 41.6206C74.9352 41.0778 72.7975 42.0713 73.7692 42.8459C73.4097 42.5594 73.873 42.9515 73.9532 43.0288C74.2533 43.3186 74.5265 43.6355 74.7857 43.9617C75.6199 45.0132 76.2069 46.2169 76.595 47.4985C78.1159 52.521 75.6714 57.6844 72.8199 61.7169C65.3195 72.3224 53.0406 78.8213 40.0608 78.5864C38.5117 78.5583 36.9646 78.432 35.4284 78.2348C34.2907 78.0886 32.5455 77.3998 31.6222 78.3497C30.301 79.709 28.9799 81.0686 27.6584 82.4279C24.159 86.0286 20.6594 89.629 17.16 93.2299C17.8481 93.3373 18.536 93.4452 19.2242 93.553C19.4896 93.1212 19.7549 92.6895 20.0204 92.2577C20.6683 91.2036 18.3957 91.4807 17.9562 91.9347C17.5619 92.3417 17.1675 92.7488 16.7732 93.156C17.4613 93.2635 18.1492 93.3714 18.8373 93.479C21.884 88.376 24.9307 83.2724 27.9776 78.1692C28.2849 77.6544 27.713 77.4195 27.3089 77.3587C22.4989 76.6357 17.7597 74.7854 13.8287 71.9158C8.87869 68.3021 5.27821 62.7394 3.85867 56.811C2.211 49.9311 3.29729 42.1308 6.3726 35.8005C8.84896 30.703 12.9086 26.6157 17.6722 23.6262C19.9923 22.1704 22.4949 21.0156 25.0631 20.0729C26.344 19.6029 27.6692 19.1468 28.9955 18.8394C29.5077 18.7209 30.0334 18.6363 30.5489 18.5299C31.0853 18.4192 30.9102 18.57 30.4345 18.4292C30.6397 18.4901 30.8449 18.5508 31.0499 18.6114C35.0272 19.7875 39.0044 20.9636 42.982 22.1397C42.8477 21.8835 42.7134 21.627 42.5792 21.3708C39.3421 27.9806 35.7918 34.4577 32.8363 41.2014C32.5584 41.8359 33.2806 42.0859 33.8039 42.005C34.8794 41.8392 35.6405 41.6459 36.2989 40.7848C36.9314 39.9571 37.5639 39.13 38.1963 38.3026C40.5394 35.2369 42.8828 32.1714 45.2259 29.1059C49.2102 23.8936 53.1944 18.6811 57.179 13.4687C58.0078 12.3846 58.7967 11.2683 59.6046 10.1681C59.2962 10.3703 58.9878 10.5723 58.6796 10.7745C68.1708 8.32887 77.6618 5.88298 87.1529 3.43735C86.7732 3.12757 86.3934 2.81749 86.0137 2.50771C78.7543 11.574 71.4947 20.6403 64.2353 29.7066C63.5442 30.5694 64.7219 30.7702 65.3747 30.6362C68.704 29.9528 72.0334 29.2693 75.3625 28.5856C74.9827 28.2758 74.603 27.9657 74.2232 27.656C70.2146 31.7704 66.2058 35.8849 62.1972 39.9996C61.8649 40.3405 61.9215 40.8629 62.4528 40.9541C66.2987 41.6138 70.1444 42.2734 73.9903 42.933C74.5681 43.0321 75.2198 42.9174 75.6518 42.4874C75.9901 42.1497 75.9206 41.623 75.3949 41.5329Z" fill="black"/>
<path d="M27.8411 65.0169C28.003 64.8002 28.1649 64.5837 28.3268 64.3676C28.0184 64.5696 27.7101 64.7718 27.4019 64.9739C30.0842 64.3665 32.7665 63.7593 35.4485 63.1519C35.328 62.702 35.2078 62.2517 35.0872 61.8018C34.7999 61.8927 34.5123 61.9837 34.225 62.0746C34.6536 62.3224 35.0826 62.5705 35.5113 62.8183C35.514 62.8134 35.5166 62.8089 35.5194 62.804C35.9641 62.0161 34.6858 61.9298 34.2331 62.0602C31.6735 62.798 29.1141 63.5356 26.5548 64.2734C25.1406 64.6812 25.4926 66.034 26.9162 65.6235C29.4758 64.8857 32.0352 64.1481 34.5944 63.4103C34.1658 63.1625 33.7369 62.9144 33.3081 62.6665C33.3055 62.6714 33.3028 62.676 33.3 62.6809C32.86 63.4609 34.1304 63.5689 34.5864 63.4246C34.8736 63.3338 35.1613 63.2429 35.4485 63.1519C36.8549 62.7071 36.5292 61.4753 35.0872 61.8018C33.3995 62.1839 31.7121 62.5659 30.0247 62.9479C29.1182 63.1533 28.2117 63.3586 27.3048 63.5637C26.4864 63.7493 26.1113 64.2356 25.6296 64.8795C25.2766 65.3516 25.928 65.6668 26.2984 65.69C26.8848 65.7272 27.4876 65.4893 27.8411 65.0169Z" fill="black"/>
<path d="M74.691 41.4218L62.3946 39.3128L48.43 53.5744L55.5698 54.6445L28.3367 76.6826C28.3367 76.6826 52.2272 85.533 71.1134 64.454C84.6807 49.3114 74.691 41.4218 74.691 41.4218Z" fill="black"/>
<path d="M74.9924 41.1952C71.9303 40.6701 68.8683 40.1446 65.8063 39.6195C64.7694 39.4417 63.7329 39.2642 62.6961 39.0862C62.0376 38.9731 61.4617 39.8321 61.0749 40.2271C56.7141 44.6806 52.3533 49.1341 47.9925 53.5875C47.876 53.7066 48.0235 53.7848 48.1295 53.8007C49.705 54.037 51.2806 54.2732 52.8561 54.5091C53.5969 54.6203 54.3377 54.7313 55.0788 54.8421C55.2921 54.8741 55.3116 54.5056 54.9891 54.7667C53.009 56.3692 51.0286 57.9717 49.0485 59.5743C42.7925 64.6368 36.5367 69.6993 30.2807 74.7621C29.5084 75.3871 28.736 76.012 27.9636 76.6371C27.8716 76.7115 27.7992 76.8343 27.9513 76.8906C33.273 78.85 39.4622 79.0925 45.0293 78.494C57.5314 77.1504 69.2532 69.5359 75.7879 58.7956C78.8756 53.7206 80.5365 45.5529 75.1375 41.2474C74.9052 41.0618 74.0402 41.4333 74.2451 41.5968C75.6979 42.7553 76.6768 44.5786 77.235 46.3129C78.843 51.3086 76.5523 56.5389 73.7478 60.6184C66.2873 71.4709 53.9218 78.2367 40.774 78.2962C37.3303 78.3118 33.8533 77.8895 30.5199 77.0175C29.9277 76.8627 29.3365 76.6936 28.7593 76.4885C28.8576 76.5235 28.5725 76.8406 28.8795 76.5921C29.1439 76.3781 29.4082 76.1644 29.6725 75.9504C35.5656 71.1814 41.4586 66.4125 47.3517 61.6435C50.2156 59.3259 53.0795 57.0083 55.9438 54.6906C56.093 54.57 56.0624 54.4471 55.8708 54.4184C53.5544 54.0713 51.2378 53.7242 48.9218 53.3768C48.6298 53.333 48.7996 53.6314 48.9861 53.4409C49.209 53.2131 49.4318 52.9853 49.6548 52.7577C50.4892 51.906 51.3235 51.0538 52.1576 50.2017C55.7159 46.5678 59.2742 42.9338 62.8326 39.2999C62.5863 39.3797 62.3401 39.4599 62.0939 39.5397C66.1927 40.2429 70.2916 40.9458 74.3903 41.6487C74.6411 41.6912 75.5057 41.2832 74.9924 41.1952Z" fill="black"/>
<path d="M42.7317 20.6628L31.3277 40.8617L45.8167 38.6262L26.5129 64.4322L36.9138 61.1449L27.5751 77.3803C27.5751 77.3803 -1.6163 74.5843 5.78358 46.1308C11.7677 23.1216 26.0475 17.193 30.3737 17.1574C30.8372 17.1536 42.7317 20.6628 42.7317 20.6628Z" fill="black"/>
<path d="M42.2903 20.6623C38.489 27.3953 34.6877 34.1282 30.8864 40.8612C30.7499 41.103 31.0946 41.132 31.2578 41.1068C36.0876 40.3617 40.9173 39.6166 45.7467 38.8715C45.6229 38.7895 45.4992 38.7077 45.3754 38.6257C38.9407 47.2277 32.506 55.8297 26.0716 64.4318C25.861 64.7131 26.4489 64.6902 26.5719 64.6515C30.0388 63.5557 33.5058 62.4597 36.9727 61.3641C36.806 61.2908 36.6392 61.2177 36.4725 61.1445C33.3595 66.5562 30.2466 71.968 27.1338 77.3799C27.3795 77.2981 27.6252 77.2164 27.8711 77.1347C23.9101 76.7494 19.9004 75.3566 16.415 73.4849C13.2965 71.81 10.5296 69.4907 8.5038 66.5739C5.99041 62.9546 5.01251 58.5521 5.06279 54.1942C5.13766 47.7102 7.3821 41.0847 10.1603 35.2973C12.4792 30.4678 15.671 25.995 19.753 22.5051C22.2406 20.3785 25.1744 18.5357 28.3628 17.692C31.0164 16.9899 33.8542 18.4095 36.4762 19.168C38.4355 19.7347 40.3932 20.3068 42.3496 20.8838C42.6233 20.9644 43.4836 20.5506 43.1139 20.4415C39.8758 19.4864 36.6352 18.538 33.3855 17.6228C32.3841 17.3408 31.2578 16.8487 30.1991 16.9185C29.1631 16.9867 28.1438 17.2483 27.1633 17.5792C19.1547 20.2813 13.2576 27.4518 9.5444 34.7494C6.63422 40.4691 4.49762 47.014 4.14165 53.4515C3.90137 57.7973 4.73601 62.1693 6.97046 65.9321C10.2831 71.5099 16.2834 74.9017 22.3757 76.6174C23.9728 77.067 25.6234 77.4645 27.2792 77.6255C27.4987 77.6468 27.8903 77.5998 28.0165 77.3803C31.1294 71.9686 34.2423 66.5568 37.3551 61.1449C37.5241 60.8511 37.0076 60.8771 36.8549 60.9253C33.3879 62.0211 29.9209 63.1171 26.4541 64.2127C26.6208 64.2859 26.7876 64.359 26.9543 64.4323C33.389 55.8303 39.8237 47.2283 46.2581 38.6263C46.4324 38.3936 46.0192 38.3603 45.8868 38.3806C41.057 39.1257 36.2273 39.8709 31.3978 40.616C31.5216 40.698 31.6454 40.7797 31.7692 40.8617C35.5705 34.1287 39.3718 27.3958 43.1731 20.6628C43.3847 20.2878 42.4327 20.4098 42.2903 20.6623Z" fill="black"/>
<path d="M43.6844 20.6277L31.1094 16.9091C31.1094 16.9091 8.01991 20.3023 2.99963 41.226C-2.02067 62.1503 11.9398 74.693 23.8219 74.5983C21.9826 71.0478 26.9853 56.8104 33.1508 42.295C36.4456 34.5366 37.4535 33.3618 43.6844 20.6277Z" fill="black"/>
<path d="M44.0638 20.4269C40.8582 19.4791 37.6527 18.5311 34.447 17.583C33.5397 17.3146 32.2688 16.6517 31.3031 16.6877C30.8471 16.7045 30.3746 16.8444 29.9325 16.9394C23.0931 18.4066 16.4714 21.6082 11.3008 26.343C2.71252 34.2073 -0.673087 47.3579 2.7682 58.4646C5.56917 67.5051 13.9391 74.8233 23.6275 74.8197C23.7278 74.8197 24.3911 74.6834 24.29 74.4727C23.6848 73.2116 23.8873 71.6331 24.0613 70.2998C24.3727 67.9153 25.0297 65.5709 25.7112 63.2708C27.6356 56.7722 30.1757 50.4483 32.7823 44.1997C36.1556 36.113 40.2985 28.4179 44.1492 20.5555C44.249 20.3519 43.3481 20.4385 43.2199 20.7004C39.2892 28.7267 35.0909 36.5827 31.6477 44.8374C29.0567 51.0489 26.5807 57.3431 24.6681 63.8016C23.9975 66.066 23.4035 68.3715 23.0972 70.7164C22.9296 71.9991 22.7761 73.52 23.354 74.7243C23.5748 74.6085 23.7956 74.4929 24.0164 74.3772C13.3885 74.3812 5.09941 65.4055 3.00253 55.5072C0.502927 43.708 5.33915 31.1577 14.9381 24.0234C19.4734 20.6528 24.9805 18.2583 30.5384 17.205C30.6839 17.1775 30.8296 17.1517 30.9754 17.1282C30.9109 17.1388 30.5928 17.0697 31.0547 17.2064C32.4055 17.6058 33.7562 18.0053 35.1068 18.4047C37.8396 19.2129 40.5723 20.021 43.3052 20.829C43.5467 20.9001 44.3887 20.5229 44.0638 20.4269Z" fill="black"/>
<path d="M40.4876 21.1467L27.8356 43.7046L36.9255 41.5696L23.6261 66.0118L32.7821 63.6376L26.093 76.2346C26.093 76.2346 3.30224 74.1838 8.562 45.8656C12.9039 22.4903 35.4438 21.1757 39.7694 21.1399C40.2333 21.1356 40.4876 21.1467 40.4876 21.1467Z" fill="black"/>
<path d="M40.0484 21.1513C35.8311 28.6705 31.6138 36.19 27.3963 43.7092C27.2301 44.0057 27.7449 43.9497 27.8929 43.9148C30.9227 43.2033 33.9527 42.4913 36.9828 41.7798C36.8058 41.7321 36.6287 41.6845 36.4517 41.6374C32.0185 49.7847 27.5853 57.9322 23.1523 66.0796C23.0282 66.3075 23.6234 66.2376 23.6834 66.222C26.7354 65.4305 29.7873 64.6389 32.8394 63.8477C32.6623 63.8001 32.4853 63.7524 32.3082 63.7054C30.0784 67.9045 27.8487 72.1034 25.6192 76.3025C25.8767 76.2003 26.134 76.098 26.3914 75.9957C22.5341 75.6408 18.6204 73.78 15.6516 71.3688C7.83951 65.025 7.34003 54.1964 9.18824 45.0312C11.0046 36.0252 16.56 28.5442 24.9102 24.6558C29.6002 22.4719 35.0983 21.2221 40.2963 21.3929C40.6233 21.4037 41.3234 20.9221 40.6806 20.901C34.7746 20.707 28.5704 22.2668 23.3264 24.9099C19.3656 26.9062 15.8986 29.8009 13.2741 33.3805C9.81478 38.0988 8.20413 43.8153 7.54706 49.5637C6.58133 58.0125 8.40765 66.982 15.5121 72.3133C18.4026 74.4827 22.1598 76.1386 25.7959 76.4735C26.0611 76.4979 26.4322 76.4232 26.5681 76.1667C28.798 71.9676 31.0276 67.7687 33.2572 63.5696C33.3791 63.3404 32.7877 63.411 32.7261 63.4273C29.674 64.2186 26.6222 65.0104 23.5702 65.8014C23.7472 65.8491 23.9242 65.8967 24.1013 65.9438C28.5345 57.7965 32.9677 49.6492 37.4007 41.5017C37.5253 41.2725 36.9282 41.3456 36.8696 41.3594C33.8397 42.0709 30.8097 42.7828 27.7796 43.4943C27.945 43.5628 28.1107 43.6315 28.2761 43.7C32.4934 36.1808 36.7106 28.6615 40.9282 21.1421C41.1339 20.7765 40.1851 20.9072 40.0484 21.1513Z" fill="black"/>
<path d="M72.7547 42.0242L55.5705 54.6446L60.8962 54.9236L31.4788 77.1828C31.4788 77.1828 54.7307 81.3406 69.1096 64.4447C72.9882 59.3775 78.1445 48.2723 72.7547 42.0242Z" fill="black"/>
<path d="M72.3903 42.0121C66.6622 46.2188 60.9343 50.4255 55.2062 54.6325C55.0645 54.7365 55.0696 54.8278 55.2613 54.8379C56.9051 54.9239 58.5488 55.0102 60.1927 55.0963C60.6196 55.1187 60.5578 54.8909 60.3345 55.0597C60.0904 55.2446 59.8464 55.4291 59.6026 55.6139C57.1762 57.4496 54.7499 59.2854 52.3236 61.1214C45.9513 65.9428 39.5793 70.7645 33.207 75.586C32.4872 76.1306 31.7675 76.6753 31.048 77.2199C30.9726 77.2767 31.001 77.3512 31.0872 77.3665C37.1572 78.4415 43.756 77.8347 49.6914 76.3726C55.0159 75.0609 60.0542 72.7026 64.3978 69.3463C69.238 65.606 72.6152 60.6737 74.5097 54.8622C75.9092 50.5692 76.2489 45.5338 73.205 41.8622C73.0572 41.6841 72.1623 42.0132 72.3058 42.1861C76.5063 47.2529 74.2151 54.6152 71.5625 59.8474C68.6585 65.5758 63.7907 69.9126 58.1485 72.8776C50.5037 76.8955 41.2467 78.198 32.7087 77.1206C32.461 77.0896 32.214 77.0546 31.9677 77.0148C31.831 76.9926 31.8605 77.1831 32.0416 77.0462C32.6783 76.5643 33.3152 76.0825 33.9522 75.6003C36.7924 73.4516 39.6325 71.3022 42.4727 69.1533C48.4433 64.6355 54.4139 60.1177 60.3845 55.6001C60.6992 55.362 61.0137 55.1239 61.3281 54.8858C61.46 54.7862 61.2879 54.734 61.2065 54.7299C60.0561 54.6696 58.9058 54.6095 57.7554 54.5492C57.1803 54.5188 56.6052 54.4886 56.03 54.4585C55.8992 54.4517 55.8507 54.7188 56.1583 54.4929C57.922 53.1977 59.6856 51.9025 61.4492 50.6074C65.3397 47.7499 69.23 44.8931 73.1202 42.0359C73.5064 41.7526 72.5539 41.8917 72.3903 42.0121Z" fill="black"/>
<path d="M29.2537 18.2188L35.8122 20.5502L28.9902 19.1714L29.2537 18.2188Z" fill="black"/>
<path d="M26.9175 19.0592L32.3649 21.1904L26.637 20.0073L26.9175 19.0592Z" fill="black"/>
<path d="M24.6474 19.7105L29.4905 21.7243L24.3562 20.6556L24.6474 19.7105Z" fill="black"/>
<path d="M22.588 20.3344L29.0117 22.7234L22.3115 21.2835L22.588 20.3344Z" fill="black"/>
<path d="M73.1379 42.276L63.5381 40.6472L50.0495 54.4343L54.5952 54.4194L30.5752 76.3988C30.5752 76.3988 50.8052 78.3831 55.8869 72.7833C60.9691 67.1837 73.1379 42.276 73.1379 42.276Z" fill="#F7941E"/>
<path d="M73.5296 42.0881C70.7817 41.622 68.0337 41.1558 65.2854 40.6896C64.7411 40.597 63.5888 40.1874 63.1064 40.6807C62.6144 41.1834 62.1222 41.6866 61.6303 42.1893C57.6263 46.282 53.6221 50.3749 49.6181 54.4677C49.5129 54.5749 49.6342 54.6341 49.7423 54.6338C51.2511 54.6287 52.7598 54.6238 54.2686 54.6189C54.0164 54.6197 54.2034 54.4163 53.861 54.7296C53.5458 55.0177 53.2306 55.3065 52.9155 55.5946C50.3467 57.9452 47.7776 60.2959 45.2088 62.6465C40.2129 67.218 35.2169 71.7894 30.2209 76.3608C30.195 76.3847 30.1694 76.4082 30.1433 76.432C30.0234 76.5416 30.174 76.5889 30.2677 76.5981C33.0293 76.8666 35.8174 76.9472 38.5904 76.9385C43.0917 76.9244 47.7563 76.6623 52.0584 75.235C53.6631 74.7028 55.2767 73.9155 56.4203 72.6387C57.516 71.4155 58.4241 70.0127 59.3115 68.6362C61.963 64.524 64.3005 60.2029 66.6019 55.8882C69.0151 51.3646 71.3579 46.7997 73.6094 42.1933C73.6851 42.0386 72.788 42.1119 72.6677 42.3582C69.4656 48.9095 66.1089 55.3971 62.5468 61.7594C60.5038 65.4085 58.4531 69.2448 55.7602 72.4672C52.9109 75.8768 47.24 76.1617 43.1506 76.4168C39.305 76.6566 35.4253 76.5625 31.5854 76.2602C31.3532 76.2421 31.121 76.2223 30.8891 76.2001C31.1713 76.2274 31.0099 76.3649 31.3629 76.0421C32.1554 75.3168 32.9482 74.5917 33.7406 73.8662C39.6958 68.4169 45.6507 62.9677 51.6059 57.5186C52.7471 56.4745 53.888 55.4304 55.0289 54.3862C55.143 54.2818 55.0045 54.2198 54.9045 54.2201C53.8894 54.2237 52.8741 54.2266 51.8589 54.2301C51.3843 54.2318 50.91 54.2333 50.4354 54.2347C50.5481 54.2345 50.4146 54.4717 50.6984 54.1817C52.1011 52.7477 53.5042 51.3137 54.907 49.88C57.9285 46.7915 60.9503 43.703 63.9718 40.6144C63.6972 40.6879 63.4226 40.7618 63.1483 40.8354C66.3481 41.3782 69.5481 41.9212 72.748 42.4642C72.9759 42.5029 73.8003 42.1341 73.5296 42.0881Z" fill="black"/>
<path d="M17.7307 92.5988L36.3439 61.4215L24.7386 64.0489L45.5263 38.7729L34.5301 40.77L57.7265 10.424L85.2932 3.07109L63.5152 30.2697L73.5034 28.2196L48.3981 53.9875L57.2765 51.7765L17.7307 92.5988Z" fill="black"/>
<path d="M18.2087 92.6159C24.4112 82.2266 30.6137 71.8372 36.8165 61.4479C36.8184 61.4449 36.8204 61.4419 36.8219 61.4389C37.0244 61.1 36.443 61.1146 36.2708 61.1533C32.4025 62.029 28.5339 62.9049 24.6656 63.7806C24.8494 63.8759 25.0329 63.9711 25.2167 64.0664C32.146 55.6408 39.075 47.2158 46.0044 38.7904C46.2095 38.5409 45.7405 38.4508 45.5924 38.4779C41.9268 39.1435 38.2615 39.8093 34.5961 40.4749C34.7335 40.5791 34.8707 40.6835 35.008 40.7874C42.6688 30.7655 50.3292 20.7439 57.9899 10.722C58.4578 10.1097 57.4218 10.7931 58.1108 10.6093C58.9178 10.394 59.7252 10.1786 60.5322 9.96353C63.7389 9.10802 66.9458 8.25278 70.1525 7.39753C75.2231 6.04498 80.2936 4.69244 85.364 3.34016C85.1801 3.24493 84.9966 3.14968 84.8129 3.05472C77.5535 12.121 70.2941 21.1873 63.0348 30.2533C62.7777 30.5747 63.4556 30.5655 63.586 30.5391C66.9153 29.8556 70.2444 29.1721 73.5738 28.4887C73.4119 28.3683 73.2503 28.2476 73.0884 28.1272C64.72 36.7165 56.3517 45.3058 47.9834 53.8952C47.645 54.2425 48.2272 54.3167 48.4688 54.2565C51.4282 53.5196 54.3878 52.7826 57.3471 52.0456C57.1853 51.9251 57.0237 51.8045 56.8618 51.6841C47.7047 61.137 38.5475 70.5894 29.3905 80.0423C25.3656 84.1968 21.3408 88.3518 17.316 92.5063C16.8919 92.9441 17.8973 92.9454 18.143 92.692C27.3001 83.239 36.4573 73.7866 45.6143 64.3337C49.6392 60.1792 53.664 56.0241 57.6888 51.8697C58.0261 51.5217 57.4458 51.4479 57.2034 51.5082C54.244 52.2452 51.2844 52.9823 48.325 53.7193C48.4869 53.8396 48.6486 53.9603 48.8105 54.0807C57.1787 45.4915 65.5471 36.9021 73.9155 28.3128C74.2598 27.9592 73.666 27.903 73.43 27.9513C70.1006 28.6349 66.7715 29.3183 63.4421 30.0017C63.6259 30.097 63.8094 30.1922 63.9933 30.2875C71.2525 21.2211 78.5119 12.1548 85.7713 3.08854C86.0234 2.7736 85.3571 2.76657 85.2202 2.8031C78.8879 4.49222 72.5559 6.18107 66.2237 7.87019C63.4518 8.60937 60.6801 9.34883 57.9083 10.088C56.795 10.3851 56.0244 12.006 55.3731 12.8583C48.2653 22.1567 41.1576 31.4552 34.0499 40.7539C33.8559 41.0077 34.305 41.095 34.4618 41.0663C38.1275 40.4007 41.7928 39.735 45.4581 39.0694C45.3208 38.9652 45.1835 38.8608 45.0462 38.7569C38.1169 47.1825 31.1878 55.6075 24.2585 64.0328C23.9982 64.3494 24.6802 64.3478 24.8096 64.3185C28.678 63.4428 32.5466 62.5669 36.4149 61.6911C36.2311 61.5958 36.0475 61.5006 35.8638 61.4054C29.6613 71.7947 23.4587 82.1841 17.2559 92.5735C17.2541 92.5764 17.2522 92.5794 17.2505 92.5824C16.996 93.009 18.03 92.9155 18.2087 92.6159Z" fill="black"/>
<path d="M18.1172 92.6728L38.0207 60.301L26.4155 62.9287L47.2032 37.6527L36.2068 39.6498L58.497 9.28799L86.9703 1.95087L65.1921 29.1497L75.1799 27.0992L50.0752 52.8667L58.9533 50.6562L18.1172 92.6728Z" fill="black"/>
<path d="M18.6096 92.7375C25.1921 82.0319 31.7744 71.3263 38.3566 60.6207C38.4089 60.5357 38.4613 60.4508 38.5134 60.3657C38.7389 59.9995 38.1456 59.8863 37.924 59.9364C34.0556 60.8122 30.187 61.6886 26.3186 62.5644C26.4949 62.7392 26.6714 62.9142 26.8479 63.089C33.7772 54.6637 40.7063 46.2384 47.6356 37.813C47.9585 37.4204 47.4166 37.2321 47.1064 37.2884C43.4408 37.954 39.7754 38.6199 36.1101 39.2854C36.2863 39.4602 36.4628 39.6353 36.6393 39.81C44.0292 29.744 51.419 19.6782 58.8089 9.61223C59.0146 9.3322 58.9189 9.56867 58.6079 9.64903C58.7732 9.60655 58.9384 9.5638 59.1035 9.52133C60.0463 9.27836 60.9894 9.0354 61.9321 8.79243C65.2182 7.94557 68.5047 7.09871 71.7907 6.25185C76.8832 4.93961 81.9757 3.62738 87.0681 2.31516C86.8919 2.14036 86.7154 1.96531 86.5389 1.79053C79.2795 10.8568 72.02 19.9234 64.7606 28.9894C64.4482 29.3796 64.9714 29.5795 65.2898 29.5141C68.6192 28.8305 71.9484 28.1468 75.2777 27.4634C75.1015 27.2886 74.925 27.1136 74.7485 26.9388C66.3802 35.5281 58.0121 44.1174 49.6438 52.7064C49.2908 53.0687 49.8811 53.3038 50.173 53.2311C53.1324 52.4941 56.0918 51.7576 59.0511 51.0205C58.8749 50.8458 58.6984 50.6707 58.5219 50.4959C49.4016 59.8799 40.2817 69.2635 31.1614 78.6472C26.6695 83.2689 22.1777 87.8907 17.6857 92.5125C17.233 92.9784 18.2185 93.1732 18.5488 92.8333C27.669 83.4494 36.789 74.0657 45.9093 64.6821C50.4011 60.0603 54.893 55.4386 59.3849 50.8168C59.7373 50.4542 59.1478 50.2194 58.8557 50.2922C55.8963 51.0292 52.937 51.7657 49.9776 52.5027C50.1538 52.6775 50.3303 52.8525 50.5068 53.0273C58.8752 44.438 67.2432 35.849 75.6115 27.2597C75.972 26.8896 75.3669 26.6766 75.0823 26.7351C71.7529 27.4185 68.4238 28.1023 65.0944 28.7857C65.2706 28.9604 65.4471 29.1355 65.6236 29.3103C72.883 20.244 80.1426 11.1775 87.4019 2.11141C87.706 1.73155 87.1976 1.50292 86.8727 1.5868C80.5896 3.20584 74.3068 4.8249 68.0238 6.44394C65.0115 7.22019 61.9991 7.99643 58.9865 8.77268C57.7651 9.08762 57.304 10.1653 56.5736 11.1599C49.6408 20.6031 42.708 30.0465 35.7752 39.4899C35.4806 39.8912 35.9733 40.0746 36.3044 40.0146C39.97 39.349 43.6354 38.6831 47.3007 38.0175C47.1245 37.8428 46.948 37.6677 46.7715 37.4929C39.8422 45.9183 32.9131 54.3436 25.9837 62.769C25.6681 63.1529 26.1965 63.3652 26.5131 63.2935C30.3814 62.4177 34.25 61.5414 38.1183 60.6655C37.9217 60.5224 37.7253 60.3791 37.5288 60.2362C30.9463 70.9418 24.3639 81.6474 17.7817 92.353C17.7296 92.438 17.6771 92.523 17.625 92.608C17.3209 93.103 18.3672 93.132 18.6096 92.7375Z" fill="black"/>
<path d="M39.1687 21.1592L26.5169 43.7174L35.6068 41.5824L22.3068 66.0245L31.4625 63.6509L24.7738 76.248C24.7738 76.248 1.9827 74.1972 7.24273 45.8789C11.5848 22.5029 34.1245 21.1879 38.4504 21.1522C38.9143 21.1484 39.1687 21.1592 39.1687 21.1592Z" fill="black"/>
<path d="M38.6957 21.2328C34.4784 28.7523 30.2611 36.2715 26.0439 43.791C25.926 44.0007 26.5193 43.9135 26.5666 43.9024C29.5965 43.1909 32.6267 42.4793 35.6566 41.7675C35.4823 41.7304 35.3079 41.6933 35.1339 41.6559C30.7006 49.8034 26.2674 57.9509 21.8339 66.0981C21.7196 66.3083 22.3061 66.2228 22.3566 66.2095C25.4087 65.4185 28.4605 64.627 31.5123 63.8359C31.3379 63.7989 31.1637 63.7617 30.9895 63.7244C28.76 67.9235 26.5304 72.1224 24.3009 76.3215C24.5593 76.2231 24.8176 76.1244 25.076 76.0259C21.2168 75.6706 17.3028 73.7996 14.3332 71.3881C6.51953 65.0429 6.01815 54.2033 7.86664 45.0374C9.67755 36.0578 15.183 28.6351 23.4702 24.6987C28.1362 22.4823 33.6757 21.2136 38.8666 21.3805C39.1033 21.3881 39.9687 20.953 39.4706 20.937C33.6041 20.7485 27.4691 22.2444 22.2347 24.831C18.2748 26.7879 14.7887 29.6278 12.1341 33.1641C8.63695 37.8237 6.97658 43.476 6.2733 49.1946C5.22026 57.755 6.96929 66.9009 14.1905 72.32C17.0801 74.4885 20.8377 76.1346 24.4717 76.469C24.7146 76.4914 25.1201 76.4116 25.2469 76.1733C27.4764 71.9741 29.706 67.7753 31.9356 63.5761C32.0481 63.3646 31.4647 63.4512 31.4129 63.4647C28.3607 64.2558 25.309 65.0472 22.2572 65.8383C22.4316 65.8754 22.6058 65.9125 22.78 65.9498C27.2132 57.8023 31.6464 49.6549 36.0799 41.5076C36.195 41.2964 35.6063 41.3845 35.5571 41.3962C32.5273 42.1078 29.497 42.8193 26.4672 43.5312C26.6415 43.5683 26.8159 43.6054 26.9899 43.6427C31.2071 36.1232 35.4244 28.604 39.6417 21.0845C39.7468 20.8981 38.8416 20.9725 38.6957 21.2328Z" fill="black"/>
<path d="M41.8877 20.9187L32.0497 18.0748C32.0497 18.0748 9.98351 21.0661 4.96347 41.9899C-0.0568091 62.9147 13.904 75.4571 25.786 75.3621C22.9637 69.9146 4.31641 28.1928 41.8877 20.9187Z" fill="#F7941E"/>
<path d="M42.2677 20.7175C39.1246 19.809 35.9815 18.9004 32.8383 17.9918C31.6252 17.6412 30.1273 18.2411 28.9562 18.5533C21.2671 20.6023 14.0397 24.9404 9.31559 31.4331C3.06902 40.0187 1.47704 52.6491 5.94891 62.3431C9.44074 69.9121 17.1222 75.5869 25.5917 75.5836C25.6874 75.5836 26.3609 75.4429 26.2541 75.2365C23.9632 70.7998 22.295 65.9686 21.0355 61.148C19.1254 53.8366 18.2318 45.8704 20.3549 38.5054C21.5066 34.5097 23.6856 30.9091 26.729 28.0763C30.8599 24.2313 36.3598 22.2048 41.8102 21.1285C42.2086 21.0497 42.6159 20.5803 41.9647 20.7088C33.2024 22.4394 24.8192 26.6393 20.8027 35.0124C17.4998 41.8977 17.7764 50.0213 19.1786 57.3477C20.3687 63.5649 22.4061 69.8507 25.317 75.4881C25.5379 75.3723 25.7587 75.2567 25.9795 75.141C15.3514 75.1456 7.06249 66.1697 4.96561 56.2713C2.47466 44.5113 7.2744 31.7649 16.8999 24.6693C21.0363 21.6203 25.9866 19.4664 31.0247 18.452C31.3357 18.3896 31.6485 18.3309 31.9626 18.2862C31.4518 18.359 31.9002 18.3425 32.1964 18.4282C32.7953 18.6014 33.3941 18.7745 33.9929 18.9475C36.498 19.6715 39.0027 20.3955 41.5075 21.1196C41.751 21.1894 42.5918 20.8111 42.2677 20.7175Z" fill="black"/>
<path d="M19.6256 91.0362C26.1532 80.7443 32.6809 70.4523 39.2089 60.1604C39.2132 60.1539 39.2172 60.1468 39.2215 60.1404C39.4354 59.8035 38.8769 59.6917 38.6731 59.741C35.2248 60.5765 31.7765 61.412 28.3285 62.2475C28.4925 62.4101 28.6566 62.5728 28.8204 62.7353C35.2254 54.5565 41.6306 46.3776 48.0356 38.1985C48.3264 37.8276 47.8388 37.6606 47.5437 37.7107C44.2888 38.2645 41.034 38.8184 37.7793 39.3722C37.9434 39.5349 38.1074 39.6975 38.2715 39.86C45.437 30.1114 52.6026 20.3625 59.7681 10.6133C59.6217 10.8125 59.3179 10.8335 59.6384 10.7477C59.8712 10.6858 60.1035 10.6235 60.3363 10.5613C61.238 10.3202 62.1393 10.0792 63.041 9.83808C65.8779 9.07973 68.7151 8.32135 71.552 7.56269C75.6683 6.46231 79.7844 5.36193 83.9003 4.26128C83.7362 4.09867 83.5722 3.9358 83.4084 3.77319C76.3359 12.676 69.2636 21.5792 62.191 30.4821C61.9001 30.8484 62.3877 31.0264 62.6832 30.9699C65.5844 30.4166 68.4857 29.863 71.3867 29.3097C71.2226 29.1471 71.0585 28.9842 70.8944 28.8216C63.1721 37.2164 55.4495 45.6115 47.7271 54.0061C47.4094 54.3514 47.9415 54.5595 48.2191 54.4939C50.8344 53.8784 53.4497 53.2624 56.065 52.6465C55.9009 52.484 55.7368 52.3214 55.5728 52.1587C46.3752 61.8214 37.1777 71.4843 27.9801 81.1468C24.9088 84.3736 21.8376 87.6001 18.7664 90.8265C18.3493 91.2648 19.2644 91.4447 19.5693 91.1247C28.7668 81.4621 37.9645 71.7992 47.162 62.1365C50.2333 58.9099 53.3045 55.6834 56.3758 52.4569C56.7012 52.1152 56.1564 51.905 55.8836 51.9691C53.2683 52.5846 50.653 53.2007 48.0378 53.8165C48.2017 53.9791 48.3658 54.1417 48.5297 54.3043C56.2522 45.9099 63.9746 37.5148 71.6972 29.12C72.0221 28.767 71.4764 28.5803 71.205 28.6319C68.3038 29.1853 65.4025 29.7388 62.5015 30.2924C62.6656 30.455 62.8297 30.6176 62.9938 30.7802C70.0661 21.8773 77.1386 12.9744 84.2109 4.07162C84.4907 3.71934 84.023 3.50235 83.7189 3.58352C77.2388 5.31593 70.759 7.04835 64.2792 8.78077C62.9045 9.14819 61.5296 9.51588 60.1547 9.88332C59.7687 9.98635 59.1702 10.0356 58.9157 10.3822C57.5869 12.1899 56.2585 13.9972 54.9298 15.8049C49.1092 23.7239 43.2888 31.6428 37.4683 39.5616C37.1922 39.9369 37.6541 40.1016 37.9604 40.0494C41.2151 39.4956 44.4699 38.9418 47.7248 38.3879C47.5607 38.2253 47.3966 38.0627 47.2329 37.9001C40.8279 46.0789 34.4227 54.2578 28.0177 62.4369C27.7374 62.7943 28.2057 62.9983 28.5095 62.9248C31.9579 62.0892 35.4062 61.2537 38.8542 60.4182C38.6716 60.2854 38.4885 60.1522 38.3058 60.0188C31.7781 70.3109 25.2505 80.6028 18.7225 90.8947C18.7182 90.9012 18.7141 90.9082 18.7098 90.9147C18.4217 91.3704 19.3955 91.3988 19.6256 91.0362Z" fill="black"/>
<path d="M41.9475 20.8939L29.2951 43.4518L38.3851 41.3174L25.0852 65.7595L34.2411 63.3853L27.5517 75.9824C27.5517 75.9824 4.76101 73.932 10.0211 45.6133C14.3629 22.238 36.9026 20.9228 41.2285 20.8872C41.6926 20.8831 41.9475 20.8939 41.9475 20.8939Z" fill="#FBB040"/>
<path d="M41.0368 20.7899C36.8193 28.3091 32.602 35.8284 28.3845 43.3476C28.0026 44.0289 29.0505 44.1925 29.4673 44.0949C32.4972 43.3833 35.5271 42.672 38.5572 41.9604C38.1964 41.7113 37.8354 41.4623 37.4746 41.2132C33.0413 49.3605 28.6081 57.508 24.1746 65.6552C23.8067 66.3314 24.8297 66.5134 25.2573 66.4026C28.3094 65.6111 31.3612 64.8195 34.4132 64.0283C34.0524 63.7792 33.6914 63.5302 33.3304 63.2811C31.1006 67.4802 28.8711 71.6791 26.6412 75.8782C27.0558 75.6845 27.4701 75.491 27.8848 75.2976C24.1916 74.9575 20.3273 73.1263 17.4012 70.7499C9.62048 64.4313 9.29207 53.4564 11.2176 44.393C13.0883 35.5881 18.6462 28.4209 26.8298 24.685C31.3301 22.6306 36.6393 21.4188 41.6145 21.5783C42.0764 21.5932 42.6351 21.455 42.8581 20.9975C43.0562 20.5911 42.6845 20.2221 42.2802 20.2091C36.1969 20.0137 29.8214 21.5651 24.4321 24.3357C20.3911 26.4133 16.8506 29.3936 14.2021 33.0933C10.7898 37.8598 9.1745 43.5518 8.51528 49.3192C7.53062 57.9329 9.45181 67.004 16.679 72.4274C19.6354 74.6458 23.502 76.3241 27.2193 76.6664C27.6872 76.7094 28.2315 76.5207 28.4629 76.0857C30.6927 71.8866 32.9224 67.6877 35.1522 63.4886C35.5122 62.8106 34.5027 62.629 34.0694 62.7412C31.0174 63.5327 27.9656 64.3243 24.9135 65.1155C25.2744 65.3646 25.6355 65.6136 25.9963 65.8627C30.4295 57.7152 34.8628 49.5679 39.2962 41.4207C39.6679 40.7375 38.6376 40.5738 38.2134 40.6733C35.1836 41.3849 32.1536 42.0963 29.1235 42.8078C29.4843 43.057 29.8455 43.3059 30.2063 43.5552C34.4238 36.0359 38.6411 28.5165 42.8586 20.9972C43.3799 20.067 41.4404 20.0708 41.0368 20.7899Z" fill="black"/>
<path d="M74.2124 41.7712L57.0282 54.3919L62.3539 54.6708L32.937 76.9295C32.937 76.9295 56.1884 81.0878 70.567 64.192C74.4459 59.1255 79.6024 48.0202 74.2124 41.7712Z" fill="#FBB040"/>
<path d="M73.4589 41.6547C67.7311 45.8617 62.0029 50.0686 56.2747 54.2754C55.7966 54.6268 56.2747 54.8654 56.6447 54.8846C58.42 54.9777 60.1953 55.0708 61.9705 55.1636C61.847 54.9606 61.7237 54.7575 61.6005 54.5543C51.812 61.961 42.0236 69.3673 32.2353 76.774C32.218 76.787 32.2009 76.8 32.1836 76.813C31.8628 77.056 31.9734 77.3427 32.3428 77.4082C38.6005 78.5164 45.4236 77.8685 51.5299 76.3178C57.0753 74.9093 62.3189 72.3717 66.7743 68.771C71.4772 64.9707 74.7663 59.971 76.5594 54.1985C77.8811 49.9434 78.092 45.0178 75.1031 41.4128C74.7226 40.9536 72.8954 41.6138 73.3233 42.1298C77.4857 47.1506 75.165 54.4691 72.5408 59.6452C69.678 65.2918 64.8568 69.5327 59.3019 72.452C51.8428 76.3717 42.7883 77.6095 34.4626 76.5846C34.1521 76.5462 33.8411 76.5056 33.5329 76.4509C33.5859 76.6492 33.6391 76.8479 33.6921 77.0462C43.4806 69.6395 53.2689 62.2331 63.0573 54.8265C63.0746 54.8135 63.0917 54.8005 63.109 54.7875C63.579 54.432 63.1159 54.198 62.7389 54.1782C60.9637 54.0852 59.1884 53.992 57.4131 53.8993C57.5367 54.1022 57.66 54.3053 57.7832 54.5086C63.5111 50.3016 69.2393 46.0946 74.9674 41.8878C75.2883 41.6522 75.1785 41.35 74.8082 41.2927C74.3463 41.2215 73.8306 41.3819 73.4589 41.6547Z" fill="black"/>
<path d="M29.9993 17.8739L36.5832 20.1337L29.7463 18.8296L29.9993 17.8739Z" fill="black"/>
<path d="M26.918 18.4246L32.3651 20.5561L26.6375 19.3726L26.918 18.4246Z" fill="black"/>
<path d="M24.8385 19.1396L29.6823 21.1534L24.5474 20.0844L24.8385 19.1396Z" fill="black"/>
<path d="M22.6207 19.9224L29.0443 22.3112L22.3445 20.8715L22.6207 19.9224Z" fill="black"/>
<path d="M18.2019 22.5502L22.4375 24.2284L17.9399 23.5034L18.2019 22.5502Z" fill="black"/>
<path d="M16.6239 23.6627L21.8844 25.7241L16.3457 24.6114L16.6239 23.6627Z" fill="black"/>
<path d="M14.2867 25.8599L19.3094 28.7327L13.7183 27.2465L14.2867 25.8599Z" fill="black"/>
<path d="M11.6249 28.3425L15.2702 30.0855L11.311 29.28L11.6249 28.3425Z" fill="black"/>
<path d="M5.23514 38.161L9.99677 39.852L4.99756 39.1206L5.23514 38.161Z" fill="black"/>
<path d="M5.3793 39.7178L10.3748 41.8833L5.03955 40.8001L5.3793 39.7178Z" fill="black"/>
<path d="M5.35009 41.6894L8.37621 43.1191L5.06494 42.6359L5.35009 41.6894Z" fill="black"/>
<path d="M4.03688 56.3809L8.29497 58.2227L3.7439 57.3252L4.03688 56.3809Z" fill="black"/>
<path d="M5.62247 58.5214L9.40107 60.286L5.25732 59.8203L5.62247 58.5214Z" fill="black"/>
<path d="M5.68365 61.3318L9.17574 63.1735L5.31714 62.3415L5.68365 61.3318Z" fill="black"/>
<path d="M6.9636 62.8818L11.8695 65.5509L6.37573 64.5514L6.9636 62.8818Z" fill="black"/>
<path d="M9.21411 66.7024L13.2311 68.1153L8.99707 67.6667L9.21411 66.7024Z" fill="black"/>
<path d="M10.4021 68.2349L15.601 71.0974L9.90234 69.4429L10.4021 68.2349Z" fill="black"/>
<path d="M14.1001 70.7857L17.1535 72.195L13.8057 71.8828L14.1001 70.7857Z" fill="black"/>
<path d="M18.0165 73.3721L16.2737 72.8939L16.1882 73.2059L17.9311 73.6842L18.0165 73.3721Z" fill="black"/>
<path d="M19.7403 74.2642L18.6943 73.9139L18.5918 74.2208L19.6378 74.5711L19.7403 74.2642Z" fill="black"/>
<path d="M71.404 42.7017C66.927 46.2521 62.45 49.8021 57.973 53.3525C57.0578 54.0781 57.9378 54.5286 58.713 54.5708C60.8669 54.6888 63.0211 54.8065 65.1753 54.9244C64.9285 54.5183 64.682 54.1122 64.4352 53.706C54.1457 61.1928 43.8562 68.6796 33.5667 76.1666C33.4213 76.2724 33.2761 76.3779 33.131 76.4837C32.4855 76.9531 32.7115 77.56 33.4497 77.6739C34.3765 77.8173 35.4014 77.4935 36.1477 76.9502C46.4372 69.4634 56.7267 61.9766 67.0162 54.4896C67.1616 54.3839 67.3068 54.2783 67.4519 54.1725C68.4147 53.4721 67.4462 52.9945 66.7118 52.9542C64.5579 52.8363 62.4037 52.7185 60.2495 52.6005C60.4964 53.0067 60.7428 53.4128 60.9896 53.8189C65.4666 50.2686 69.9436 46.7185 74.4207 43.1682C75.0334 42.6822 74.8672 42.0963 74.102 41.9779C73.2028 41.8389 72.1154 42.1374 71.404 42.7017Z" fill="black"/>
<path d="M86.3113 1.72629L89.6525 0.899994L87.9294 3.01688L86.3113 1.72629Z" fill="black"/>
<path d="M26.8193 44.7885L36.1668 43.2269L23.8743 66.8978L31.3916 64.8719L27.9064 73.6849L34.1889 62.5545L26.8768 64.47L39.2684 41.4335L30.3832 42.501L37.3436 27.3648L26.8193 44.7885Z" fill="#FBE942"/>
<path d="M38.4174 25.536C38.6166 25.4067 38.6557 25.3058 38.556 25.24L38.7112 24.9077C38.7112 24.9077 38.5671 25.0311 38.3993 25.1843C36.2253 24.7316 17.7159 28.9581 14.2338 47.194C9.4473 72.2617 27.9965 73.6848 27.9965 73.6848L31.4818 64.8715L23.9644 66.8975L36.2566 43.2268L26.9091 44.7887L37.4335 27.3647" fill="#FFC229"/>
<path d="M64.1308 52.0615L68.267 52.2455C68.267 52.2455 69.7084 52.8767 68.177 53.8688C66.6455 54.861 43.1304 71.9966 43.1304 71.9966L65.9744 53.4868L61.239 53.424L67.9064 48.3674L64.1308 52.0615Z" fill="#FBE942"/>
<path d="M72.3309 44.8419L66.8057 49.1898L63.5825 52.0656L68.0874 52.2461C68.0874 52.2461 69.5288 52.8773 67.9973 53.8694C66.8346 54.6226 53.0003 64.6812 46.4064 69.4809L39.1763 74.7677C39.1763 74.7677 54.0422 74.2907 63.2628 66.9661C78.7183 54.6879 72.3309 44.8419 72.3309 44.8419Z" fill="#FFC229"/>
<path d="M21.6123 86.0395L38.7652 59.6402L29.3257 61.9273L47.6857 37.5166L38.7758 39.032L57.5523 12.1927L79.8503 6.23137L58.798 32.091L66.7398 30.5764L44.0721 56.2736L51.2306 54.5877L21.6123 86.0395Z" fill="#EF4136"/>
<path d="M47.5253 37.607L38.6644 39.1227L51.474 20.7117L37.7627 39.4687L47.3611 37.8267L47.5253 37.607Z" fill="#972724"/>
<path d="M38.6525 59.7312L29.265 62.0182L44.9943 40.9896L28.3625 62.3443L38.571 59.8573L38.6525 59.7312Z" fill="#972724"/>
<path d="M62.3487 30.3894L83.4496 3.68057L59.1468 10.2139L57.7065 12.1844L79.5128 6.32235L58.576 32.182L66.474 30.6674L43.9309 56.3646L51.0499 54.6787L23.0397 84.5875L19.1624 90.7339L55.7669 52.0662L47.9641 53.9136L71.0043 28.7293L62.3487 30.3894Z" fill="#972724"/>
</svg>
