<svg width="94" height="32" viewBox="0 0 94 32" fill="none" xmlns="http://www.w3.org/2000/svg">
<path fill-rule="evenodd" clip-rule="evenodd" d="M0 4.00072L7.06682 0L21.2005 8.00144V24.0043L7.06682 32L8.72454 23.0633L14.1336 20.0036V12.0022L0 4.00072ZM0 4.00072V27.9993L0.00573606 28.0051L7.06682 32V24.0043V9.87769L0 4.00072Z" fill="white"/>
<path d="M29.1942 9.98572H34.7516C36.0388 9.98572 37.1806 10.2292 38.1767 10.7162C39.1729 11.2032 39.9453 11.894 40.4937 12.7887C41.0422 13.6834 41.3164 14.731 41.3164 15.9315C41.3164 17.1319 41.0422 18.1795 40.4937 19.0742C39.9453 19.9689 39.1729 20.6597 38.1767 21.1467C37.1806 21.6337 36.0388 21.8772 34.7516 21.8772H29.1942V9.98572ZM34.6173 19.1931C35.6247 19.1931 36.4306 18.9043 37.035 18.3267C37.6507 17.7492 37.9585 16.9507 37.9585 15.9315C37.9585 14.9122 37.6507 14.1138 37.035 13.5362C36.4306 12.9586 35.6247 12.6698 34.6173 12.6698H32.5186V19.1931H34.6173Z" fill="white"/>
<path d="M52.5013 19.2781V21.8772H43.0655V9.98572H52.2831V12.5849H46.3563V14.5894H51.5779V17.1036H46.3563V19.2781H52.5013Z" fill="white"/>
<path d="M61.6688 21.8772L59.2343 18.1908L56.8333 21.8772H53.0389L57.3203 15.8635L53.2235 9.98572H56.9677L59.3182 13.4173L61.6352 9.98572H65.2282L61.1315 15.7276L65.4969 21.8772H61.6688Z" fill="white"/>
<path d="M70.7994 17.5623L69.557 18.9043V21.8772H66.2662V9.98572H69.557V14.9292L74.107 9.98572H77.7672L72.9653 15.2519L78.019 21.8772H74.1574L70.7994 17.5623Z" fill="white"/>
<path d="M78.8913 9.98572H82.2157V21.8772H78.8913V9.98572Z" fill="white"/>
<path d="M87.0825 12.6528H83.4727V9.98572H93.9999V12.6528H90.4069V21.8772H87.0825V12.6528Z" fill="white"/>
</svg>
