<svg width="40" height="40" viewBox="0 0 40 40" fill="none" xmlns="http://www.w3.org/2000/svg">
<path opacity="0.4" fill-rule="evenodd" clip-rule="evenodd" d="M38.3332 25.3662C39.0235 25.3662 39.5832 25.9259 39.5832 26.6162C39.5832 33.7566 33.8069 39.5329 26.6665 39.5329C26.2162 39.5329 25.8006 39.2906 25.5788 38.8988C25.3569 38.5069 25.3629 38.0259 25.5946 37.6398L27.3446 34.7231C27.6998 34.1311 28.4676 33.9392 29.0596 34.2943C29.6516 34.6495 29.8436 35.4174 29.4884 36.0093L29.0362 36.763C33.6513 35.6923 37.0832 31.5605 37.0832 26.6162C37.0832 25.9259 37.6428 25.3662 38.3332 25.3662Z" fill="#525C75"/>
<path opacity="0.4" fill-rule="evenodd" clip-rule="evenodd" d="M10.9635 3.13611C6.34833 4.20683 2.9165 8.33858 2.9165 13.2829C2.9165 13.9732 2.35686 14.5329 1.6665 14.5329C0.976148 14.5329 0.416504 13.9732 0.416504 13.2829C0.416504 6.14252 6.19281 0.366211 13.3332 0.366211C13.7835 0.366211 14.199 0.608451 14.4209 1.00034C14.6428 1.39222 14.6367 1.87317 14.405 2.25933L12.655 5.176C12.2999 5.76797 11.532 5.95993 10.9401 5.60474C10.3481 5.24956 10.1561 4.48173 10.5113 3.88976L10.9635 3.13611Z" fill="#525C75"/>
<path opacity="0.4" d="M24.7503 25.5503C24.7503 31.2336 20.1503 35.8336 14.4669 35.8336C8.7836 35.8336 4.18359 31.2336 4.18359 25.5503C4.18359 19.867 8.7836 15.2669 14.4669 15.2669C14.7336 15.2669 14.9836 15.2836 15.2669 15.3003C20.3169 15.6836 24.3503 19.7169 24.7336 24.7669C24.7336 25.0169 24.7503 25.267 24.7503 25.5503Z" fill="#525C75"/>
<path d="M35.8333 14.45C35.8333 20.1333 31.2333 24.7334 25.5499 24.7334H24.7333C24.3499 19.6834 20.3166 15.65 15.2666 15.2666V14.45C15.2666 8.76666 19.8666 4.16669 25.5499 4.16669C31.2333 4.16669 35.8333 8.76666 35.8333 14.45Z" fill="#525C75"/>
<path d="M18.5337 25.0166C18.7337 24.5999 18.8504 24.1499 18.8504 23.6666C18.8504 21.9999 17.3837 20.5332 15.717 20.5332H15.2837V19.8999C15.2837 19.2166 14.717 18.6499 14.0337 18.6499C13.3504 18.6499 12.7837 19.2166 12.7837 19.8999V20.5332H11.0337C10.3504 20.5332 9.78369 21.0999 9.78369 21.7832V25.5332V29.2832C9.78369 29.9666 10.3504 30.5332 11.0337 30.5332H12.7837V31.1666C12.7837 31.8499 13.3504 32.4166 14.0337 32.4166C14.717 32.4166 15.2837 31.8499 15.2837 31.1666V30.5332H16.3837C18.2504 30.5332 19.7837 29.1332 19.7837 27.3999C19.7837 26.4499 19.2837 25.5832 18.5337 25.0166ZM12.2837 23.0332H15.717C16.067 23.0332 16.3504 23.4166 16.3504 23.6666C16.3504 24.0166 16.067 24.2999 15.717 24.2999H12.2837V23.0332ZM16.3837 28.0499H12.267V26.7999H15.7004H16.367C16.9004 26.7999 17.267 27.1333 17.267 27.4333C17.267 27.7333 16.917 28.0499 16.3837 28.0499Z" fill="#525C75"/>
</svg>
