<svg width="36" height="36" viewBox="0 0 36 36" fill="none" xmlns="http://www.w3.org/2000/svg">
<path d="M34.5 23.9551C34.5 29.7601 29.805 34.4551 24 34.4551L25.575 31.8301" stroke="white" stroke-width="1.5" stroke-linecap="round" stroke-linejoin="round"/>
<path d="M1.5 11.9551C1.5 6.15008 6.195 1.45508 12 1.45508L10.425 4.08008" stroke="white" stroke-width="1.5" stroke-linecap="round" stroke-linejoin="round"/>
<path d="M9.93005 19.605H14.1451C15.0751 19.605 15.8401 20.445 15.8401 21.3C15.8401 22.23 15.0901 22.995 14.1451 22.995H9.93005V19.605Z" stroke="white" stroke-width="1.5" stroke-miterlimit="10" stroke-linecap="round" stroke-linejoin="round"/>
<path d="M9.93005 22.9951H14.7601C15.8251 22.9951 16.6951 23.7451 16.6951 24.6901C16.6951 25.6201 15.8251 26.3851 14.7601 26.3851H9.93005V22.9951Z" stroke="white" stroke-width="1.5" stroke-miterlimit="10" stroke-linecap="round" stroke-linejoin="round"/>
<path d="M12.63 26.3701V28.0501" stroke="white" stroke-width="1.5" stroke-miterlimit="10" stroke-linecap="round" stroke-linejoin="round"/>
<path d="M12.63 17.925V19.605" stroke="white" stroke-width="1.5" stroke-miterlimit="10" stroke-linecap="round" stroke-linejoin="round"/>
<path d="M22.275 22.9951C22.275 28.1101 18.135 32.25 13.02 32.25C7.90502 32.25 3.76501 28.1101 3.76501 22.9951C3.76501 17.8801 7.90502 13.74 13.02 13.74C13.26 13.74 13.485 13.755 13.74 13.77C18.285 14.115 21.915 17.745 22.26 22.29C22.26 22.515 22.275 22.7401 22.275 22.9951Z" stroke="white" stroke-width="1.5" stroke-miterlimit="10" stroke-linecap="round" stroke-linejoin="round"/>
<path d="M32.25 13.005C32.25 18.12 28.11 22.26 22.995 22.26H22.26C21.915 17.715 18.285 14.085 13.74 13.74V13.005C13.74 7.88997 17.88 3.75 22.995 3.75C28.11 3.75 32.25 7.88997 32.25 13.005Z" stroke="white" stroke-width="1.5" stroke-miterlimit="10" stroke-linecap="round" stroke-linejoin="round"/>
</svg>
