<svg width="40" height="40" viewBox="0 0 40 40" fill="none" xmlns="http://www.w3.org/2000/svg">
<path d="M36.6667 14.1666C36.6667 20.1499 31.8167 24.9999 25.8333 24.9999C25.55 24.9999 25.25 24.9832 24.9667 24.9666C24.55 19.6832 20.3166 15.4499 15.0333 15.0333C15.0166 14.7499 15 14.4499 15 14.1666C15 8.18325 19.85 3.33325 25.8333 3.33325C31.8167 3.33325 36.6667 8.18325 36.6667 14.1666Z" fill="#525C75"/>
<path opacity="0.4" d="M24.9999 25.8333C24.9999 31.8167 20.1499 36.6667 14.1666 36.6667C8.18325 36.6667 3.33325 31.8167 3.33325 25.8333C3.33325 19.85 8.18325 15 14.1666 15C14.4499 15 14.7499 15.0167 15.0332 15.0333C20.3166 15.45 24.5499 19.6833 24.9666 24.9667C24.9833 25.25 24.9999 25.55 24.9999 25.8333Z" fill="#525C75"/>
<path d="M12.7 24.3667L14.1667 21.6667L15.6333 24.3667L18.3333 25.8334L15.6333 27.3001L14.1667 30.0001L12.7 27.3001L10 25.8334L12.7 24.3667Z" fill="#525C75"/>
</svg>
