<svg width="20" height="20" viewBox="0 0 20 20" fill="none" xmlns="http://www.w3.org/2000/svg">
<path d="M6.6665 9.5C6.6665 10.1417 7.1665 10.6667 7.77484 10.6667H9.02484C9.55817 10.6667 9.9915 10.2083 9.9915 9.65C9.9915 9.04167 9.72484 8.825 9.33317 8.68333L7.33317 7.98333C6.93317 7.84167 6.6665 7.625 6.6665 7.01667C6.6665 6.45833 7.09984 6 7.63317 6H8.88317C9.49984 6.00833 9.99984 6.525 9.99984 7.16667" stroke="#2A2C31" stroke-width="1.5" stroke-linecap="round" stroke-linejoin="round"/>
<path d="M8.3335 10.7084V11.325" stroke="#2A2C31" stroke-width="1.5" stroke-linecap="round" stroke-linejoin="round"/>
<path d="M8.3335 5.34167V5.99167" stroke="#2A2C31" stroke-width="1.5" stroke-linecap="round" stroke-linejoin="round"/>
<path d="M8.32484 14.9833C12.0021 14.9833 14.9832 12.0023 14.9832 8.32496C14.9832 4.64766 12.0021 1.66663 8.32484 1.66663C4.64754 1.66663 1.6665 4.64766 1.6665 8.32496C1.6665 12.0023 4.64754 14.9833 8.32484 14.9833Z" stroke="#2A2C31" stroke-width="1.5" stroke-linecap="round" stroke-linejoin="round"/>
<path d="M10.8169 16.5667C11.5669 17.625 12.7919 18.3167 14.1919 18.3167C16.4669 18.3167 18.3169 16.4667 18.3169 14.1917C18.3169 12.8084 17.6336 11.5834 16.5919 10.8334" stroke="#2A2C31" stroke-width="1.5" stroke-linecap="round" stroke-linejoin="round"/>
</svg>
