<svg width="24" height="24" viewBox="0 0 24 24" fill="none" xmlns="http://www.w3.org/2000/svg">
<path d="M16.9219 13.3781V16.3312C16.9219 20.2687 15.3469 21.8438 11.4094 21.8438H7.66875C3.73125 21.8438 2.15625 20.2687 2.15625 16.3312V12.5906C2.15625 8.65313 3.73125 7.07812 7.66875 7.07812H10.6219" stroke="white" stroke-width="0.984375" stroke-linecap="round" stroke-linejoin="round"/>
<path d="M16.9219 13.3781H13.7719C11.4094 13.3781 10.6219 12.5906 10.6219 10.2281V7.07812L16.9219 13.3781Z" stroke="white" stroke-width="0.984375" stroke-linecap="round" stroke-linejoin="round"/>
<path d="M11.6062 2.15625H15.5437" stroke="white" stroke-width="0.984375" stroke-linecap="round" stroke-linejoin="round"/>
<path d="M7.07812 5.10938C7.07812 3.47531 8.39719 2.15625 10.0312 2.15625H12.6103" stroke="white" stroke-width="0.984375" stroke-linecap="round" stroke-linejoin="round"/>
<path d="M21.8438 8.0625V14.1558C21.8438 15.6816 20.6034 16.9219 19.0777 16.9219" stroke="white" stroke-width="0.984375" stroke-linecap="round" stroke-linejoin="round"/>
<path d="M21.8438 8.0625H18.8906C16.6758 8.0625 15.9375 7.32422 15.9375 5.10938V2.15625L21.8438 8.0625Z" stroke="white" stroke-width="0.984375" stroke-linecap="round" stroke-linejoin="round"/>
</svg>
