<svg width="24" height="24" viewBox="0 0 24 24" fill="none" xmlns="http://www.w3.org/2000/svg">
<path d="M8.72388 14.2934C8.72388 15.5632 9.69841 16.587 10.9092 16.587H13.38C14.4333 16.587 15.2897 15.6912 15.2897 14.5887C15.2897 13.3878 14.7679 12.9645 13.9903 12.6888L10.0233 11.3107C9.2456 11.0351 8.72388 10.6118 8.72388 9.41088C8.72388 8.30838 9.58028 7.4126 10.6336 7.4126H13.1043C14.3151 7.4126 15.2897 8.43635 15.2897 9.70619" stroke="white" stroke-width="0.984375" stroke-linecap="round" stroke-linejoin="round"/>
<path d="M12 6.09375V17.9062" stroke="white" stroke-width="0.984375" stroke-linecap="round" stroke-linejoin="round"/>
<path d="M12 21.8438C17.4366 21.8438 21.8438 17.4366 21.8438 12C21.8438 6.56345 17.4366 2.15625 12 2.15625C6.56345 2.15625 2.15625 6.56345 2.15625 12C2.15625 17.4366 6.56345 21.8438 12 21.8438Z" stroke="white" stroke-width="0.984375" stroke-linecap="round" stroke-linejoin="round"/>
</svg>
