<svg width="40" height="40" viewBox="0 0 40 40" fill="none" xmlns="http://www.w3.org/2000/svg">
<path d="M34.1667 27.9166H30.4167V24.1666C30.4167 23.4833 29.8501 22.9166 29.1667 22.9166C28.4834 22.9166 27.9167 23.4833 27.9167 24.1666V27.9166H24.1667C23.4834 27.9166 22.9167 28.4833 22.9167 29.1666C22.9167 29.85 23.4834 30.4166 24.1667 30.4166H27.9167V34.1666C27.9167 34.85 28.4834 35.4166 29.1667 35.4166C29.8501 35.4166 30.4167 34.85 30.4167 34.1666V30.4166H34.1667C34.8501 30.4166 35.4167 29.85 35.4167 29.1666C35.4167 28.4833 34.8501 27.9166 34.1667 27.9166Z" fill="#525C75"/>
<path opacity="0.4" d="M36.6667 14.2V6.63337C36.6667 4.28337 35.6 3.33337 32.95 3.33337H26.2167C23.5667 3.33337 22.5 4.28337 22.5 6.63337V14.1834C22.5 16.55 23.5667 17.4834 26.2167 17.4834H32.95C35.6 17.5 36.6667 16.55 36.6667 14.2Z" fill="#525C75"/>
<path d="M17.4999 14.2V6.63337C17.4999 4.28337 16.4333 3.33337 13.7833 3.33337H7.04992C4.39992 3.33337 3.33325 4.28337 3.33325 6.63337V14.1834C3.33325 16.55 4.39992 17.4834 7.04992 17.4834H13.7833C16.4333 17.5 17.4999 16.55 17.4999 14.2Z" fill="#525C75"/>
<path opacity="0.4" d="M17.4999 32.95V26.2167C17.4999 23.5667 16.4333 22.5 13.7833 22.5H7.04992C4.39992 22.5 3.33325 23.5667 3.33325 26.2167V32.95C3.33325 35.6 4.39992 36.6667 7.04992 36.6667H13.7833C16.4333 36.6667 17.4999 35.6 17.4999 32.95Z" fill="#525C75"/>
</svg>
