<svg width="74" height="72" viewBox="0 0 74 72" fill="none" xmlns="http://www.w3.org/2000/svg">
<circle cx="44" cy="42" r="30" fill="#3C4255"/>
<path opacity="0.4" d="M42.5 55H17.5C12 55 7.5 50.5 7.5 45V15C7.5 9.5 12 5 17.5 5H42.5C48 5 52.5 9.5 52.5 15V45C52.5 50.5 48 55 42.5 55Z" fill="#A2A5AF"/>
<path d="M40.625 27.5H19.375C16.975 27.5 15 25.525 15 23.125V16.875C15 14.475 16.975 12.5 19.375 12.5H40.625C43.025 12.5 45 14.475 45 16.875V23.125C45 25.525 43.025 27.5 40.625 27.5Z" fill="#A2A5AF"/>
<path d="M27.1496 42.7L25.5246 41.0749L27.0746 39.5249C27.7996 38.7999 27.7996 37.5999 27.0746 36.8749C26.3496 36.1499 25.1496 36.1499 24.4246 36.8749L22.8746 38.4249L21.3996 36.95C20.6746 36.225 19.4746 36.225 18.7496 36.95C18.0246 37.675 18.0246 38.875 18.7496 39.6L20.2246 41.0749L18.6746 42.6249C17.9496 43.3499 17.9496 44.5499 18.6746 45.2749C19.0496 45.6499 19.5246 45.825 19.9996 45.825C20.4746 45.825 20.9496 45.6499 21.3246 45.2749L22.8746 43.7249L24.4996 45.35C24.8746 45.725 25.3496 45.8999 25.8246 45.8999C26.2996 45.8999 26.7746 45.725 27.1496 45.35C27.8746 44.625 27.8746 43.425 27.1496 42.7Z" fill="#A2A5AF"/>
<path d="M41.275 40.8252C39.9 40.8252 38.75 39.7002 38.75 38.3252C38.75 36.9502 39.85 35.8252 41.225 35.8252H41.275C42.65 35.8252 43.775 36.9502 43.775 38.3252C43.775 39.7002 42.65 40.8252 41.275 40.8252Z" fill="#A2A5AF"/>
<path d="M36.2246 46.225C34.8496 46.225 33.7246 45.125 33.7246 43.75V43.7C33.7246 42.325 34.8496 41.2 36.2246 41.2C37.5996 41.2 38.7246 42.325 38.7246 43.7C38.7246 45.075 37.5996 46.225 36.2246 46.225Z" fill="#A2A5AF"/>
</svg>
