<svg width="70" height="70" viewBox="0 0 70 70" fill="none" xmlns="http://www.w3.org/2000/svg">
<circle cx="31" cy="39" r="31" fill="#3C4255"/>
<path d="M65 21.25C65 30.225 57.725 37.5 48.75 37.5C48.325 37.5 47.875 37.475 47.45 37.45C46.825 29.525 40.475 23.175 32.55 22.55C32.525 22.125 32.5 21.675 32.5 21.25C32.5 12.275 39.775 5 48.75 5C57.725 5 65 12.275 65 21.25Z" fill="#A2A5AF"/>
<path opacity="0.4" d="M47.5 38.75C47.5 47.725 40.225 55 31.25 55C22.275 55 15 47.725 15 38.75C15 29.775 22.275 22.5 31.25 22.5C31.675 22.5 32.125 22.525 32.55 22.55C40.475 23.175 46.825 29.525 47.45 37.45C47.475 37.875 47.5 38.325 47.5 38.75Z" fill="#A2A5AF"/>
<path d="M29.05 36.55L31.25 32.5L33.45 36.55L37.5 38.75L33.45 40.95L31.25 45L29.05 40.95L25 38.75L29.05 36.55Z" fill="#A2A5AF"/>
</svg>
