<svg width="79" height="84" viewBox="0 0 79 84" fill="none" xmlns="http://www.w3.org/2000/svg">
<circle cx="31" cy="53" r="31" fill="#3C4255"/>
<path opacity="0.4" d="M62.113 38.3916C60.923 39.5533 60.243 41.225 60.413 43.01C60.668 46.07 63.473 48.3083 66.533 48.3083H71.9163V51.68C71.9163 57.545 67.128 62.3333 61.263 62.3333H28.7363C22.8713 62.3333 18.083 57.545 18.083 51.68V32.6117C18.083 26.7467 22.8713 21.9583 28.7363 21.9583H61.263C67.128 21.9583 71.9163 26.7467 71.9163 32.6117V36.6917H66.193C64.6063 36.6917 63.1613 37.315 62.113 38.3916Z" fill="#A2A5AF"/>
<path d="M53.0747 11.1916V21.9583H28.7363C22.8713 21.9583 18.083 26.7466 18.083 32.6116V22.2134C18.083 18.8417 20.1513 15.8382 23.2963 14.6482L45.793 6.14823C49.3063 4.8449 53.0747 7.42332 53.0747 11.1916Z" fill="#A2A5AF"/>
<path d="M74.9202 39.5814V45.4182C74.9202 46.9766 73.6735 48.2515 72.0869 48.3081H66.5335C63.4735 48.3081 60.6685 46.0698 60.4135 43.0098C60.2435 41.2248 60.9235 39.5531 62.1135 38.3915C63.1619 37.3148 64.6069 36.6915 66.1935 36.6915H72.0869C73.6735 36.7482 74.9202 38.0231 74.9202 39.5814Z" fill="#A2A5AF"/>
<path d="M50.6663 36.125H30.833C29.6713 36.125 28.708 35.1617 28.708 34C28.708 32.8383 29.6713 31.875 30.833 31.875H50.6663C51.828 31.875 52.7913 32.8383 52.7913 34C52.7913 35.1617 51.828 36.125 50.6663 36.125Z" fill="#A2A5AF"/>
</svg>
