<svg width="128" height="128" viewBox="0 0 128 128" fill="none" xmlns="http://www.w3.org/2000/svg">
<circle cx="64" cy="64" r="64" fill="#D33F49" fill-opacity="0.1"/>
<circle cx="64" cy="64" r="55" fill="#D33F49" fill-opacity="0.2"/>
<circle cx="64" cy="64" r="43" fill="#D33F49"/>
<path fill-rule="evenodd" clip-rule="evenodd" d="M81.1213 51.1213C82.2929 49.9497 82.2929 48.0503 81.1213 46.8787C79.9497 45.7071 78.0503 45.7071 76.8787 46.8787L64 59.7574L51.1213 46.8787C49.9497 45.7071 48.0503 45.7071 46.8787 46.8787C45.7071 48.0503 45.7071 49.9497 46.8787 51.1213L59.7574 64L46.8787 76.8787C45.7071 78.0503 45.7071 79.9497 46.8787 81.1213C48.0503 82.2929 49.9497 82.2929 51.1213 81.1213L64 68.2426L76.8787 81.1213C78.0503 82.2929 79.9497 82.2929 81.1213 81.1213C82.2929 79.9497 82.2929 78.0503 81.1213 76.8787L68.2426 64L81.1213 51.1213Z" fill="white"/>
</svg>
