<svg width="24" height="24" viewBox="0 0 24 24" fill="none" xmlns="http://www.w3.org/2000/svg">
<path d="M9.31994 13.2806H12.4099V20.4806C12.4099 21.5406 13.7299 22.0406 14.4299 21.2406L21.9999 12.6406C22.6599 11.8906 22.1299 10.7206 21.1299 10.7206H18.0399V3.52058C18.0399 2.46058 16.7199 1.96058 16.0199 2.76058L8.44994 11.3606C7.79994 12.1106 8.32994 13.2806 9.31994 13.2806Z" fill="#FFA552"/>
<path opacity="0.4" d="M8.5 4.74985H1.5C1.09 4.74985 0.75 4.40985 0.75 3.99985C0.75 3.58985 1.09 3.24985 1.5 3.24985H8.5C8.91 3.24985 9.25 3.58985 9.25 3.99985C9.25 4.40985 8.91 4.74985 8.5 4.74985Z" fill="#FFA552"/>
<path opacity="0.4" d="M7.5 20.7501H1.5C1.09 20.7501 0.75 20.4101 0.75 20.0001C0.75 19.5901 1.09 19.2501 1.5 19.2501H7.5C7.91 19.2501 8.25 19.5901 8.25 20.0001C8.25 20.4101 7.91 20.7501 7.5 20.7501Z" fill="#FFA552"/>
<path opacity="0.4" d="M4.5 12.75H1.5C1.09 12.75 0.75 12.41 0.75 12C0.75 11.59 1.09 11.25 1.5 11.25H4.5C4.91 11.25 5.25 11.59 5.25 12C5.25 12.41 4.91 12.75 4.5 12.75Z" fill="#FFA552"/>
</svg>
