<svg width="40" height="40" viewBox="0 0 40 40" fill="none" xmlns="http://www.w3.org/2000/svg">
<path d="M15.95 20.7667L10.8667 25.85" stroke="#2A2C31" stroke-width="1.5" stroke-miterlimit="10" stroke-linecap="round" stroke-linejoin="round"/>
<path d="M10.9167 20.8167L16 25.9" stroke="#2A2C31" stroke-width="1.5" stroke-miterlimit="10" stroke-linecap="round" stroke-linejoin="round"/>
<path d="M22.55 23.3333H22.5667" stroke="#2A2C31" stroke-width="2" stroke-miterlimit="10" stroke-linecap="round" stroke-linejoin="round"/>
<path d="M29.1167 23.3333H29.1333" stroke="#2A2C31" stroke-width="2" stroke-miterlimit="10" stroke-linecap="round" stroke-linejoin="round"/>
<path d="M25.8333 26.6333V26.6" stroke="#2A2C31" stroke-width="2" stroke-miterlimit="10" stroke-linecap="round" stroke-linejoin="round"/>
<path d="M25.8333 20.0667V20.0333" stroke="#2A2C31" stroke-width="2" stroke-miterlimit="10" stroke-linecap="round" stroke-linejoin="round"/>
<path d="M15 36.6667H25C33.3333 36.6667 36.6667 33.3333 36.6667 25V21.6667C36.6667 13.3333 33.3333 10 25 10H15C6.66668 10 3.33334 13.3333 3.33334 21.6667V25C3.33334 33.3333 6.66668 36.6667 15 36.6667Z" fill="#A2A5AF" stroke="#2A2C31" stroke-width="1.5" stroke-linecap="round" stroke-linejoin="round"/>
<path d="M21.6833 3.33333L21.6667 5.01666C21.65 5.93333 20.9167 6.66666 20 6.66666H19.95C19.0333 6.66666 18.3 7.41666 18.3 8.33333C18.3 9.24999 19.05 9.99999 19.9667 9.99999H21.6333" stroke="#2A2C31" stroke-width="1.5" stroke-linecap="round" stroke-linejoin="round"/>
<path d="M23 23.3H23.0167" stroke="#2A2C31" stroke-width="2" stroke-miterlimit="10" stroke-linecap="round" stroke-linejoin="round"/>
<path d="M29.5667 23.3H29.5833" stroke="#2A2C31" stroke-width="2" stroke-miterlimit="10" stroke-linecap="round" stroke-linejoin="round"/>
<path d="M26.2834 26.6V26.5667" stroke="#2A2C31" stroke-width="2" stroke-miterlimit="10" stroke-linecap="round" stroke-linejoin="round"/>
<path d="M26.2834 20.0333V20" stroke="#2A2C31" stroke-width="2" stroke-miterlimit="10" stroke-linecap="round" stroke-linejoin="round"/>
<path d="M14.0833 21L9 26.0833" stroke="#2A2C31" stroke-width="1.5" stroke-miterlimit="10" stroke-linecap="round" stroke-linejoin="round"/>
<path d="M9.04999 21.05L14.1333 26.1333" stroke="#2A2C31" stroke-width="1.5" stroke-miterlimit="10" stroke-linecap="round" stroke-linejoin="round"/>
</svg>
