<svg width="40" height="38" viewBox="0 0 40 38" fill="none" xmlns="http://www.w3.org/2000/svg">
<path opacity="0.4" d="M28.3333 34.8333H11.6667C8 34.8333 5 31.9833 5 28.5V9.49999C5 6.01666 8 3.16666 11.6667 3.16666H28.3333C32 3.16666 35 6.01666 35 9.49999V28.5C35 31.9833 32 34.8333 28.3333 34.8333Z" fill="#A2A5AF"/>
<path d="M27.0833 17.4167H12.9167C11.3167 17.4167 10 16.1658 10 14.6458V10.6875C10 9.16749 11.3167 7.91666 12.9167 7.91666H27.0833C28.6833 7.91666 30 9.16749 30 10.6875V14.6458C30 16.1658 28.6833 17.4167 27.0833 17.4167Z" fill="#A2A5AF"/>
<path d="M18.0997 27.0433L17.0164 26.0141L18.0497 25.0324C18.5331 24.5733 18.5331 23.8133 18.0497 23.3541C17.5664 22.8949 16.7664 22.8949 16.2831 23.3541L15.2497 24.3358L14.2664 23.4017C13.7831 22.9425 12.9831 22.9425 12.4997 23.4017C12.0164 23.8608 12.0164 24.6208 12.4997 25.08L13.4831 26.0141L12.4497 26.9958C11.9664 27.4549 11.9664 28.2149 12.4497 28.6741C12.6997 28.9116 13.0164 29.0225 13.3331 29.0225C13.6497 29.0225 13.9664 28.9116 14.2164 28.6741L15.2497 27.6924L16.3331 28.7217C16.5831 28.9592 16.8997 29.0699 17.2164 29.0699C17.5331 29.0699 17.8497 28.9592 18.0997 28.7217C18.5831 28.2625 18.5831 27.5025 18.0997 27.0433Z" fill="#A2A5AF"/>
<path d="M27.5167 25.856C26.6 25.856 25.8333 25.1435 25.8333 24.2726C25.8333 23.4018 26.5667 22.6893 27.4833 22.6893H27.5167C28.4333 22.6893 29.1833 23.4018 29.1833 24.2726C29.1833 25.1435 28.4333 25.856 27.5167 25.856Z" fill="#A2A5AF"/>
<path d="M24.1497 29.2758C23.2331 29.2758 22.4831 28.5792 22.4831 27.7083V27.6767C22.4831 26.8058 23.2331 26.0933 24.1497 26.0933C25.0664 26.0933 25.8164 26.8058 25.8164 27.6767C25.8164 28.5475 25.0664 29.2758 24.1497 29.2758Z" fill="#A2A5AF"/>
</svg>
