<svg width="16" height="16" viewBox="0 0 16 16" fill="none" xmlns="http://www.w3.org/2000/svg">
<path d="M15.0007 8.15553C15.0007 7.57998 14.953 7.15998 14.8499 6.72443H8.14355V9.32217H12.08C12.0007 9.96775 11.5721 10.94 10.6197 11.5933L10.6064 11.6802L12.7268 13.2901L12.8737 13.3044C14.2229 12.0833 15.0007 10.2866 15.0007 8.15553Z" fill="#4285F4"/>
<path d="M8.14266 15.0001C10.0712 15.0001 11.6902 14.3778 12.8728 13.3045L10.6188 11.5933C10.0157 12.0056 9.20613 12.2933 8.14266 12.2933C6.2538 12.2933 4.65064 11.0723 4.07916 9.38446L3.99539 9.39143L1.79055 11.0637L1.76172 11.1422C2.93631 13.4289 5.349 15.0001 8.14266 15.0001Z" fill="#34A853"/>
<path d="M4.08031 9.38436C3.92952 8.94881 3.84225 8.48211 3.84225 7.99991C3.84225 7.51766 3.92952 7.05101 4.07237 6.61546L4.06838 6.5227L1.8359 4.82361L1.76286 4.85766C1.27876 5.80656 1.00098 6.87213 1.00098 7.99991C1.00098 9.12768 1.27876 10.1932 1.76286 11.1421L4.08031 9.38436Z" fill="#FBBC05"/>
<path d="M8.1427 3.70665C9.48395 3.70665 10.3887 4.27442 10.9046 4.7489L12.9205 2.82C11.6824 1.69222 10.0712 1 8.1427 1C5.34902 1 2.93631 2.5711 1.76172 4.85775L4.07124 6.61555C4.65066 4.92777 6.25382 3.70665 8.1427 3.70665Z" fill="#EB4335"/>
</svg>
