<svg width="21" height="22" viewBox="0 0 21 22" fill="none" xmlns="http://www.w3.org/2000/svg">
<path d="M5.11963 12.0698H7.92963C8.54963 12.0698 9.05963 12.6298 9.05963 13.1998C9.05963 13.8198 8.55963 14.3298 7.92963 14.3298H5.11963V12.0698Z" stroke="#2A2C31" stroke-width="1.5" stroke-miterlimit="10" stroke-linecap="round" stroke-linejoin="round"/>
<path d="M5.11963 14.3301H8.33963C9.04963 14.3301 9.62963 14.8301 9.62963 15.4601C9.62963 16.0801 9.04963 16.5901 8.33963 16.5901H5.11963V14.3301Z" stroke="#2A2C31" stroke-width="1.5" stroke-miterlimit="10" stroke-linecap="round" stroke-linejoin="round"/>
<path d="M6.91943 16.5801V17.7001" stroke="#2A2C31" stroke-width="1.5" stroke-miterlimit="10" stroke-linecap="round" stroke-linejoin="round"/>
<path d="M6.91943 10.95V12.0699" stroke="#2A2C31" stroke-width="1.5" stroke-miterlimit="10" stroke-linecap="round" stroke-linejoin="round"/>
<path d="M13.3498 14.33C13.3498 17.74 10.5898 20.4999 7.17977 20.4999C3.76977 20.4999 1.00977 17.74 1.00977 14.33C1.00977 10.92 3.76977 8.15991 7.17977 8.15991C7.33977 8.15991 7.48977 8.16993 7.65977 8.17993C10.6898 8.40993 13.1098 10.8299 13.3398 13.8599C13.3398 14.0099 13.3498 14.16 13.3498 14.33Z" stroke="#2A2C31" stroke-width="1.5" stroke-miterlimit="10" stroke-linecap="round" stroke-linejoin="round"/>
<path d="M19.9997 7.66998C19.9997 11.08 17.2397 13.84 13.8297 13.84H13.3397C13.1097 10.81 10.6897 8.38997 7.65967 8.15997V7.66998C7.65967 4.25998 10.4197 1.5 13.8297 1.5C17.2397 1.5 19.9997 4.25998 19.9997 7.66998Z" stroke="#2A2C31" stroke-width="1.5" stroke-miterlimit="10" stroke-linecap="round" stroke-linejoin="round"/>
</svg>
