<svg width="40" height="40" viewBox="0 0 40 40" fill="none" xmlns="http://www.w3.org/2000/svg">
<path opacity="0.4" d="M33.0999 13.4834C33.0999 13.7334 33.0999 13.9834 33.0833 14.2167C30.5333 13.2667 27.5333 13.8501 25.5333 15.6501C24.1833 14.4334 22.4332 13.7501 20.5666 13.7501C16.4666 13.7501 13.1333 17.1001 13.1333 21.2334C13.1333 25.9501 15.4999 29.4001 17.7666 31.6334C17.5833 31.6167 17.4333 31.5834 17.2999 31.5334C12.9833 30.0501 3.33325 23.9167 3.33325 13.4834C3.33325 8.8834 7.03324 5.16675 11.5999 5.16675C14.3166 5.16675 16.7166 6.46673 18.2166 8.4834C19.7332 6.46673 22.1332 5.16675 24.8332 5.16675C29.3999 5.16675 33.0999 8.8834 33.0999 13.4834Z" fill="#525C75"/>
<path d="M29.9999 15.9832C28.2166 15.9832 26.5999 16.8498 25.5999 18.1832C24.5999 16.8498 22.9999 15.9832 21.1999 15.9832C18.1666 15.9832 15.7 18.4498 15.7 21.5165C15.7 22.6998 15.8833 23.7832 16.2166 24.7832C17.7833 29.7332 22.5999 32.6832 24.9832 33.4998C25.3166 33.6165 25.8666 33.6165 26.2166 33.4998C28.5999 32.6832 33.4166 29.7332 34.9832 24.7832C35.3166 23.7665 35.4999 22.6832 35.4999 21.5165C35.4999 18.4498 33.0333 15.9832 29.9999 15.9832Z" fill="#525C75"/>
</svg>
