<svg width="24" height="24" viewBox="0 0 24 24" fill="none" xmlns="http://www.w3.org/2000/svg">
<path d="M9.53906 13.7226C9.53906 14.6775 10.2774 15.4453 11.183 15.4453H13.0336C13.8211 15.4453 14.4609 14.7759 14.4609 13.9392C14.4609 13.0434 14.0672 12.7185 13.4864 12.5118L10.5234 11.4782C9.94266 11.2715 9.54892 10.9565 9.54892 10.0509C9.54892 9.22402 10.1887 8.5448 10.9762 8.5448H12.8269C13.7325 8.5448 14.4708 9.31261 14.4708 10.2675" stroke="white" stroke-width="0.984375" stroke-linecap="round" stroke-linejoin="round"/>
<path d="M12 7.57031V16.4297" stroke="white" stroke-width="0.984375" stroke-linecap="round" stroke-linejoin="round"/>
<path d="M21.8438 12C21.8438 17.4337 17.4337 21.8438 12 21.8438C6.56625 21.8438 2.15625 17.4337 2.15625 12C2.15625 6.56625 6.56625 2.15625 12 2.15625" stroke="white" stroke-width="0.984375" stroke-linecap="round" stroke-linejoin="round"/>
<path d="M21.8438 6.09375V2.15625H17.9062" stroke="white" stroke-width="0.984375" stroke-linecap="round" stroke-linejoin="round"/>
<path d="M16.9219 7.07812L21.8438 2.15625" stroke="white" stroke-width="0.984375" stroke-linecap="round" stroke-linejoin="round"/>
</svg>
