<svg width="32" height="32" viewBox="0 0 32 32" fill="none" xmlns="http://www.w3.org/2000/svg">
<path opacity="0.4" d="M25.7868 19.3199L24.4534 17.1066C24.1734 16.6132 23.9201 15.6799 23.9201 15.1332V11.7599C23.9201 7.41324 20.3868 3.86658 16.0268 3.86658C11.6668 3.86658 8.13342 7.41324 8.13342 11.7599V15.1332C8.13342 15.6799 7.88009 16.6132 7.60009 17.0932L6.25342 19.3199C5.72009 20.2132 5.60009 21.1999 5.93342 22.1066C6.25342 22.9999 7.01342 23.6932 8.00009 24.0266C10.5868 24.9066 13.3068 25.3332 16.0268 25.3332C18.7468 25.3332 21.4668 24.9066 24.0534 24.0399C24.9868 23.7332 25.7068 23.0266 26.0534 22.1066C26.4001 21.1866 26.3068 20.1732 25.7868 19.3199Z" fill="#525C75"/>
<path d="M19.0002 4.42663C18.0802 4.06663 17.0802 3.86663 16.0269 3.86663C14.9869 3.86663 13.9869 4.05329 13.0669 4.42663C13.6402 3.34663 14.7736 2.66663 16.0269 2.66663C17.2936 2.66663 18.4136 3.34663 19.0002 4.42663Z" fill="#525C75"/>
<path d="M19.7731 26.68C19.2131 28.2266 17.7331 29.3333 15.9997 29.3333C14.9464 29.3333 13.9064 28.9066 13.1731 28.1466C12.7464 27.7466 12.4264 27.2133 12.2397 26.6666C12.4131 26.6933 12.5864 26.7066 12.7731 26.7333C13.0797 26.7733 13.3997 26.8133 13.7197 26.84C14.4797 26.9066 15.2531 26.9466 16.0264 26.9466C16.7864 26.9466 17.5464 26.9066 18.2931 26.84C18.5731 26.8133 18.8531 26.8 19.1197 26.76C19.3331 26.7333 19.5464 26.7066 19.7731 26.68Z" fill="#525C75"/>
</svg>
