<svg width="40" height="40" viewBox="0 0 40 40" fill="none" xmlns="http://www.w3.org/2000/svg">
<path d="M28.3333 30.7167H21.6667L14.25 35.65C13.15 36.3833 11.6667 35.6 11.6667 34.2667V30.7167C6.66668 30.7167 3.33334 27.3833 3.33334 22.3833V12.3832C3.33334 7.38323 6.66668 4.0499 11.6667 4.0499H28.3333C33.3333 4.0499 36.6667 7.38323 36.6667 12.3832V22.3833C36.6667 27.3833 33.3333 30.7167 28.3333 30.7167Z" fill="#A2A5AF" stroke="#2A2C31" stroke-width="1.5" stroke-miterlimit="10" stroke-linecap="round" stroke-linejoin="round"/>
<path d="M20 18.9333V18.5833C20 17.45 20.7 16.85 21.4 16.3667C22.0833 15.9 22.7667 15.3 22.7667 14.2C22.7667 12.6667 21.5333 11.4333 20 11.4333C18.4667 11.4333 17.2333 12.6667 17.2333 14.2" stroke="#2A2C31" stroke-width="1.5" stroke-linecap="round" stroke-linejoin="round"/>
<path d="M19.9925 22.9167H20.0075" stroke="#2A2C31" stroke-width="1.5" stroke-linecap="round" stroke-linejoin="round"/>
</svg>
