<svg width="84" height="84" viewBox="0 0 84 84" fill="none" xmlns="http://www.w3.org/2000/svg">
<mask id="mask0" style="mask-type:alpha" maskUnits="userSpaceOnUse" x="0" y="0" width="84" height="84">
<rect width="84" height="84" fill="#C4C4C4"/>
</mask>
<g mask="url(#mask0)">
<circle cx="46" cy="53" r="30" fill="#3C4255"/>
<path d="M44.25 26.875H29.25C28.225 26.875 27.375 26.025 27.375 25C27.375 23.975 28.225 23.125 29.25 23.125H44.25C45.275 23.125 46.125 23.975 46.125 25C46.125 26.025 45.275 26.875 44.25 26.875Z" fill="#A2A5AF"/>
<path d="M36.75 34.375H29.25C28.225 34.375 27.375 33.525 27.375 32.5C27.375 31.475 28.225 30.625 29.25 30.625H36.75C37.775 30.625 38.625 31.475 38.625 32.5C38.625 33.525 37.775 34.375 36.75 34.375Z" fill="#A2A5AF"/>
<path opacity="0.4" d="M36.75 52.5C49.8668 52.5 60.5 41.8668 60.5 28.75C60.5 15.6332 49.8668 5 36.75 5C23.6332 5 13 15.6332 13 28.75C13 41.8668 23.6332 52.5 36.75 52.5Z" fill="#A2A5AF"/>
<path d="M61.25 55.0001C60.8 55.0001 60.35 54.8251 60.025 54.5001L55.375 49.8501C54.7 49.1751 54.7 48.0751 55.375 47.3751C56.05 46.7001 57.15 46.7001 57.85 47.3751L62.5 52.0251C63.175 52.7001 63.175 53.8001 62.5 54.5001C62.15 54.8251 61.7 55.0001 61.25 55.0001Z" fill="#A2A5AF"/>
</g>
</svg>
