<svg width="40" height="40" viewBox="0 0 32 32" fill="none" xmlns="http://www.w3.org/2000/svg">
<path opacity="0.4" d="M2.66699 17.1731V14.8264C2.66699 13.4398 3.80033 12.2931 5.20033 12.2931C7.61366 12.2931 8.60033 10.5864 7.38699 8.49309C6.69366 7.29309 7.10699 5.73309 8.32033 5.03975L10.627 3.71975C11.6803 3.09309 13.0403 3.46642 13.667 4.51975L13.8137 4.77309C15.0137 6.86642 16.987 6.86642 18.2003 4.77309L18.347 4.51975C18.9737 3.46642 20.3337 3.09309 21.387 3.71975L23.6937 5.03975C24.907 5.73309 25.3203 7.29309 24.627 8.49309C23.4137 10.5864 24.4003 12.2931 26.8137 12.2931C28.2003 12.2931 29.347 13.4264 29.347 14.8264V17.1731C29.347 18.5598 28.2137 19.7064 26.8137 19.7064C24.4003 19.7064 23.4137 21.4131 24.627 23.5064C25.3203 24.7198 24.907 26.2664 23.6937 26.9598L21.387 28.2798C20.3337 28.9064 18.9737 28.5331 18.347 27.4798L18.2003 27.2264C17.0003 25.1331 15.027 25.1331 13.8137 27.2264L13.667 27.4798C13.0403 28.5331 11.6803 28.9064 10.627 28.2798L8.32033 26.9598C7.10699 26.2664 6.69366 24.7064 7.38699 23.5064C8.60033 21.4131 7.61366 19.7064 5.20033 19.7064C3.80033 19.7064 2.66699 18.5598 2.66699 17.1731Z" fill="#525C75"/>
<path d="M16.0003 20.3334C18.3936 20.3334 20.3337 18.3933 20.3337 16.0001C20.3337 13.6068 18.3936 11.6667 16.0003 11.6667C13.6071 11.6667 11.667 13.6068 11.667 16.0001C11.667 18.3933 13.6071 20.3334 16.0003 20.3334Z" fill="#525C75"/>
</svg>
