<svg width="40" height="40" viewBox="0 0 40 40" fill="none" xmlns="http://www.w3.org/2000/svg">
<path d="M5.83325 8.43347V31.5668C5.83325 32.2501 5.26659 32.8168 4.58325 32.8168C3.89992 32.8168 3.33325 32.2501 3.33325 31.5668V8.43347C3.33325 7.75014 3.89992 7.18347 4.58325 7.18347C5.26659 7.18347 5.83325 7.75014 5.83325 8.43347Z" fill="#525C75"/>
<path d="M36.6667 8.43347V31.5668C36.6667 32.2501 36.1001 32.8168 35.4167 32.8168C34.7334 32.8168 34.1667 32.2501 34.1667 31.5668V8.43347C34.1667 7.75014 34.7334 7.18347 35.4167 7.18347C36.1001 7.18347 36.6667 7.75014 36.6667 8.43347Z" fill="#525C75"/>
<path opacity="0.4" d="M12.6667 35.4167H27.3334C30.1001 35.4167 32.3334 33.1834 32.3334 30.4167V9.58337C32.3334 6.81671 30.1001 4.58337 27.3334 4.58337H12.6667C9.90008 4.58337 7.66675 6.81671 7.66675 9.58337V30.4167C7.66675 33.1834 9.90008 35.4167 12.6667 35.4167Z" fill="#525C75"/>
</svg>
