<svg width="80" height="80" viewBox="0 0 80 80" fill="none" xmlns="http://www.w3.org/2000/svg">
<g opacity="0.6">
<path d="M29.0835 69.2816C33.3283 71.84 36.3565 70.7779 37.5158 68.7263C39.7577 64.7587 47.2121 56.6452 59.0252 53.903C74.671 50.271 71.4036 40.6275 61.7855 35.567C52.1674 30.5065 44.9758 23.5044 46.0643 15.8908C47.1527 8.27726 36.3683 5.65262 31.5723 20.2985C28.473 29.7633 22.9189 32.2989 19.3771 32.9085C16.0391 33.4829 12.3877 34.2037 10.6071 37.0849C8.44641 40.5809 9.20037 44.1173 18.2465 46.5429C31.0657 49.98 19.5691 63.5466 29.0835 69.2816Z" fill="#3C4255"/>
<path d="M18.0546 52.6925C18.2342 52.5897 20.2617 51.7313 30.3483 56.4336C30.3189 56.4736 30.3064 56.4925 30.3064 56.4925C30.3064 56.4925 19.8205 60.0239 17.7659 55.6735C17.1524 54.3784 17.3282 53.4866 18.0371 52.7026L18.0546 52.6925Z" fill="#FCC591"/>
<path d="M51.9567 54.4722C49.7653 56.3144 46.3287 57.6516 43.0127 55.8735C43.5367 55.5386 44.0779 55.1938 44.6299 54.837C47.9601 52.6973 50.8933 54.129 51.9567 54.4722Z" fill="#FCC591"/>
<path d="M55.8816 31.8139C58.1206 50.4573 52.7998 53.8409 52.2075 54.3549C52.036 54.5037 51.9665 54.4928 51.7072 54.4261L51.7028 54.4286C50.6055 54.1377 47.9598 52.6971 44.6296 54.8366C44.0776 55.1933 43.5362 55.5382 43.0123 55.8731C39.6151 58.0276 36.8718 59.546 34.8953 58.6647C33.2189 57.8095 31.7073 57.0694 30.3484 56.4337C20.2618 51.7313 18.2343 52.5897 18.0547 52.6925C18.2631 52.579 20.1752 51.5191 22.7499 49.6552C22.7586 49.6502 22.7674 49.6452 22.7693 49.6383C26.2106 47.1443 30.8193 43.2141 34.132 38.1583C36.3872 34.7204 38.5934 26.0049 42.8502 24.2948C51.5986 21.0312 55.5184 28.0218 55.8816 31.8139Z" fill="#F36F39"/>
<path d="M46.2086 31.4867C46.4801 30.7697 46.4537 30.095 46.1495 29.9798C45.8453 29.8646 45.3785 30.3525 45.1069 31.0695C44.8354 31.7866 44.8618 32.4613 45.1661 32.5765C45.4703 32.6917 45.937 32.2038 46.2086 31.4867Z" fill="#FFE3CA"/>
<path d="M51.7788 32.4017C51.9713 31.6595 51.872 30.9916 51.5571 30.9099C51.2423 30.8283 50.831 31.3638 50.6385 32.106C50.4461 32.8483 50.5453 33.5161 50.8602 33.5978C51.1751 33.6794 51.5864 33.1439 51.7788 32.4017Z" fill="#FFE3CA"/>
<path d="M48.3882 35.1271C48.3426 35.127 48.2984 35.1114 48.2629 35.0828C48.2273 35.0541 48.2027 35.0142 48.193 34.9696C48.1574 34.8081 47.9987 34.3305 47.7472 34.2595C47.4957 34.1885 47.0023 34.4641 46.8027 34.6087C46.7597 34.6398 46.7062 34.6526 46.6538 34.6442C46.6014 34.6358 46.5545 34.607 46.5234 34.564C46.4923 34.521 46.4795 34.4675 46.4879 34.4151C46.4962 34.3627 46.5251 34.3158 46.5681 34.2847C46.6467 34.2277 47.3513 33.7321 47.8558 33.8745C48.382 34.0229 48.5648 34.7967 48.5838 34.8845C48.5902 34.9137 48.5899 34.944 48.583 34.9731C48.5762 35.0022 48.5629 35.0294 48.5441 35.0526C48.5253 35.0759 48.5016 35.0947 48.4746 35.1076C48.4476 35.1205 48.4181 35.1271 48.3882 35.1271H48.3882Z" fill="#FFE3CA"/>
</g>
</svg>
