<svg width="25" height="24" viewBox="0 0 25 24" fill="none" xmlns="http://www.w3.org/2000/svg">
<path d="M23.5 15.97C23.5 19.84 20.37 22.97 16.5 22.97L17.55 21.22" stroke="#2A2C31" stroke-width="1.5" stroke-linecap="round" stroke-linejoin="round"/>
<path d="M1.5 7.96997C1.5 4.09997 4.63 0.969971 8.5 0.969971L7.45 2.71997" stroke="#2A2C31" stroke-width="1.5" stroke-linecap="round" stroke-linejoin="round"/>
<path d="M7.11963 13.0698H9.92963C10.5496 13.0698 11.0596 13.6298 11.0596 14.1998C11.0596 14.8198 10.5596 15.3298 9.92963 15.3298H7.11963V13.0698Z" stroke="#2A2C31" stroke-width="1.5" stroke-miterlimit="10" stroke-linecap="round" stroke-linejoin="round"/>
<path d="M7.11963 15.3301H10.3396C11.0496 15.3301 11.6296 15.8301 11.6296 16.4601C11.6296 17.0801 11.0496 17.5901 10.3396 17.5901H7.11963V15.3301Z" stroke="#2A2C31" stroke-width="1.5" stroke-miterlimit="10" stroke-linecap="round" stroke-linejoin="round"/>
<path d="M8.91943 17.5801V18.7001" stroke="#2A2C31" stroke-width="1.5" stroke-miterlimit="10" stroke-linecap="round" stroke-linejoin="round"/>
<path d="M8.91943 11.95V13.0699" stroke="#2A2C31" stroke-width="1.5" stroke-miterlimit="10" stroke-linecap="round" stroke-linejoin="round"/>
<path d="M15.3498 15.33C15.3498 18.74 12.5898 21.4999 9.17977 21.4999C5.76977 21.4999 3.00977 18.74 3.00977 15.33C3.00977 11.92 5.76977 9.15991 9.17977 9.15991C9.33977 9.15991 9.48977 9.16993 9.65977 9.17993C12.6898 9.40993 15.1098 11.8299 15.3398 14.8599C15.3398 15.0099 15.3498 15.16 15.3498 15.33Z" stroke="#2A2C31" stroke-width="1.5" stroke-miterlimit="10" stroke-linecap="round" stroke-linejoin="round"/>
<path d="M21.9997 8.66998C21.9997 12.08 19.2397 14.84 15.8297 14.84H15.3397C15.1097 11.81 12.6897 9.38997 9.65967 9.15997V8.66998C9.65967 5.25998 12.4197 2.5 15.8297 2.5C19.2397 2.5 21.9997 5.25998 21.9997 8.66998Z" stroke="#2A2C31" stroke-width="1.5" stroke-miterlimit="10" stroke-linecap="round" stroke-linejoin="round"/>
</svg>
