<svg width="40" height="40" viewBox="0 0 40 40" fill="none" xmlns="http://www.w3.org/2000/svg">
<path d="M20 20C24.6024 20 28.3334 16.269 28.3334 11.6667C28.3334 7.0643 24.6024 3.33334 20 3.33334C15.3976 3.33334 11.6667 7.0643 11.6667 11.6667C11.6667 16.269 15.3976 20 20 20Z" fill="#A2A5AF" stroke="#2A2C31" stroke-width="1.5" stroke-linecap="round" stroke-linejoin="round"/>
<path d="M5.68329 36.6667C5.68329 30.2167 12.1 25 20 25Z" fill="#A2A5AF"/>
<path d="M5.68329 36.6667C5.68329 30.2167 12.1 25 20 25" stroke="#2A2C31" stroke-width="1.5" stroke-linecap="round" stroke-linejoin="round"/>
<path d="M30.3334 35.6667C33.2789 35.6667 35.6667 33.2789 35.6667 30.3334C35.6667 27.3878 33.2789 25 30.3334 25C27.3878 25 25 27.3878 25 30.3334C25 33.2789 27.3878 35.6667 30.3334 35.6667Z" fill="#A2A5AF" stroke="#2A2C31" stroke-width="1.5" stroke-linecap="round" stroke-linejoin="round"/>
<path d="M36.6667 36.6667L35 35" stroke="#2A2C31" stroke-width="1.5" stroke-linecap="round" stroke-linejoin="round"/>
</svg>
