<svg width="40" height="40" viewBox="0 0 40 40" fill="none" xmlns="http://www.w3.org/2000/svg">
<path opacity="0.4" d="M35.1332 14.3001V25.7C35.1332 27.5667 34.1332 29.3001 32.5165 30.2501L22.6165 35.9668C20.9999 36.9001 18.9999 36.9001 17.3665 35.9668L7.46652 30.2501C5.84985 29.3168 4.84985 27.5834 4.84985 25.7V14.3001C4.84985 12.4334 5.84985 10.7 7.46652 9.75003L17.3665 4.03337C18.9832 3.10004 20.9832 3.10004 22.6165 4.03337L32.5165 9.75003C34.1332 10.7 35.1332 12.4168 35.1332 14.3001Z" fill="#525C75"/>
<path d="M19.9998 19.9999C22.1445 19.9999 23.8831 18.2612 23.8831 16.1165C23.8831 13.9718 22.1445 12.2333 19.9998 12.2333C17.8551 12.2333 16.1165 13.9718 16.1165 16.1165C16.1165 18.2612 17.8551 19.9999 19.9998 19.9999Z" fill="#525C75"/>
<path d="M24.4665 27.7666C25.8165 27.7666 26.5999 26.2667 25.8499 25.15C24.7165 23.4667 22.5165 22.3334 19.9999 22.3334C17.4832 22.3334 15.2832 23.4667 14.1499 25.15C13.3999 26.2667 14.1832 27.7666 15.5332 27.7666H24.4665Z" fill="#525C75"/>
</svg>
