<svg width="48" height="48" viewBox="0 0 48 48" fill="none" xmlns="http://www.w3.org/2000/svg">
<path d="M48 24C48 10.7452 37.2548 0 24 0C10.7452 0 0 10.7452 0 24C0 37.2548 10.7452 48 24 48C37.2548 48 48 37.2548 48 24Z" fill="url(#paint0_radial)"/>
<path d="M15.8634 17.2996C20.3571 12.8999 27.6428 12.8999 32.1366 17.2996L32.6774 17.8291C32.9021 18.0491 32.9021 18.4058 32.6774 18.6258L30.8273 20.4371C30.715 20.5471 30.5328 20.5471 30.4205 20.4371L29.6763 19.7085C26.5413 16.6391 21.4586 16.6391 18.3237 19.7085L17.5266 20.4888C17.4143 20.5988 17.2322 20.5988 17.1198 20.4888L15.2698 18.6774C15.0451 18.4575 15.0451 18.1008 15.2698 17.8808L15.8634 17.2996ZM35.9627 21.0457L37.6092 22.6578C37.8339 22.8778 37.8339 23.2345 37.6092 23.4545L30.1848 30.7237C29.9601 30.9437 29.5958 30.9437 29.3711 30.7237C29.3711 30.7237 29.3711 30.7237 29.3711 30.7237L24.1017 25.5645C24.0455 25.5095 23.9545 25.5095 23.8983 25.5645C23.8983 25.5645 23.8983 25.5645 23.8983 25.5645L18.629 30.7237C18.4043 30.9437 18.04 30.9437 17.8153 30.7237C17.8153 30.7237 17.8153 30.7237 17.8153 30.7237L10.3907 23.4544C10.166 23.2344 10.166 22.8777 10.3907 22.6577L12.0372 21.0456C12.2619 20.8256 12.6262 20.8256 12.8509 21.0456L18.1204 26.2049C18.1766 26.2599 18.2676 26.2599 18.3238 26.2049C18.3238 26.2049 18.3238 26.2049 18.3238 26.2049L23.593 21.0456C23.8177 20.8256 24.182 20.8256 24.4067 21.0456C24.4067 21.0456 24.4067 21.0456 24.4067 21.0456L29.6762 26.2049C29.7324 26.2599 29.8234 26.2599 29.8796 26.2049L35.149 21.0457C35.3737 20.8257 35.738 20.8257 35.9627 21.0457Z" fill="white"/>
<defs>
<radialGradient id="paint0_radial" cx="0" cy="0" r="1" gradientUnits="userSpaceOnUse" gradientTransform="translate(0 24) scale(48)">
<stop stop-color="#5D9DF6"/>
<stop offset="1" stop-color="#006FFF"/>
</radialGradient>
</defs>
</svg>
