<svg width="40" height="40" viewBox="0 0 40 40" fill="none" xmlns="http://www.w3.org/2000/svg">
<path opacity="0.4" d="M29.1332 17.5832C28.4332 18.2666 28.0333 19.2499 28.1333 20.2999C28.2833 22.0999 29.9332 23.4166 31.7332 23.4166H34.9999V25.8333C34.9999 30.8333 31.6666 34.1666 26.6666 34.1666H11.6666C6.66659 34.1666 3.33325 30.8333 3.33325 25.8333V14.1666C3.33325 9.63325 6.06659 6.46658 10.3166 5.93325C10.7499 5.86658 11.1999 5.83325 11.6666 5.83325H26.6666C27.0999 5.83325 27.5166 5.8499 27.9166 5.91656C32.2166 6.41657 34.9999 9.59992 34.9999 14.1666V16.5833H31.5332C30.5999 16.5833 29.7499 16.9499 29.1332 17.5832Z" fill="#525C75"/>
<path d="M36.6667 18.2837V21.7171C36.6667 22.6338 35.9334 23.3837 35 23.417H31.7333C29.9333 23.417 28.2834 22.1004 28.1334 20.3004C28.0334 19.2504 28.4333 18.267 29.1333 17.5837C29.75 16.9504 30.6 16.5837 31.5333 16.5837H35C35.9334 16.6171 36.6667 17.367 36.6667 18.2837Z" fill="#525C75"/>
</svg>
