<svg width="32" height="32" viewBox="0 0 32 32" fill="none" xmlns="http://www.w3.org/2000/svg">
<path opacity="0.34" d="M16.2 22V24.8" stroke="#F0F6FC" stroke-width="1.5" stroke-linecap="round" stroke-linejoin="round"/>
<path d="M9.53333 29.3333H22.8667V28C22.8667 26.5333 21.6667 25.3333 20.2 25.3333H12.2C10.7333 25.3333 9.53333 26.5333 9.53333 28V29.3333V29.3333Z" stroke="#F0F6FC" stroke-width="1.5" stroke-miterlimit="10"/>
<path d="M8.19995 29.3333H24.1999" stroke="#F0F6FC" stroke-width="1.5" stroke-linecap="round" stroke-linejoin="round"/>
<path d="M16 21.3334C10.84 21.3334 6.66663 17.16 6.66663 12V8.00002C6.66663 5.05335 9.05329 2.66669 12 2.66669H20C22.9466 2.66669 25.3333 5.05335 25.3333 8.00002V12C25.3333 17.16 21.16 21.3334 16 21.3334Z" stroke="#F0F6FC" stroke-width="1.5" stroke-linecap="round" stroke-linejoin="round"/>
<path opacity="0.34" d="M7.2933 15.5333C6.2933 15.2133 5.4133 14.6267 4.71997 13.9333C3.51997 12.6 2.71997 11 2.71997 9.13332C2.71997 7.26665 4.18664 5.79999 6.0533 5.79999H6.91997C6.6533 6.41332 6.51997 7.09332 6.51997 7.79999V11.8C6.51997 13.1333 6.79997 14.3867 7.2933 15.5333Z" stroke="#F0F6FC" stroke-width="1.5" stroke-linecap="round" stroke-linejoin="round"/>
<path opacity="0.34" d="M24.7067 15.5333C25.7067 15.2133 26.5867 14.6267 27.28 13.9333C28.48 12.6 29.28 11 29.28 9.13332C29.28 7.26665 27.8133 5.79999 25.9467 5.79999H25.08C25.3467 6.41332 25.48 7.09332 25.48 7.79999V11.8C25.48 13.1333 25.2 14.3867 24.7067 15.5333Z" stroke="#F0F6FC" stroke-width="1.5" stroke-linecap="round" stroke-linejoin="round"/>
</svg>
