<svg width="32" height="32" viewBox="0 0 32 32" fill="none" xmlns="http://www.w3.org/2000/svg">
<path d="M12.2133 14.4934C12.08 14.48 11.92 14.48 11.7734 14.4934C8.60002 14.3867 6.08002 11.7867 6.08002 8.58669C6.08002 5.32002 8.72002 2.66669 12 2.66669C15.2667 2.66669 17.92 5.32002 17.92 8.58669C17.9067 11.7867 15.3867 14.3867 12.2133 14.4934Z" stroke="#F0F6FC" stroke-width="1.5" stroke-linecap="round" stroke-linejoin="round"/>
<path opacity="0.4" d="M21.88 5.33331C24.4667 5.33331 26.5467 7.42665 26.5467 9.99998C26.5467 12.52 24.5467 14.5733 22.0533 14.6666C21.9467 14.6533 21.8267 14.6533 21.7067 14.6666" stroke="#F0F6FC" stroke-width="1.5" stroke-linecap="round" stroke-linejoin="round"/>
<path d="M5.54665 19.4133C2.31998 21.5733 2.31998 25.0933 5.54665 27.24C9.21331 29.6933 15.2266 29.6933 18.8933 27.24C22.12 25.08 22.12 21.56 18.8933 19.4133C15.24 16.9733 9.22665 16.9733 5.54665 19.4133Z" stroke="#F0F6FC" stroke-width="1.5" stroke-linecap="round" stroke-linejoin="round"/>
<path opacity="0.4" d="M24.4534 26.6667C25.4134 26.4667 26.32 26.08 27.0667 25.5067C29.1467 23.9467 29.1467 21.3734 27.0667 19.8134C26.3334 19.2534 25.44 18.88 24.4934 18.6667" stroke="#F0F6FC" stroke-width="1.5" stroke-linecap="round" stroke-linejoin="round"/>
</svg>
