<svg width="25" height="25" viewBox="0 0 25 25" fill="none" xmlns="http://www.w3.org/2000/svg">
<path d="M21.5082 2.78563L13.7006 8.58444L15.1444 5.16322L21.5082 2.78563Z" fill="#E2761B" stroke="#E2761B" stroke-linecap="round" stroke-linejoin="round"/>
<path d="M3.48399 2.78563L11.2288 8.63936L9.85562 5.16322L3.48399 2.78563Z" fill="#E4761B" stroke="#E4761B" stroke-linecap="round" stroke-linejoin="round"/>
<path d="M18.699 16.2272L16.6196 19.4131L21.0687 20.6372L22.3478 16.2979L18.699 16.2272Z" fill="#E4761B" stroke="#E4761B" stroke-linecap="round" stroke-linejoin="round"/>
<path d="M2.66008 16.2979L3.93126 20.6372L8.38041 19.4131L6.301 16.2272L2.66008 16.2979Z" fill="#E4761B" stroke="#E4761B" stroke-linecap="round" stroke-linejoin="round"/>
<path d="M8.12932 10.8443L6.88952 12.7197L11.3073 12.9159L11.1503 8.16856L8.12932 10.8443Z" fill="#E4761B" stroke="#E4761B" stroke-linecap="round" stroke-linejoin="round"/>
<path d="M16.8628 10.8443L13.8026 8.11363L13.7006 12.9159L18.1105 12.7197L16.8628 10.8443Z" fill="#E4761B" stroke="#E4761B" stroke-linecap="round" stroke-linejoin="round"/>
<path d="M8.38041 19.4131L11.0326 18.1183L8.74137 16.3293L8.38041 19.4131Z" fill="#E4761B" stroke="#E4761B" stroke-linecap="round" stroke-linejoin="round"/>
<path d="M13.9595 18.1183L16.6196 19.4131L16.2508 16.3293L13.9595 18.1183Z" fill="#E4761B" stroke="#E4761B" stroke-linecap="round" stroke-linejoin="round"/>
<path d="M16.6196 19.4131L13.9595 18.1183L14.1714 19.8525L14.1478 20.5822L16.6196 19.4131Z" fill="#D7C1B3" stroke="#D7C1B3" stroke-linecap="round" stroke-linejoin="round"/>
<path d="M8.38041 19.4131L10.8522 20.5822L10.8365 19.8525L11.0326 18.1183L8.38041 19.4131Z" fill="#D7C1B3" stroke="#D7C1B3" stroke-linecap="round" stroke-linejoin="round"/>
<path d="M10.8914 15.1836L8.67859 14.5323L10.2401 13.8183L10.8914 15.1836Z" fill="#233447" stroke="#233447" stroke-linecap="round" stroke-linejoin="round"/>
<path d="M14.1008 15.1836L14.752 13.8183L16.3214 14.5323L14.1008 15.1836Z" fill="#233447" stroke="#233447" stroke-linecap="round" stroke-linejoin="round"/>
<path d="M8.38042 19.4131L8.75706 16.2272L6.301 16.2979L8.38042 19.4131Z" fill="#CD6116" stroke="#CD6116" stroke-linecap="round" stroke-linejoin="round"/>
<path d="M16.2429 16.2272L16.6196 19.4131L18.699 16.2979L16.2429 16.2272Z" fill="#CD6116" stroke="#CD6116" stroke-linecap="round" stroke-linejoin="round"/>
<path d="M18.1105 12.7197L13.7006 12.9159L14.1086 15.1836L14.7599 13.8183L16.3293 14.5323L18.1105 12.7197Z" fill="#CD6116" stroke="#CD6116" stroke-linecap="round" stroke-linejoin="round"/>
<path d="M8.67859 14.5323L10.248 13.8183L10.8914 15.1836L11.3073 12.9159L6.88952 12.7197L8.67859 14.5323Z" fill="#CD6116" stroke="#CD6116" stroke-linecap="round" stroke-linejoin="round"/>
<path d="M6.88952 12.7197L8.74137 16.3293L8.67859 14.5323L6.88952 12.7197Z" fill="#E4751F" stroke="#E4751F" stroke-linecap="round" stroke-linejoin="round"/>
<path d="M16.3293 14.5323L16.2508 16.3293L18.1105 12.7197L16.3293 14.5323Z" fill="#E4751F" stroke="#E4751F" stroke-linecap="round" stroke-linejoin="round"/>
<path d="M11.3073 12.9159L10.8914 15.1836L11.4093 17.8594L11.527 14.3362L11.3073 12.9159Z" fill="#E4751F" stroke="#E4751F" stroke-linecap="round" stroke-linejoin="round"/>
<path d="M13.7006 12.9159L13.4887 14.3283L13.5829 17.8594L14.1086 15.1836L13.7006 12.9159Z" fill="#E4751F" stroke="#E4751F" stroke-linecap="round" stroke-linejoin="round"/>
<path d="M14.1086 15.1836L13.5829 17.8594L13.9595 18.1183L16.2508 16.3292L16.3293 14.5323L14.1086 15.1836Z" fill="#F6851B" stroke="#F6851B" stroke-linecap="round" stroke-linejoin="round"/>
<path d="M8.67859 14.5323L8.74137 16.3292L11.0326 18.1183L11.4093 17.8594L10.8914 15.1836L8.67859 14.5323Z" fill="#F6851B" stroke="#F6851B" stroke-linecap="round" stroke-linejoin="round"/>
<path d="M14.1478 20.5822L14.1714 19.8525L13.9752 19.6798H11.0169L10.8365 19.8525L10.8522 20.5822L8.38041 19.4131L9.24357 20.1193L10.9934 21.3355H13.9987L15.7564 20.1193L16.6196 19.4131L14.1478 20.5822Z" fill="#C0AD9E" stroke="#C0AD9E" stroke-linecap="round" stroke-linejoin="round"/>
<path d="M13.9595 18.1183L13.5829 17.8594H11.4093L11.0326 18.1183L10.8365 19.8525L11.0169 19.6798H13.9752L14.1714 19.8525L13.9595 18.1183Z" fill="#161616" stroke="#161616" stroke-linecap="round" stroke-linejoin="round"/>
<path d="M21.8377 8.96108L22.5047 5.75958L21.5082 2.78563L13.9595 8.38827L16.8628 10.8443L20.9667 12.0449L21.877 10.9856L21.4846 10.7031L22.1124 10.1303L21.6259 9.75361L22.2536 9.27496L21.8377 8.96108Z" fill="#763D16" stroke="#763D16" stroke-linecap="round" stroke-linejoin="round"/>
<path d="M2.49529 5.75958L3.16227 8.96108L2.73854 9.27496L3.36629 9.75361L2.88763 10.1303L3.51538 10.7031L3.12304 10.9856L4.02542 12.0449L8.12932 10.8443L11.0326 8.38827L3.48399 2.78563L2.49529 5.75958Z" fill="#763D16" stroke="#763D16" stroke-linecap="round" stroke-linejoin="round"/>
<path d="M20.9667 12.0449L16.8628 10.8443L18.1105 12.7197L16.2508 16.3292L18.699 16.2979H22.3478L20.9667 12.0449Z" fill="#F6851B" stroke="#F6851B" stroke-linecap="round" stroke-linejoin="round"/>
<path d="M8.12932 10.8443L4.02542 12.0449L2.66008 16.2979H6.301L8.74137 16.3292L6.88952 12.7197L8.12932 10.8443Z" fill="#F6851B" stroke="#F6851B" stroke-linecap="round" stroke-linejoin="round"/>
<path d="M13.7006 12.9159L13.9595 8.38826L15.1522 5.16322H9.85562L11.0326 8.38826L11.3073 12.9159L11.4014 14.344L11.4093 17.8594H13.5829L13.5986 14.344L13.7006 12.9159Z" fill="#F6851B" stroke="#F6851B" stroke-linecap="round" stroke-linejoin="round"/>
</svg>
