<svg width="33" height="32" viewBox="0 0 33 32" fill="none" xmlns="http://www.w3.org/2000/svg">
<path opacity="0.4" d="M24.6866 28.8267C23.5132 29.1733 22.1266 29.3333 20.4999 29.3333H12.4999C10.8732 29.3333 9.48657 29.1733 8.31323 28.8267C8.60657 25.36 12.1666 22.6266 16.4999 22.6266C20.8332 22.6266 24.3932 25.36 24.6866 28.8267Z" stroke="#6E7681" stroke-width="1.5" stroke-linecap="round" stroke-linejoin="round"/>
<path d="M29.8334 12V20C29.8334 25.04 28.3134 27.8 24.6867 28.8267C23.5134 29.1733 22.1267 29.3333 20.5001 29.3333H12.5001C10.8734 29.3333 9.48675 29.1733 8.31342 28.8267C4.68675 27.8 3.16675 25.04 3.16675 20V12C3.16675 5.33332 5.83341 2.66666 12.5001 2.66666H20.5001C27.1667 2.66666 29.8334 5.33332 29.8334 12Z" stroke="#6E7681" stroke-width="1.5" stroke-linecap="round" stroke-linejoin="round"/>
<path opacity="0.4" d="M21.2732 14.1067C21.2732 16.7467 19.1399 18.8933 16.4999 18.8933C13.8599 18.8933 11.7266 16.7467 11.7266 14.1067C11.7266 11.4667 13.8599 9.33334 16.4999 9.33334C19.1399 9.33334 21.2732 11.4667 21.2732 14.1067Z" stroke="#6E7681" stroke-width="1.5" stroke-linecap="round" stroke-linejoin="round"/>
</svg>
